%
M48
M72
T01C0.0150
T02C0.0200
T03C0.0400
T04C0.0512
T05C0.1300
%
T01
X8006Y12250
X5706Y15550
X5506Y16400
X5706Y17350
X6156Y17250
X8006Y16050
X9106Y16950
X12856Y18250
X13706Y17250
X14206Y17750
X13856Y16550
X12906Y15750
X13156Y13000
X15906Y15550
X15706Y16400
X15906Y17350
X16356Y17250
X18206Y16050
X19306Y16950
X23056Y18250
X23906Y17250
X24406Y17750
X24056Y16550
X23106Y15750
X23356Y13000
X26106Y15550
X25906Y16400
X26106Y17350
X26556Y17250
X28406Y16050
X29506Y16950
X28406Y12250
X18206Y12250
X4006Y17750
X3506Y17250
X3656Y16550
X2706Y15750
X2656Y18250
X2956Y13000
X8006Y32450
X5706Y35750
X5506Y36600
X5706Y37550
X6156Y37450
X8006Y36250
X9106Y37150
X12856Y38450
X13706Y37450
X14206Y37950
X13856Y36750
X12906Y35950
X13156Y33200
X15906Y35750
X15706Y36600
X15906Y37550
X16356Y37450
X18206Y36250
X19306Y37150
X23056Y38450
X23906Y37450
X24406Y37950
X24056Y36750
X23106Y35950
X23356Y33200
X26106Y35750
X25906Y36600
X26106Y37550
X26556Y37450
X28406Y36250
X29506Y37150
X28406Y32450
X18206Y32450
X4006Y37950
X3506Y37450
X3656Y36750
X2706Y35950
X2656Y38450
X2956Y33200
T02
X4506Y36100
X4506Y37100
X5506Y37100
X6506Y37100
X6506Y36100
X5506Y36100
X1506Y36950
X11706Y36950
X14706Y37100
X14706Y36100
X15706Y36100
X16706Y36100
X16706Y37100
X15706Y37100
X21906Y36950
X24906Y37100
X24906Y36100
X25906Y36100
X26906Y36100
X26906Y37100
X25906Y37100
X25906Y16900
X26906Y16900
X26906Y15900
X25906Y15900
X24906Y15900
X24906Y16900
X21906Y16750
X16706Y16900
X16706Y15900
X15706Y15900
X15706Y16900
X14706Y16900
X14706Y15900
X11706Y16750
X6506Y16900
X6506Y15900
X5506Y15900
X5506Y16900
X4506Y16900
X4506Y15900
X1506Y16750
T03
X4006Y19750
X5006Y19750
X6006Y19750
X7006Y19750
X14206Y19750
X15206Y19750
X16206Y19750
X17206Y19750
X24406Y19750
X25406Y19750
X26406Y19750
X27406Y19750
X27406Y39950
X26406Y39950
X25406Y39950
X24406Y39950
X17206Y39950
X16206Y39950
X15206Y39950
X14206Y39950
X7006Y39950
X6006Y39950
X5006Y39950
X4006Y39950
T04
X5508Y31804
X7870Y31017
X7870Y26214
X7443Y21950
X5474Y21950
X3506Y21950
X3146Y26214
X3146Y31017
X13346Y31017
X15708Y31804
X18070Y31017
X18070Y26214
X17643Y21950
X15674Y21950
X13706Y21950
X13346Y26214
X23546Y26214
X23906Y21950
X25874Y21950
X27843Y21950
X28270Y26214
X28270Y31017
X25908Y31804
X23546Y31017
X25908Y11604
X28270Y10817
X28270Y6014
X27843Y1750
X25874Y1750
X23906Y1750
X23546Y6014
X23546Y10817
X18070Y10817
X15708Y11604
X13346Y10817
X13346Y6014
X13706Y1750
X15674Y1750
X17643Y1750
X18070Y6014
X7870Y6014
X7443Y1750
X5474Y1750
X3506Y1750
X3146Y6014
X3146Y10817
X5508Y11604
X7870Y10817
T05
X1506Y1250
X9506Y1250
X11706Y1250
X19706Y1250
X21906Y1250
X29906Y1250
X29906Y19250
X29906Y21450
X21906Y21450
X21906Y19250
X19706Y19250
X19706Y21450
X11706Y21450
X11706Y19250
X9506Y19250
X9506Y21450
X1506Y21450
X1506Y19250
X1506Y39450
X9506Y39450
X11706Y39450
X19706Y39450
X21906Y39450
X29906Y39450
M30
