G75*
%MOIN*%
%OFA0B0*%
%FSLAX25Y25*%
%IPPOS*%
%LPD*%
%AMOC8*
5,1,8,0,0,1.08239X$1,22.5*
%
%ADD10C,0.00800*%
%ADD11C,0.01500*%
%ADD12C,0.01100*%
%ADD13C,0.00000*%
D10*
X0005059Y0002500D02*
X0005059Y0202500D01*
X0105059Y0202500D01*
X0105059Y0002500D01*
X0005059Y0002500D01*
X0107059Y0002500D02*
X0107059Y0202500D01*
X0207059Y0202500D01*
X0207059Y0002500D01*
X0107059Y0002500D01*
X0209059Y0002500D02*
X0209059Y0202500D01*
X0309059Y0202500D01*
X0309059Y0002500D01*
X0209059Y0002500D01*
X0209059Y0204500D02*
X0209059Y0404500D01*
X0309059Y0404500D01*
X0309059Y0204500D01*
X0209059Y0204500D01*
X0207059Y0204500D02*
X0207059Y0404500D01*
X0107059Y0404500D01*
X0107059Y0204500D01*
X0207059Y0204500D01*
X0105059Y0204500D02*
X0105059Y0404500D01*
X0005059Y0404500D01*
X0005059Y0204500D01*
X0105059Y0204500D01*
D11*
X0005059Y0203500D02*
X0336059Y0203500D01*
X0208059Y0002500D02*
X0208059Y0431500D01*
X0106059Y0431500D02*
X0106059Y0002500D01*
D12*
X0346556Y0200550D02*
X0348524Y0204487D01*
X0351033Y0203503D02*
X0354969Y0203503D01*
X0357478Y0203503D02*
X0358462Y0204487D01*
X0361415Y0204487D01*
X0360431Y0202518D02*
X0358462Y0202518D01*
X0357478Y0203503D01*
X0357478Y0200550D02*
X0360431Y0200550D01*
X0361415Y0201534D01*
X0360431Y0202518D01*
X0363924Y0201534D02*
X0364908Y0200550D01*
X0367860Y0200550D01*
X0370369Y0201534D02*
X0371353Y0200550D01*
X0373322Y0200550D01*
X0374306Y0201534D01*
X0374306Y0203503D01*
X0373322Y0204487D01*
X0371353Y0204487D01*
X0370369Y0203503D01*
X0370369Y0201534D01*
X0367860Y0204487D02*
X0364908Y0204487D01*
X0363924Y0203503D01*
X0363924Y0201534D01*
X0376815Y0200550D02*
X0376815Y0204487D01*
X0378783Y0204487D02*
X0379767Y0204487D01*
X0378783Y0204487D02*
X0376815Y0202518D01*
X0382186Y0202518D02*
X0386123Y0202518D01*
X0386123Y0203503D01*
X0385138Y0204487D01*
X0383170Y0204487D01*
X0382186Y0203503D01*
X0382186Y0201534D01*
X0383170Y0200550D01*
X0385138Y0200550D01*
X0346556Y0200550D02*
X0344587Y0204487D01*
X0227138Y0437550D02*
X0225170Y0437550D01*
X0224186Y0438534D01*
X0224186Y0440503D01*
X0225170Y0441487D01*
X0227138Y0441487D01*
X0228123Y0440503D01*
X0228123Y0439518D01*
X0224186Y0439518D01*
X0221767Y0441487D02*
X0220783Y0441487D01*
X0218815Y0439518D01*
X0218815Y0437550D02*
X0218815Y0441487D01*
X0216306Y0440503D02*
X0215322Y0441487D01*
X0213353Y0441487D01*
X0212369Y0440503D01*
X0212369Y0438534D01*
X0213353Y0437550D01*
X0215322Y0437550D01*
X0216306Y0438534D01*
X0216306Y0440503D01*
X0209860Y0441487D02*
X0206908Y0441487D01*
X0205924Y0440503D01*
X0205924Y0438534D01*
X0206908Y0437550D01*
X0209860Y0437550D01*
X0203415Y0438534D02*
X0202431Y0437550D01*
X0199478Y0437550D01*
X0200462Y0439518D02*
X0199478Y0440503D01*
X0200462Y0441487D01*
X0203415Y0441487D01*
X0202431Y0439518D02*
X0200462Y0439518D01*
X0202431Y0439518D02*
X0203415Y0438534D01*
X0196969Y0440503D02*
X0193033Y0440503D01*
X0190524Y0441487D02*
X0188556Y0437550D01*
X0186587Y0441487D01*
X0126123Y0440503D02*
X0126123Y0439518D01*
X0122186Y0439518D01*
X0122186Y0438534D02*
X0122186Y0440503D01*
X0123170Y0441487D01*
X0125138Y0441487D01*
X0126123Y0440503D01*
X0125138Y0437550D02*
X0123170Y0437550D01*
X0122186Y0438534D01*
X0119767Y0441487D02*
X0118783Y0441487D01*
X0116815Y0439518D01*
X0116815Y0437550D02*
X0116815Y0441487D01*
X0114306Y0440503D02*
X0113322Y0441487D01*
X0111353Y0441487D01*
X0110369Y0440503D01*
X0110369Y0438534D01*
X0111353Y0437550D01*
X0113322Y0437550D01*
X0114306Y0438534D01*
X0114306Y0440503D01*
X0107860Y0441487D02*
X0104908Y0441487D01*
X0103924Y0440503D01*
X0103924Y0438534D01*
X0104908Y0437550D01*
X0107860Y0437550D01*
X0101415Y0438534D02*
X0100431Y0437550D01*
X0097478Y0437550D01*
X0098462Y0439518D02*
X0097478Y0440503D01*
X0098462Y0441487D01*
X0101415Y0441487D01*
X0100431Y0439518D02*
X0098462Y0439518D01*
X0100431Y0439518D02*
X0101415Y0438534D01*
X0094969Y0440503D02*
X0091033Y0440503D01*
X0088524Y0441487D02*
X0086556Y0437550D01*
X0084587Y0441487D01*
D13*
X0088559Y0394500D02*
X0088561Y0394661D01*
X0088567Y0394821D01*
X0088577Y0394982D01*
X0088591Y0395142D01*
X0088609Y0395302D01*
X0088630Y0395461D01*
X0088656Y0395620D01*
X0088686Y0395778D01*
X0088719Y0395935D01*
X0088757Y0396092D01*
X0088798Y0396247D01*
X0088843Y0396401D01*
X0088892Y0396554D01*
X0088945Y0396706D01*
X0089001Y0396857D01*
X0089062Y0397006D01*
X0089125Y0397154D01*
X0089193Y0397300D01*
X0089264Y0397444D01*
X0089338Y0397586D01*
X0089416Y0397727D01*
X0089498Y0397865D01*
X0089583Y0398002D01*
X0089671Y0398136D01*
X0089763Y0398268D01*
X0089858Y0398398D01*
X0089956Y0398526D01*
X0090057Y0398651D01*
X0090161Y0398773D01*
X0090268Y0398893D01*
X0090378Y0399010D01*
X0090491Y0399125D01*
X0090607Y0399236D01*
X0090726Y0399345D01*
X0090847Y0399450D01*
X0090971Y0399553D01*
X0091097Y0399653D01*
X0091225Y0399749D01*
X0091356Y0399842D01*
X0091490Y0399932D01*
X0091625Y0400019D01*
X0091763Y0400102D01*
X0091902Y0400182D01*
X0092044Y0400258D01*
X0092187Y0400331D01*
X0092332Y0400400D01*
X0092479Y0400466D01*
X0092627Y0400528D01*
X0092777Y0400586D01*
X0092928Y0400641D01*
X0093081Y0400692D01*
X0093235Y0400739D01*
X0093390Y0400782D01*
X0093546Y0400821D01*
X0093702Y0400857D01*
X0093860Y0400888D01*
X0094018Y0400916D01*
X0094177Y0400940D01*
X0094337Y0400960D01*
X0094497Y0400976D01*
X0094657Y0400988D01*
X0094818Y0400996D01*
X0094979Y0401000D01*
X0095139Y0401000D01*
X0095300Y0400996D01*
X0095461Y0400988D01*
X0095621Y0400976D01*
X0095781Y0400960D01*
X0095941Y0400940D01*
X0096100Y0400916D01*
X0096258Y0400888D01*
X0096416Y0400857D01*
X0096572Y0400821D01*
X0096728Y0400782D01*
X0096883Y0400739D01*
X0097037Y0400692D01*
X0097190Y0400641D01*
X0097341Y0400586D01*
X0097491Y0400528D01*
X0097639Y0400466D01*
X0097786Y0400400D01*
X0097931Y0400331D01*
X0098074Y0400258D01*
X0098216Y0400182D01*
X0098355Y0400102D01*
X0098493Y0400019D01*
X0098628Y0399932D01*
X0098762Y0399842D01*
X0098893Y0399749D01*
X0099021Y0399653D01*
X0099147Y0399553D01*
X0099271Y0399450D01*
X0099392Y0399345D01*
X0099511Y0399236D01*
X0099627Y0399125D01*
X0099740Y0399010D01*
X0099850Y0398893D01*
X0099957Y0398773D01*
X0100061Y0398651D01*
X0100162Y0398526D01*
X0100260Y0398398D01*
X0100355Y0398268D01*
X0100447Y0398136D01*
X0100535Y0398002D01*
X0100620Y0397865D01*
X0100702Y0397727D01*
X0100780Y0397586D01*
X0100854Y0397444D01*
X0100925Y0397300D01*
X0100993Y0397154D01*
X0101056Y0397006D01*
X0101117Y0396857D01*
X0101173Y0396706D01*
X0101226Y0396554D01*
X0101275Y0396401D01*
X0101320Y0396247D01*
X0101361Y0396092D01*
X0101399Y0395935D01*
X0101432Y0395778D01*
X0101462Y0395620D01*
X0101488Y0395461D01*
X0101509Y0395302D01*
X0101527Y0395142D01*
X0101541Y0394982D01*
X0101551Y0394821D01*
X0101557Y0394661D01*
X0101559Y0394500D01*
X0101557Y0394339D01*
X0101551Y0394179D01*
X0101541Y0394018D01*
X0101527Y0393858D01*
X0101509Y0393698D01*
X0101488Y0393539D01*
X0101462Y0393380D01*
X0101432Y0393222D01*
X0101399Y0393065D01*
X0101361Y0392908D01*
X0101320Y0392753D01*
X0101275Y0392599D01*
X0101226Y0392446D01*
X0101173Y0392294D01*
X0101117Y0392143D01*
X0101056Y0391994D01*
X0100993Y0391846D01*
X0100925Y0391700D01*
X0100854Y0391556D01*
X0100780Y0391414D01*
X0100702Y0391273D01*
X0100620Y0391135D01*
X0100535Y0390998D01*
X0100447Y0390864D01*
X0100355Y0390732D01*
X0100260Y0390602D01*
X0100162Y0390474D01*
X0100061Y0390349D01*
X0099957Y0390227D01*
X0099850Y0390107D01*
X0099740Y0389990D01*
X0099627Y0389875D01*
X0099511Y0389764D01*
X0099392Y0389655D01*
X0099271Y0389550D01*
X0099147Y0389447D01*
X0099021Y0389347D01*
X0098893Y0389251D01*
X0098762Y0389158D01*
X0098628Y0389068D01*
X0098493Y0388981D01*
X0098355Y0388898D01*
X0098216Y0388818D01*
X0098074Y0388742D01*
X0097931Y0388669D01*
X0097786Y0388600D01*
X0097639Y0388534D01*
X0097491Y0388472D01*
X0097341Y0388414D01*
X0097190Y0388359D01*
X0097037Y0388308D01*
X0096883Y0388261D01*
X0096728Y0388218D01*
X0096572Y0388179D01*
X0096416Y0388143D01*
X0096258Y0388112D01*
X0096100Y0388084D01*
X0095941Y0388060D01*
X0095781Y0388040D01*
X0095621Y0388024D01*
X0095461Y0388012D01*
X0095300Y0388004D01*
X0095139Y0388000D01*
X0094979Y0388000D01*
X0094818Y0388004D01*
X0094657Y0388012D01*
X0094497Y0388024D01*
X0094337Y0388040D01*
X0094177Y0388060D01*
X0094018Y0388084D01*
X0093860Y0388112D01*
X0093702Y0388143D01*
X0093546Y0388179D01*
X0093390Y0388218D01*
X0093235Y0388261D01*
X0093081Y0388308D01*
X0092928Y0388359D01*
X0092777Y0388414D01*
X0092627Y0388472D01*
X0092479Y0388534D01*
X0092332Y0388600D01*
X0092187Y0388669D01*
X0092044Y0388742D01*
X0091902Y0388818D01*
X0091763Y0388898D01*
X0091625Y0388981D01*
X0091490Y0389068D01*
X0091356Y0389158D01*
X0091225Y0389251D01*
X0091097Y0389347D01*
X0090971Y0389447D01*
X0090847Y0389550D01*
X0090726Y0389655D01*
X0090607Y0389764D01*
X0090491Y0389875D01*
X0090378Y0389990D01*
X0090268Y0390107D01*
X0090161Y0390227D01*
X0090057Y0390349D01*
X0089956Y0390474D01*
X0089858Y0390602D01*
X0089763Y0390732D01*
X0089671Y0390864D01*
X0089583Y0390998D01*
X0089498Y0391135D01*
X0089416Y0391273D01*
X0089338Y0391414D01*
X0089264Y0391556D01*
X0089193Y0391700D01*
X0089125Y0391846D01*
X0089062Y0391994D01*
X0089001Y0392143D01*
X0088945Y0392294D01*
X0088892Y0392446D01*
X0088843Y0392599D01*
X0088798Y0392753D01*
X0088757Y0392908D01*
X0088719Y0393065D01*
X0088686Y0393222D01*
X0088656Y0393380D01*
X0088630Y0393539D01*
X0088609Y0393698D01*
X0088591Y0393858D01*
X0088577Y0394018D01*
X0088567Y0394179D01*
X0088561Y0394339D01*
X0088559Y0394500D01*
X0110559Y0394500D02*
X0110561Y0394661D01*
X0110567Y0394821D01*
X0110577Y0394982D01*
X0110591Y0395142D01*
X0110609Y0395302D01*
X0110630Y0395461D01*
X0110656Y0395620D01*
X0110686Y0395778D01*
X0110719Y0395935D01*
X0110757Y0396092D01*
X0110798Y0396247D01*
X0110843Y0396401D01*
X0110892Y0396554D01*
X0110945Y0396706D01*
X0111001Y0396857D01*
X0111062Y0397006D01*
X0111125Y0397154D01*
X0111193Y0397300D01*
X0111264Y0397444D01*
X0111338Y0397586D01*
X0111416Y0397727D01*
X0111498Y0397865D01*
X0111583Y0398002D01*
X0111671Y0398136D01*
X0111763Y0398268D01*
X0111858Y0398398D01*
X0111956Y0398526D01*
X0112057Y0398651D01*
X0112161Y0398773D01*
X0112268Y0398893D01*
X0112378Y0399010D01*
X0112491Y0399125D01*
X0112607Y0399236D01*
X0112726Y0399345D01*
X0112847Y0399450D01*
X0112971Y0399553D01*
X0113097Y0399653D01*
X0113225Y0399749D01*
X0113356Y0399842D01*
X0113490Y0399932D01*
X0113625Y0400019D01*
X0113763Y0400102D01*
X0113902Y0400182D01*
X0114044Y0400258D01*
X0114187Y0400331D01*
X0114332Y0400400D01*
X0114479Y0400466D01*
X0114627Y0400528D01*
X0114777Y0400586D01*
X0114928Y0400641D01*
X0115081Y0400692D01*
X0115235Y0400739D01*
X0115390Y0400782D01*
X0115546Y0400821D01*
X0115702Y0400857D01*
X0115860Y0400888D01*
X0116018Y0400916D01*
X0116177Y0400940D01*
X0116337Y0400960D01*
X0116497Y0400976D01*
X0116657Y0400988D01*
X0116818Y0400996D01*
X0116979Y0401000D01*
X0117139Y0401000D01*
X0117300Y0400996D01*
X0117461Y0400988D01*
X0117621Y0400976D01*
X0117781Y0400960D01*
X0117941Y0400940D01*
X0118100Y0400916D01*
X0118258Y0400888D01*
X0118416Y0400857D01*
X0118572Y0400821D01*
X0118728Y0400782D01*
X0118883Y0400739D01*
X0119037Y0400692D01*
X0119190Y0400641D01*
X0119341Y0400586D01*
X0119491Y0400528D01*
X0119639Y0400466D01*
X0119786Y0400400D01*
X0119931Y0400331D01*
X0120074Y0400258D01*
X0120216Y0400182D01*
X0120355Y0400102D01*
X0120493Y0400019D01*
X0120628Y0399932D01*
X0120762Y0399842D01*
X0120893Y0399749D01*
X0121021Y0399653D01*
X0121147Y0399553D01*
X0121271Y0399450D01*
X0121392Y0399345D01*
X0121511Y0399236D01*
X0121627Y0399125D01*
X0121740Y0399010D01*
X0121850Y0398893D01*
X0121957Y0398773D01*
X0122061Y0398651D01*
X0122162Y0398526D01*
X0122260Y0398398D01*
X0122355Y0398268D01*
X0122447Y0398136D01*
X0122535Y0398002D01*
X0122620Y0397865D01*
X0122702Y0397727D01*
X0122780Y0397586D01*
X0122854Y0397444D01*
X0122925Y0397300D01*
X0122993Y0397154D01*
X0123056Y0397006D01*
X0123117Y0396857D01*
X0123173Y0396706D01*
X0123226Y0396554D01*
X0123275Y0396401D01*
X0123320Y0396247D01*
X0123361Y0396092D01*
X0123399Y0395935D01*
X0123432Y0395778D01*
X0123462Y0395620D01*
X0123488Y0395461D01*
X0123509Y0395302D01*
X0123527Y0395142D01*
X0123541Y0394982D01*
X0123551Y0394821D01*
X0123557Y0394661D01*
X0123559Y0394500D01*
X0123557Y0394339D01*
X0123551Y0394179D01*
X0123541Y0394018D01*
X0123527Y0393858D01*
X0123509Y0393698D01*
X0123488Y0393539D01*
X0123462Y0393380D01*
X0123432Y0393222D01*
X0123399Y0393065D01*
X0123361Y0392908D01*
X0123320Y0392753D01*
X0123275Y0392599D01*
X0123226Y0392446D01*
X0123173Y0392294D01*
X0123117Y0392143D01*
X0123056Y0391994D01*
X0122993Y0391846D01*
X0122925Y0391700D01*
X0122854Y0391556D01*
X0122780Y0391414D01*
X0122702Y0391273D01*
X0122620Y0391135D01*
X0122535Y0390998D01*
X0122447Y0390864D01*
X0122355Y0390732D01*
X0122260Y0390602D01*
X0122162Y0390474D01*
X0122061Y0390349D01*
X0121957Y0390227D01*
X0121850Y0390107D01*
X0121740Y0389990D01*
X0121627Y0389875D01*
X0121511Y0389764D01*
X0121392Y0389655D01*
X0121271Y0389550D01*
X0121147Y0389447D01*
X0121021Y0389347D01*
X0120893Y0389251D01*
X0120762Y0389158D01*
X0120628Y0389068D01*
X0120493Y0388981D01*
X0120355Y0388898D01*
X0120216Y0388818D01*
X0120074Y0388742D01*
X0119931Y0388669D01*
X0119786Y0388600D01*
X0119639Y0388534D01*
X0119491Y0388472D01*
X0119341Y0388414D01*
X0119190Y0388359D01*
X0119037Y0388308D01*
X0118883Y0388261D01*
X0118728Y0388218D01*
X0118572Y0388179D01*
X0118416Y0388143D01*
X0118258Y0388112D01*
X0118100Y0388084D01*
X0117941Y0388060D01*
X0117781Y0388040D01*
X0117621Y0388024D01*
X0117461Y0388012D01*
X0117300Y0388004D01*
X0117139Y0388000D01*
X0116979Y0388000D01*
X0116818Y0388004D01*
X0116657Y0388012D01*
X0116497Y0388024D01*
X0116337Y0388040D01*
X0116177Y0388060D01*
X0116018Y0388084D01*
X0115860Y0388112D01*
X0115702Y0388143D01*
X0115546Y0388179D01*
X0115390Y0388218D01*
X0115235Y0388261D01*
X0115081Y0388308D01*
X0114928Y0388359D01*
X0114777Y0388414D01*
X0114627Y0388472D01*
X0114479Y0388534D01*
X0114332Y0388600D01*
X0114187Y0388669D01*
X0114044Y0388742D01*
X0113902Y0388818D01*
X0113763Y0388898D01*
X0113625Y0388981D01*
X0113490Y0389068D01*
X0113356Y0389158D01*
X0113225Y0389251D01*
X0113097Y0389347D01*
X0112971Y0389447D01*
X0112847Y0389550D01*
X0112726Y0389655D01*
X0112607Y0389764D01*
X0112491Y0389875D01*
X0112378Y0389990D01*
X0112268Y0390107D01*
X0112161Y0390227D01*
X0112057Y0390349D01*
X0111956Y0390474D01*
X0111858Y0390602D01*
X0111763Y0390732D01*
X0111671Y0390864D01*
X0111583Y0390998D01*
X0111498Y0391135D01*
X0111416Y0391273D01*
X0111338Y0391414D01*
X0111264Y0391556D01*
X0111193Y0391700D01*
X0111125Y0391846D01*
X0111062Y0391994D01*
X0111001Y0392143D01*
X0110945Y0392294D01*
X0110892Y0392446D01*
X0110843Y0392599D01*
X0110798Y0392753D01*
X0110757Y0392908D01*
X0110719Y0393065D01*
X0110686Y0393222D01*
X0110656Y0393380D01*
X0110630Y0393539D01*
X0110609Y0393698D01*
X0110591Y0393858D01*
X0110577Y0394018D01*
X0110567Y0394179D01*
X0110561Y0394339D01*
X0110559Y0394500D01*
X0190559Y0394500D02*
X0190561Y0394661D01*
X0190567Y0394821D01*
X0190577Y0394982D01*
X0190591Y0395142D01*
X0190609Y0395302D01*
X0190630Y0395461D01*
X0190656Y0395620D01*
X0190686Y0395778D01*
X0190719Y0395935D01*
X0190757Y0396092D01*
X0190798Y0396247D01*
X0190843Y0396401D01*
X0190892Y0396554D01*
X0190945Y0396706D01*
X0191001Y0396857D01*
X0191062Y0397006D01*
X0191125Y0397154D01*
X0191193Y0397300D01*
X0191264Y0397444D01*
X0191338Y0397586D01*
X0191416Y0397727D01*
X0191498Y0397865D01*
X0191583Y0398002D01*
X0191671Y0398136D01*
X0191763Y0398268D01*
X0191858Y0398398D01*
X0191956Y0398526D01*
X0192057Y0398651D01*
X0192161Y0398773D01*
X0192268Y0398893D01*
X0192378Y0399010D01*
X0192491Y0399125D01*
X0192607Y0399236D01*
X0192726Y0399345D01*
X0192847Y0399450D01*
X0192971Y0399553D01*
X0193097Y0399653D01*
X0193225Y0399749D01*
X0193356Y0399842D01*
X0193490Y0399932D01*
X0193625Y0400019D01*
X0193763Y0400102D01*
X0193902Y0400182D01*
X0194044Y0400258D01*
X0194187Y0400331D01*
X0194332Y0400400D01*
X0194479Y0400466D01*
X0194627Y0400528D01*
X0194777Y0400586D01*
X0194928Y0400641D01*
X0195081Y0400692D01*
X0195235Y0400739D01*
X0195390Y0400782D01*
X0195546Y0400821D01*
X0195702Y0400857D01*
X0195860Y0400888D01*
X0196018Y0400916D01*
X0196177Y0400940D01*
X0196337Y0400960D01*
X0196497Y0400976D01*
X0196657Y0400988D01*
X0196818Y0400996D01*
X0196979Y0401000D01*
X0197139Y0401000D01*
X0197300Y0400996D01*
X0197461Y0400988D01*
X0197621Y0400976D01*
X0197781Y0400960D01*
X0197941Y0400940D01*
X0198100Y0400916D01*
X0198258Y0400888D01*
X0198416Y0400857D01*
X0198572Y0400821D01*
X0198728Y0400782D01*
X0198883Y0400739D01*
X0199037Y0400692D01*
X0199190Y0400641D01*
X0199341Y0400586D01*
X0199491Y0400528D01*
X0199639Y0400466D01*
X0199786Y0400400D01*
X0199931Y0400331D01*
X0200074Y0400258D01*
X0200216Y0400182D01*
X0200355Y0400102D01*
X0200493Y0400019D01*
X0200628Y0399932D01*
X0200762Y0399842D01*
X0200893Y0399749D01*
X0201021Y0399653D01*
X0201147Y0399553D01*
X0201271Y0399450D01*
X0201392Y0399345D01*
X0201511Y0399236D01*
X0201627Y0399125D01*
X0201740Y0399010D01*
X0201850Y0398893D01*
X0201957Y0398773D01*
X0202061Y0398651D01*
X0202162Y0398526D01*
X0202260Y0398398D01*
X0202355Y0398268D01*
X0202447Y0398136D01*
X0202535Y0398002D01*
X0202620Y0397865D01*
X0202702Y0397727D01*
X0202780Y0397586D01*
X0202854Y0397444D01*
X0202925Y0397300D01*
X0202993Y0397154D01*
X0203056Y0397006D01*
X0203117Y0396857D01*
X0203173Y0396706D01*
X0203226Y0396554D01*
X0203275Y0396401D01*
X0203320Y0396247D01*
X0203361Y0396092D01*
X0203399Y0395935D01*
X0203432Y0395778D01*
X0203462Y0395620D01*
X0203488Y0395461D01*
X0203509Y0395302D01*
X0203527Y0395142D01*
X0203541Y0394982D01*
X0203551Y0394821D01*
X0203557Y0394661D01*
X0203559Y0394500D01*
X0203557Y0394339D01*
X0203551Y0394179D01*
X0203541Y0394018D01*
X0203527Y0393858D01*
X0203509Y0393698D01*
X0203488Y0393539D01*
X0203462Y0393380D01*
X0203432Y0393222D01*
X0203399Y0393065D01*
X0203361Y0392908D01*
X0203320Y0392753D01*
X0203275Y0392599D01*
X0203226Y0392446D01*
X0203173Y0392294D01*
X0203117Y0392143D01*
X0203056Y0391994D01*
X0202993Y0391846D01*
X0202925Y0391700D01*
X0202854Y0391556D01*
X0202780Y0391414D01*
X0202702Y0391273D01*
X0202620Y0391135D01*
X0202535Y0390998D01*
X0202447Y0390864D01*
X0202355Y0390732D01*
X0202260Y0390602D01*
X0202162Y0390474D01*
X0202061Y0390349D01*
X0201957Y0390227D01*
X0201850Y0390107D01*
X0201740Y0389990D01*
X0201627Y0389875D01*
X0201511Y0389764D01*
X0201392Y0389655D01*
X0201271Y0389550D01*
X0201147Y0389447D01*
X0201021Y0389347D01*
X0200893Y0389251D01*
X0200762Y0389158D01*
X0200628Y0389068D01*
X0200493Y0388981D01*
X0200355Y0388898D01*
X0200216Y0388818D01*
X0200074Y0388742D01*
X0199931Y0388669D01*
X0199786Y0388600D01*
X0199639Y0388534D01*
X0199491Y0388472D01*
X0199341Y0388414D01*
X0199190Y0388359D01*
X0199037Y0388308D01*
X0198883Y0388261D01*
X0198728Y0388218D01*
X0198572Y0388179D01*
X0198416Y0388143D01*
X0198258Y0388112D01*
X0198100Y0388084D01*
X0197941Y0388060D01*
X0197781Y0388040D01*
X0197621Y0388024D01*
X0197461Y0388012D01*
X0197300Y0388004D01*
X0197139Y0388000D01*
X0196979Y0388000D01*
X0196818Y0388004D01*
X0196657Y0388012D01*
X0196497Y0388024D01*
X0196337Y0388040D01*
X0196177Y0388060D01*
X0196018Y0388084D01*
X0195860Y0388112D01*
X0195702Y0388143D01*
X0195546Y0388179D01*
X0195390Y0388218D01*
X0195235Y0388261D01*
X0195081Y0388308D01*
X0194928Y0388359D01*
X0194777Y0388414D01*
X0194627Y0388472D01*
X0194479Y0388534D01*
X0194332Y0388600D01*
X0194187Y0388669D01*
X0194044Y0388742D01*
X0193902Y0388818D01*
X0193763Y0388898D01*
X0193625Y0388981D01*
X0193490Y0389068D01*
X0193356Y0389158D01*
X0193225Y0389251D01*
X0193097Y0389347D01*
X0192971Y0389447D01*
X0192847Y0389550D01*
X0192726Y0389655D01*
X0192607Y0389764D01*
X0192491Y0389875D01*
X0192378Y0389990D01*
X0192268Y0390107D01*
X0192161Y0390227D01*
X0192057Y0390349D01*
X0191956Y0390474D01*
X0191858Y0390602D01*
X0191763Y0390732D01*
X0191671Y0390864D01*
X0191583Y0390998D01*
X0191498Y0391135D01*
X0191416Y0391273D01*
X0191338Y0391414D01*
X0191264Y0391556D01*
X0191193Y0391700D01*
X0191125Y0391846D01*
X0191062Y0391994D01*
X0191001Y0392143D01*
X0190945Y0392294D01*
X0190892Y0392446D01*
X0190843Y0392599D01*
X0190798Y0392753D01*
X0190757Y0392908D01*
X0190719Y0393065D01*
X0190686Y0393222D01*
X0190656Y0393380D01*
X0190630Y0393539D01*
X0190609Y0393698D01*
X0190591Y0393858D01*
X0190577Y0394018D01*
X0190567Y0394179D01*
X0190561Y0394339D01*
X0190559Y0394500D01*
X0212559Y0394500D02*
X0212561Y0394661D01*
X0212567Y0394821D01*
X0212577Y0394982D01*
X0212591Y0395142D01*
X0212609Y0395302D01*
X0212630Y0395461D01*
X0212656Y0395620D01*
X0212686Y0395778D01*
X0212719Y0395935D01*
X0212757Y0396092D01*
X0212798Y0396247D01*
X0212843Y0396401D01*
X0212892Y0396554D01*
X0212945Y0396706D01*
X0213001Y0396857D01*
X0213062Y0397006D01*
X0213125Y0397154D01*
X0213193Y0397300D01*
X0213264Y0397444D01*
X0213338Y0397586D01*
X0213416Y0397727D01*
X0213498Y0397865D01*
X0213583Y0398002D01*
X0213671Y0398136D01*
X0213763Y0398268D01*
X0213858Y0398398D01*
X0213956Y0398526D01*
X0214057Y0398651D01*
X0214161Y0398773D01*
X0214268Y0398893D01*
X0214378Y0399010D01*
X0214491Y0399125D01*
X0214607Y0399236D01*
X0214726Y0399345D01*
X0214847Y0399450D01*
X0214971Y0399553D01*
X0215097Y0399653D01*
X0215225Y0399749D01*
X0215356Y0399842D01*
X0215490Y0399932D01*
X0215625Y0400019D01*
X0215763Y0400102D01*
X0215902Y0400182D01*
X0216044Y0400258D01*
X0216187Y0400331D01*
X0216332Y0400400D01*
X0216479Y0400466D01*
X0216627Y0400528D01*
X0216777Y0400586D01*
X0216928Y0400641D01*
X0217081Y0400692D01*
X0217235Y0400739D01*
X0217390Y0400782D01*
X0217546Y0400821D01*
X0217702Y0400857D01*
X0217860Y0400888D01*
X0218018Y0400916D01*
X0218177Y0400940D01*
X0218337Y0400960D01*
X0218497Y0400976D01*
X0218657Y0400988D01*
X0218818Y0400996D01*
X0218979Y0401000D01*
X0219139Y0401000D01*
X0219300Y0400996D01*
X0219461Y0400988D01*
X0219621Y0400976D01*
X0219781Y0400960D01*
X0219941Y0400940D01*
X0220100Y0400916D01*
X0220258Y0400888D01*
X0220416Y0400857D01*
X0220572Y0400821D01*
X0220728Y0400782D01*
X0220883Y0400739D01*
X0221037Y0400692D01*
X0221190Y0400641D01*
X0221341Y0400586D01*
X0221491Y0400528D01*
X0221639Y0400466D01*
X0221786Y0400400D01*
X0221931Y0400331D01*
X0222074Y0400258D01*
X0222216Y0400182D01*
X0222355Y0400102D01*
X0222493Y0400019D01*
X0222628Y0399932D01*
X0222762Y0399842D01*
X0222893Y0399749D01*
X0223021Y0399653D01*
X0223147Y0399553D01*
X0223271Y0399450D01*
X0223392Y0399345D01*
X0223511Y0399236D01*
X0223627Y0399125D01*
X0223740Y0399010D01*
X0223850Y0398893D01*
X0223957Y0398773D01*
X0224061Y0398651D01*
X0224162Y0398526D01*
X0224260Y0398398D01*
X0224355Y0398268D01*
X0224447Y0398136D01*
X0224535Y0398002D01*
X0224620Y0397865D01*
X0224702Y0397727D01*
X0224780Y0397586D01*
X0224854Y0397444D01*
X0224925Y0397300D01*
X0224993Y0397154D01*
X0225056Y0397006D01*
X0225117Y0396857D01*
X0225173Y0396706D01*
X0225226Y0396554D01*
X0225275Y0396401D01*
X0225320Y0396247D01*
X0225361Y0396092D01*
X0225399Y0395935D01*
X0225432Y0395778D01*
X0225462Y0395620D01*
X0225488Y0395461D01*
X0225509Y0395302D01*
X0225527Y0395142D01*
X0225541Y0394982D01*
X0225551Y0394821D01*
X0225557Y0394661D01*
X0225559Y0394500D01*
X0225557Y0394339D01*
X0225551Y0394179D01*
X0225541Y0394018D01*
X0225527Y0393858D01*
X0225509Y0393698D01*
X0225488Y0393539D01*
X0225462Y0393380D01*
X0225432Y0393222D01*
X0225399Y0393065D01*
X0225361Y0392908D01*
X0225320Y0392753D01*
X0225275Y0392599D01*
X0225226Y0392446D01*
X0225173Y0392294D01*
X0225117Y0392143D01*
X0225056Y0391994D01*
X0224993Y0391846D01*
X0224925Y0391700D01*
X0224854Y0391556D01*
X0224780Y0391414D01*
X0224702Y0391273D01*
X0224620Y0391135D01*
X0224535Y0390998D01*
X0224447Y0390864D01*
X0224355Y0390732D01*
X0224260Y0390602D01*
X0224162Y0390474D01*
X0224061Y0390349D01*
X0223957Y0390227D01*
X0223850Y0390107D01*
X0223740Y0389990D01*
X0223627Y0389875D01*
X0223511Y0389764D01*
X0223392Y0389655D01*
X0223271Y0389550D01*
X0223147Y0389447D01*
X0223021Y0389347D01*
X0222893Y0389251D01*
X0222762Y0389158D01*
X0222628Y0389068D01*
X0222493Y0388981D01*
X0222355Y0388898D01*
X0222216Y0388818D01*
X0222074Y0388742D01*
X0221931Y0388669D01*
X0221786Y0388600D01*
X0221639Y0388534D01*
X0221491Y0388472D01*
X0221341Y0388414D01*
X0221190Y0388359D01*
X0221037Y0388308D01*
X0220883Y0388261D01*
X0220728Y0388218D01*
X0220572Y0388179D01*
X0220416Y0388143D01*
X0220258Y0388112D01*
X0220100Y0388084D01*
X0219941Y0388060D01*
X0219781Y0388040D01*
X0219621Y0388024D01*
X0219461Y0388012D01*
X0219300Y0388004D01*
X0219139Y0388000D01*
X0218979Y0388000D01*
X0218818Y0388004D01*
X0218657Y0388012D01*
X0218497Y0388024D01*
X0218337Y0388040D01*
X0218177Y0388060D01*
X0218018Y0388084D01*
X0217860Y0388112D01*
X0217702Y0388143D01*
X0217546Y0388179D01*
X0217390Y0388218D01*
X0217235Y0388261D01*
X0217081Y0388308D01*
X0216928Y0388359D01*
X0216777Y0388414D01*
X0216627Y0388472D01*
X0216479Y0388534D01*
X0216332Y0388600D01*
X0216187Y0388669D01*
X0216044Y0388742D01*
X0215902Y0388818D01*
X0215763Y0388898D01*
X0215625Y0388981D01*
X0215490Y0389068D01*
X0215356Y0389158D01*
X0215225Y0389251D01*
X0215097Y0389347D01*
X0214971Y0389447D01*
X0214847Y0389550D01*
X0214726Y0389655D01*
X0214607Y0389764D01*
X0214491Y0389875D01*
X0214378Y0389990D01*
X0214268Y0390107D01*
X0214161Y0390227D01*
X0214057Y0390349D01*
X0213956Y0390474D01*
X0213858Y0390602D01*
X0213763Y0390732D01*
X0213671Y0390864D01*
X0213583Y0390998D01*
X0213498Y0391135D01*
X0213416Y0391273D01*
X0213338Y0391414D01*
X0213264Y0391556D01*
X0213193Y0391700D01*
X0213125Y0391846D01*
X0213062Y0391994D01*
X0213001Y0392143D01*
X0212945Y0392294D01*
X0212892Y0392446D01*
X0212843Y0392599D01*
X0212798Y0392753D01*
X0212757Y0392908D01*
X0212719Y0393065D01*
X0212686Y0393222D01*
X0212656Y0393380D01*
X0212630Y0393539D01*
X0212609Y0393698D01*
X0212591Y0393858D01*
X0212577Y0394018D01*
X0212567Y0394179D01*
X0212561Y0394339D01*
X0212559Y0394500D01*
X0292559Y0394500D02*
X0292561Y0394661D01*
X0292567Y0394821D01*
X0292577Y0394982D01*
X0292591Y0395142D01*
X0292609Y0395302D01*
X0292630Y0395461D01*
X0292656Y0395620D01*
X0292686Y0395778D01*
X0292719Y0395935D01*
X0292757Y0396092D01*
X0292798Y0396247D01*
X0292843Y0396401D01*
X0292892Y0396554D01*
X0292945Y0396706D01*
X0293001Y0396857D01*
X0293062Y0397006D01*
X0293125Y0397154D01*
X0293193Y0397300D01*
X0293264Y0397444D01*
X0293338Y0397586D01*
X0293416Y0397727D01*
X0293498Y0397865D01*
X0293583Y0398002D01*
X0293671Y0398136D01*
X0293763Y0398268D01*
X0293858Y0398398D01*
X0293956Y0398526D01*
X0294057Y0398651D01*
X0294161Y0398773D01*
X0294268Y0398893D01*
X0294378Y0399010D01*
X0294491Y0399125D01*
X0294607Y0399236D01*
X0294726Y0399345D01*
X0294847Y0399450D01*
X0294971Y0399553D01*
X0295097Y0399653D01*
X0295225Y0399749D01*
X0295356Y0399842D01*
X0295490Y0399932D01*
X0295625Y0400019D01*
X0295763Y0400102D01*
X0295902Y0400182D01*
X0296044Y0400258D01*
X0296187Y0400331D01*
X0296332Y0400400D01*
X0296479Y0400466D01*
X0296627Y0400528D01*
X0296777Y0400586D01*
X0296928Y0400641D01*
X0297081Y0400692D01*
X0297235Y0400739D01*
X0297390Y0400782D01*
X0297546Y0400821D01*
X0297702Y0400857D01*
X0297860Y0400888D01*
X0298018Y0400916D01*
X0298177Y0400940D01*
X0298337Y0400960D01*
X0298497Y0400976D01*
X0298657Y0400988D01*
X0298818Y0400996D01*
X0298979Y0401000D01*
X0299139Y0401000D01*
X0299300Y0400996D01*
X0299461Y0400988D01*
X0299621Y0400976D01*
X0299781Y0400960D01*
X0299941Y0400940D01*
X0300100Y0400916D01*
X0300258Y0400888D01*
X0300416Y0400857D01*
X0300572Y0400821D01*
X0300728Y0400782D01*
X0300883Y0400739D01*
X0301037Y0400692D01*
X0301190Y0400641D01*
X0301341Y0400586D01*
X0301491Y0400528D01*
X0301639Y0400466D01*
X0301786Y0400400D01*
X0301931Y0400331D01*
X0302074Y0400258D01*
X0302216Y0400182D01*
X0302355Y0400102D01*
X0302493Y0400019D01*
X0302628Y0399932D01*
X0302762Y0399842D01*
X0302893Y0399749D01*
X0303021Y0399653D01*
X0303147Y0399553D01*
X0303271Y0399450D01*
X0303392Y0399345D01*
X0303511Y0399236D01*
X0303627Y0399125D01*
X0303740Y0399010D01*
X0303850Y0398893D01*
X0303957Y0398773D01*
X0304061Y0398651D01*
X0304162Y0398526D01*
X0304260Y0398398D01*
X0304355Y0398268D01*
X0304447Y0398136D01*
X0304535Y0398002D01*
X0304620Y0397865D01*
X0304702Y0397727D01*
X0304780Y0397586D01*
X0304854Y0397444D01*
X0304925Y0397300D01*
X0304993Y0397154D01*
X0305056Y0397006D01*
X0305117Y0396857D01*
X0305173Y0396706D01*
X0305226Y0396554D01*
X0305275Y0396401D01*
X0305320Y0396247D01*
X0305361Y0396092D01*
X0305399Y0395935D01*
X0305432Y0395778D01*
X0305462Y0395620D01*
X0305488Y0395461D01*
X0305509Y0395302D01*
X0305527Y0395142D01*
X0305541Y0394982D01*
X0305551Y0394821D01*
X0305557Y0394661D01*
X0305559Y0394500D01*
X0305557Y0394339D01*
X0305551Y0394179D01*
X0305541Y0394018D01*
X0305527Y0393858D01*
X0305509Y0393698D01*
X0305488Y0393539D01*
X0305462Y0393380D01*
X0305432Y0393222D01*
X0305399Y0393065D01*
X0305361Y0392908D01*
X0305320Y0392753D01*
X0305275Y0392599D01*
X0305226Y0392446D01*
X0305173Y0392294D01*
X0305117Y0392143D01*
X0305056Y0391994D01*
X0304993Y0391846D01*
X0304925Y0391700D01*
X0304854Y0391556D01*
X0304780Y0391414D01*
X0304702Y0391273D01*
X0304620Y0391135D01*
X0304535Y0390998D01*
X0304447Y0390864D01*
X0304355Y0390732D01*
X0304260Y0390602D01*
X0304162Y0390474D01*
X0304061Y0390349D01*
X0303957Y0390227D01*
X0303850Y0390107D01*
X0303740Y0389990D01*
X0303627Y0389875D01*
X0303511Y0389764D01*
X0303392Y0389655D01*
X0303271Y0389550D01*
X0303147Y0389447D01*
X0303021Y0389347D01*
X0302893Y0389251D01*
X0302762Y0389158D01*
X0302628Y0389068D01*
X0302493Y0388981D01*
X0302355Y0388898D01*
X0302216Y0388818D01*
X0302074Y0388742D01*
X0301931Y0388669D01*
X0301786Y0388600D01*
X0301639Y0388534D01*
X0301491Y0388472D01*
X0301341Y0388414D01*
X0301190Y0388359D01*
X0301037Y0388308D01*
X0300883Y0388261D01*
X0300728Y0388218D01*
X0300572Y0388179D01*
X0300416Y0388143D01*
X0300258Y0388112D01*
X0300100Y0388084D01*
X0299941Y0388060D01*
X0299781Y0388040D01*
X0299621Y0388024D01*
X0299461Y0388012D01*
X0299300Y0388004D01*
X0299139Y0388000D01*
X0298979Y0388000D01*
X0298818Y0388004D01*
X0298657Y0388012D01*
X0298497Y0388024D01*
X0298337Y0388040D01*
X0298177Y0388060D01*
X0298018Y0388084D01*
X0297860Y0388112D01*
X0297702Y0388143D01*
X0297546Y0388179D01*
X0297390Y0388218D01*
X0297235Y0388261D01*
X0297081Y0388308D01*
X0296928Y0388359D01*
X0296777Y0388414D01*
X0296627Y0388472D01*
X0296479Y0388534D01*
X0296332Y0388600D01*
X0296187Y0388669D01*
X0296044Y0388742D01*
X0295902Y0388818D01*
X0295763Y0388898D01*
X0295625Y0388981D01*
X0295490Y0389068D01*
X0295356Y0389158D01*
X0295225Y0389251D01*
X0295097Y0389347D01*
X0294971Y0389447D01*
X0294847Y0389550D01*
X0294726Y0389655D01*
X0294607Y0389764D01*
X0294491Y0389875D01*
X0294378Y0389990D01*
X0294268Y0390107D01*
X0294161Y0390227D01*
X0294057Y0390349D01*
X0293956Y0390474D01*
X0293858Y0390602D01*
X0293763Y0390732D01*
X0293671Y0390864D01*
X0293583Y0390998D01*
X0293498Y0391135D01*
X0293416Y0391273D01*
X0293338Y0391414D01*
X0293264Y0391556D01*
X0293193Y0391700D01*
X0293125Y0391846D01*
X0293062Y0391994D01*
X0293001Y0392143D01*
X0292945Y0392294D01*
X0292892Y0392446D01*
X0292843Y0392599D01*
X0292798Y0392753D01*
X0292757Y0392908D01*
X0292719Y0393065D01*
X0292686Y0393222D01*
X0292656Y0393380D01*
X0292630Y0393539D01*
X0292609Y0393698D01*
X0292591Y0393858D01*
X0292577Y0394018D01*
X0292567Y0394179D01*
X0292561Y0394339D01*
X0292559Y0394500D01*
X0292559Y0214500D02*
X0292561Y0214661D01*
X0292567Y0214821D01*
X0292577Y0214982D01*
X0292591Y0215142D01*
X0292609Y0215302D01*
X0292630Y0215461D01*
X0292656Y0215620D01*
X0292686Y0215778D01*
X0292719Y0215935D01*
X0292757Y0216092D01*
X0292798Y0216247D01*
X0292843Y0216401D01*
X0292892Y0216554D01*
X0292945Y0216706D01*
X0293001Y0216857D01*
X0293062Y0217006D01*
X0293125Y0217154D01*
X0293193Y0217300D01*
X0293264Y0217444D01*
X0293338Y0217586D01*
X0293416Y0217727D01*
X0293498Y0217865D01*
X0293583Y0218002D01*
X0293671Y0218136D01*
X0293763Y0218268D01*
X0293858Y0218398D01*
X0293956Y0218526D01*
X0294057Y0218651D01*
X0294161Y0218773D01*
X0294268Y0218893D01*
X0294378Y0219010D01*
X0294491Y0219125D01*
X0294607Y0219236D01*
X0294726Y0219345D01*
X0294847Y0219450D01*
X0294971Y0219553D01*
X0295097Y0219653D01*
X0295225Y0219749D01*
X0295356Y0219842D01*
X0295490Y0219932D01*
X0295625Y0220019D01*
X0295763Y0220102D01*
X0295902Y0220182D01*
X0296044Y0220258D01*
X0296187Y0220331D01*
X0296332Y0220400D01*
X0296479Y0220466D01*
X0296627Y0220528D01*
X0296777Y0220586D01*
X0296928Y0220641D01*
X0297081Y0220692D01*
X0297235Y0220739D01*
X0297390Y0220782D01*
X0297546Y0220821D01*
X0297702Y0220857D01*
X0297860Y0220888D01*
X0298018Y0220916D01*
X0298177Y0220940D01*
X0298337Y0220960D01*
X0298497Y0220976D01*
X0298657Y0220988D01*
X0298818Y0220996D01*
X0298979Y0221000D01*
X0299139Y0221000D01*
X0299300Y0220996D01*
X0299461Y0220988D01*
X0299621Y0220976D01*
X0299781Y0220960D01*
X0299941Y0220940D01*
X0300100Y0220916D01*
X0300258Y0220888D01*
X0300416Y0220857D01*
X0300572Y0220821D01*
X0300728Y0220782D01*
X0300883Y0220739D01*
X0301037Y0220692D01*
X0301190Y0220641D01*
X0301341Y0220586D01*
X0301491Y0220528D01*
X0301639Y0220466D01*
X0301786Y0220400D01*
X0301931Y0220331D01*
X0302074Y0220258D01*
X0302216Y0220182D01*
X0302355Y0220102D01*
X0302493Y0220019D01*
X0302628Y0219932D01*
X0302762Y0219842D01*
X0302893Y0219749D01*
X0303021Y0219653D01*
X0303147Y0219553D01*
X0303271Y0219450D01*
X0303392Y0219345D01*
X0303511Y0219236D01*
X0303627Y0219125D01*
X0303740Y0219010D01*
X0303850Y0218893D01*
X0303957Y0218773D01*
X0304061Y0218651D01*
X0304162Y0218526D01*
X0304260Y0218398D01*
X0304355Y0218268D01*
X0304447Y0218136D01*
X0304535Y0218002D01*
X0304620Y0217865D01*
X0304702Y0217727D01*
X0304780Y0217586D01*
X0304854Y0217444D01*
X0304925Y0217300D01*
X0304993Y0217154D01*
X0305056Y0217006D01*
X0305117Y0216857D01*
X0305173Y0216706D01*
X0305226Y0216554D01*
X0305275Y0216401D01*
X0305320Y0216247D01*
X0305361Y0216092D01*
X0305399Y0215935D01*
X0305432Y0215778D01*
X0305462Y0215620D01*
X0305488Y0215461D01*
X0305509Y0215302D01*
X0305527Y0215142D01*
X0305541Y0214982D01*
X0305551Y0214821D01*
X0305557Y0214661D01*
X0305559Y0214500D01*
X0305557Y0214339D01*
X0305551Y0214179D01*
X0305541Y0214018D01*
X0305527Y0213858D01*
X0305509Y0213698D01*
X0305488Y0213539D01*
X0305462Y0213380D01*
X0305432Y0213222D01*
X0305399Y0213065D01*
X0305361Y0212908D01*
X0305320Y0212753D01*
X0305275Y0212599D01*
X0305226Y0212446D01*
X0305173Y0212294D01*
X0305117Y0212143D01*
X0305056Y0211994D01*
X0304993Y0211846D01*
X0304925Y0211700D01*
X0304854Y0211556D01*
X0304780Y0211414D01*
X0304702Y0211273D01*
X0304620Y0211135D01*
X0304535Y0210998D01*
X0304447Y0210864D01*
X0304355Y0210732D01*
X0304260Y0210602D01*
X0304162Y0210474D01*
X0304061Y0210349D01*
X0303957Y0210227D01*
X0303850Y0210107D01*
X0303740Y0209990D01*
X0303627Y0209875D01*
X0303511Y0209764D01*
X0303392Y0209655D01*
X0303271Y0209550D01*
X0303147Y0209447D01*
X0303021Y0209347D01*
X0302893Y0209251D01*
X0302762Y0209158D01*
X0302628Y0209068D01*
X0302493Y0208981D01*
X0302355Y0208898D01*
X0302216Y0208818D01*
X0302074Y0208742D01*
X0301931Y0208669D01*
X0301786Y0208600D01*
X0301639Y0208534D01*
X0301491Y0208472D01*
X0301341Y0208414D01*
X0301190Y0208359D01*
X0301037Y0208308D01*
X0300883Y0208261D01*
X0300728Y0208218D01*
X0300572Y0208179D01*
X0300416Y0208143D01*
X0300258Y0208112D01*
X0300100Y0208084D01*
X0299941Y0208060D01*
X0299781Y0208040D01*
X0299621Y0208024D01*
X0299461Y0208012D01*
X0299300Y0208004D01*
X0299139Y0208000D01*
X0298979Y0208000D01*
X0298818Y0208004D01*
X0298657Y0208012D01*
X0298497Y0208024D01*
X0298337Y0208040D01*
X0298177Y0208060D01*
X0298018Y0208084D01*
X0297860Y0208112D01*
X0297702Y0208143D01*
X0297546Y0208179D01*
X0297390Y0208218D01*
X0297235Y0208261D01*
X0297081Y0208308D01*
X0296928Y0208359D01*
X0296777Y0208414D01*
X0296627Y0208472D01*
X0296479Y0208534D01*
X0296332Y0208600D01*
X0296187Y0208669D01*
X0296044Y0208742D01*
X0295902Y0208818D01*
X0295763Y0208898D01*
X0295625Y0208981D01*
X0295490Y0209068D01*
X0295356Y0209158D01*
X0295225Y0209251D01*
X0295097Y0209347D01*
X0294971Y0209447D01*
X0294847Y0209550D01*
X0294726Y0209655D01*
X0294607Y0209764D01*
X0294491Y0209875D01*
X0294378Y0209990D01*
X0294268Y0210107D01*
X0294161Y0210227D01*
X0294057Y0210349D01*
X0293956Y0210474D01*
X0293858Y0210602D01*
X0293763Y0210732D01*
X0293671Y0210864D01*
X0293583Y0210998D01*
X0293498Y0211135D01*
X0293416Y0211273D01*
X0293338Y0211414D01*
X0293264Y0211556D01*
X0293193Y0211700D01*
X0293125Y0211846D01*
X0293062Y0211994D01*
X0293001Y0212143D01*
X0292945Y0212294D01*
X0292892Y0212446D01*
X0292843Y0212599D01*
X0292798Y0212753D01*
X0292757Y0212908D01*
X0292719Y0213065D01*
X0292686Y0213222D01*
X0292656Y0213380D01*
X0292630Y0213539D01*
X0292609Y0213698D01*
X0292591Y0213858D01*
X0292577Y0214018D01*
X0292567Y0214179D01*
X0292561Y0214339D01*
X0292559Y0214500D01*
X0292559Y0192500D02*
X0292561Y0192661D01*
X0292567Y0192821D01*
X0292577Y0192982D01*
X0292591Y0193142D01*
X0292609Y0193302D01*
X0292630Y0193461D01*
X0292656Y0193620D01*
X0292686Y0193778D01*
X0292719Y0193935D01*
X0292757Y0194092D01*
X0292798Y0194247D01*
X0292843Y0194401D01*
X0292892Y0194554D01*
X0292945Y0194706D01*
X0293001Y0194857D01*
X0293062Y0195006D01*
X0293125Y0195154D01*
X0293193Y0195300D01*
X0293264Y0195444D01*
X0293338Y0195586D01*
X0293416Y0195727D01*
X0293498Y0195865D01*
X0293583Y0196002D01*
X0293671Y0196136D01*
X0293763Y0196268D01*
X0293858Y0196398D01*
X0293956Y0196526D01*
X0294057Y0196651D01*
X0294161Y0196773D01*
X0294268Y0196893D01*
X0294378Y0197010D01*
X0294491Y0197125D01*
X0294607Y0197236D01*
X0294726Y0197345D01*
X0294847Y0197450D01*
X0294971Y0197553D01*
X0295097Y0197653D01*
X0295225Y0197749D01*
X0295356Y0197842D01*
X0295490Y0197932D01*
X0295625Y0198019D01*
X0295763Y0198102D01*
X0295902Y0198182D01*
X0296044Y0198258D01*
X0296187Y0198331D01*
X0296332Y0198400D01*
X0296479Y0198466D01*
X0296627Y0198528D01*
X0296777Y0198586D01*
X0296928Y0198641D01*
X0297081Y0198692D01*
X0297235Y0198739D01*
X0297390Y0198782D01*
X0297546Y0198821D01*
X0297702Y0198857D01*
X0297860Y0198888D01*
X0298018Y0198916D01*
X0298177Y0198940D01*
X0298337Y0198960D01*
X0298497Y0198976D01*
X0298657Y0198988D01*
X0298818Y0198996D01*
X0298979Y0199000D01*
X0299139Y0199000D01*
X0299300Y0198996D01*
X0299461Y0198988D01*
X0299621Y0198976D01*
X0299781Y0198960D01*
X0299941Y0198940D01*
X0300100Y0198916D01*
X0300258Y0198888D01*
X0300416Y0198857D01*
X0300572Y0198821D01*
X0300728Y0198782D01*
X0300883Y0198739D01*
X0301037Y0198692D01*
X0301190Y0198641D01*
X0301341Y0198586D01*
X0301491Y0198528D01*
X0301639Y0198466D01*
X0301786Y0198400D01*
X0301931Y0198331D01*
X0302074Y0198258D01*
X0302216Y0198182D01*
X0302355Y0198102D01*
X0302493Y0198019D01*
X0302628Y0197932D01*
X0302762Y0197842D01*
X0302893Y0197749D01*
X0303021Y0197653D01*
X0303147Y0197553D01*
X0303271Y0197450D01*
X0303392Y0197345D01*
X0303511Y0197236D01*
X0303627Y0197125D01*
X0303740Y0197010D01*
X0303850Y0196893D01*
X0303957Y0196773D01*
X0304061Y0196651D01*
X0304162Y0196526D01*
X0304260Y0196398D01*
X0304355Y0196268D01*
X0304447Y0196136D01*
X0304535Y0196002D01*
X0304620Y0195865D01*
X0304702Y0195727D01*
X0304780Y0195586D01*
X0304854Y0195444D01*
X0304925Y0195300D01*
X0304993Y0195154D01*
X0305056Y0195006D01*
X0305117Y0194857D01*
X0305173Y0194706D01*
X0305226Y0194554D01*
X0305275Y0194401D01*
X0305320Y0194247D01*
X0305361Y0194092D01*
X0305399Y0193935D01*
X0305432Y0193778D01*
X0305462Y0193620D01*
X0305488Y0193461D01*
X0305509Y0193302D01*
X0305527Y0193142D01*
X0305541Y0192982D01*
X0305551Y0192821D01*
X0305557Y0192661D01*
X0305559Y0192500D01*
X0305557Y0192339D01*
X0305551Y0192179D01*
X0305541Y0192018D01*
X0305527Y0191858D01*
X0305509Y0191698D01*
X0305488Y0191539D01*
X0305462Y0191380D01*
X0305432Y0191222D01*
X0305399Y0191065D01*
X0305361Y0190908D01*
X0305320Y0190753D01*
X0305275Y0190599D01*
X0305226Y0190446D01*
X0305173Y0190294D01*
X0305117Y0190143D01*
X0305056Y0189994D01*
X0304993Y0189846D01*
X0304925Y0189700D01*
X0304854Y0189556D01*
X0304780Y0189414D01*
X0304702Y0189273D01*
X0304620Y0189135D01*
X0304535Y0188998D01*
X0304447Y0188864D01*
X0304355Y0188732D01*
X0304260Y0188602D01*
X0304162Y0188474D01*
X0304061Y0188349D01*
X0303957Y0188227D01*
X0303850Y0188107D01*
X0303740Y0187990D01*
X0303627Y0187875D01*
X0303511Y0187764D01*
X0303392Y0187655D01*
X0303271Y0187550D01*
X0303147Y0187447D01*
X0303021Y0187347D01*
X0302893Y0187251D01*
X0302762Y0187158D01*
X0302628Y0187068D01*
X0302493Y0186981D01*
X0302355Y0186898D01*
X0302216Y0186818D01*
X0302074Y0186742D01*
X0301931Y0186669D01*
X0301786Y0186600D01*
X0301639Y0186534D01*
X0301491Y0186472D01*
X0301341Y0186414D01*
X0301190Y0186359D01*
X0301037Y0186308D01*
X0300883Y0186261D01*
X0300728Y0186218D01*
X0300572Y0186179D01*
X0300416Y0186143D01*
X0300258Y0186112D01*
X0300100Y0186084D01*
X0299941Y0186060D01*
X0299781Y0186040D01*
X0299621Y0186024D01*
X0299461Y0186012D01*
X0299300Y0186004D01*
X0299139Y0186000D01*
X0298979Y0186000D01*
X0298818Y0186004D01*
X0298657Y0186012D01*
X0298497Y0186024D01*
X0298337Y0186040D01*
X0298177Y0186060D01*
X0298018Y0186084D01*
X0297860Y0186112D01*
X0297702Y0186143D01*
X0297546Y0186179D01*
X0297390Y0186218D01*
X0297235Y0186261D01*
X0297081Y0186308D01*
X0296928Y0186359D01*
X0296777Y0186414D01*
X0296627Y0186472D01*
X0296479Y0186534D01*
X0296332Y0186600D01*
X0296187Y0186669D01*
X0296044Y0186742D01*
X0295902Y0186818D01*
X0295763Y0186898D01*
X0295625Y0186981D01*
X0295490Y0187068D01*
X0295356Y0187158D01*
X0295225Y0187251D01*
X0295097Y0187347D01*
X0294971Y0187447D01*
X0294847Y0187550D01*
X0294726Y0187655D01*
X0294607Y0187764D01*
X0294491Y0187875D01*
X0294378Y0187990D01*
X0294268Y0188107D01*
X0294161Y0188227D01*
X0294057Y0188349D01*
X0293956Y0188474D01*
X0293858Y0188602D01*
X0293763Y0188732D01*
X0293671Y0188864D01*
X0293583Y0188998D01*
X0293498Y0189135D01*
X0293416Y0189273D01*
X0293338Y0189414D01*
X0293264Y0189556D01*
X0293193Y0189700D01*
X0293125Y0189846D01*
X0293062Y0189994D01*
X0293001Y0190143D01*
X0292945Y0190294D01*
X0292892Y0190446D01*
X0292843Y0190599D01*
X0292798Y0190753D01*
X0292757Y0190908D01*
X0292719Y0191065D01*
X0292686Y0191222D01*
X0292656Y0191380D01*
X0292630Y0191539D01*
X0292609Y0191698D01*
X0292591Y0191858D01*
X0292577Y0192018D01*
X0292567Y0192179D01*
X0292561Y0192339D01*
X0292559Y0192500D01*
X0212559Y0192500D02*
X0212561Y0192661D01*
X0212567Y0192821D01*
X0212577Y0192982D01*
X0212591Y0193142D01*
X0212609Y0193302D01*
X0212630Y0193461D01*
X0212656Y0193620D01*
X0212686Y0193778D01*
X0212719Y0193935D01*
X0212757Y0194092D01*
X0212798Y0194247D01*
X0212843Y0194401D01*
X0212892Y0194554D01*
X0212945Y0194706D01*
X0213001Y0194857D01*
X0213062Y0195006D01*
X0213125Y0195154D01*
X0213193Y0195300D01*
X0213264Y0195444D01*
X0213338Y0195586D01*
X0213416Y0195727D01*
X0213498Y0195865D01*
X0213583Y0196002D01*
X0213671Y0196136D01*
X0213763Y0196268D01*
X0213858Y0196398D01*
X0213956Y0196526D01*
X0214057Y0196651D01*
X0214161Y0196773D01*
X0214268Y0196893D01*
X0214378Y0197010D01*
X0214491Y0197125D01*
X0214607Y0197236D01*
X0214726Y0197345D01*
X0214847Y0197450D01*
X0214971Y0197553D01*
X0215097Y0197653D01*
X0215225Y0197749D01*
X0215356Y0197842D01*
X0215490Y0197932D01*
X0215625Y0198019D01*
X0215763Y0198102D01*
X0215902Y0198182D01*
X0216044Y0198258D01*
X0216187Y0198331D01*
X0216332Y0198400D01*
X0216479Y0198466D01*
X0216627Y0198528D01*
X0216777Y0198586D01*
X0216928Y0198641D01*
X0217081Y0198692D01*
X0217235Y0198739D01*
X0217390Y0198782D01*
X0217546Y0198821D01*
X0217702Y0198857D01*
X0217860Y0198888D01*
X0218018Y0198916D01*
X0218177Y0198940D01*
X0218337Y0198960D01*
X0218497Y0198976D01*
X0218657Y0198988D01*
X0218818Y0198996D01*
X0218979Y0199000D01*
X0219139Y0199000D01*
X0219300Y0198996D01*
X0219461Y0198988D01*
X0219621Y0198976D01*
X0219781Y0198960D01*
X0219941Y0198940D01*
X0220100Y0198916D01*
X0220258Y0198888D01*
X0220416Y0198857D01*
X0220572Y0198821D01*
X0220728Y0198782D01*
X0220883Y0198739D01*
X0221037Y0198692D01*
X0221190Y0198641D01*
X0221341Y0198586D01*
X0221491Y0198528D01*
X0221639Y0198466D01*
X0221786Y0198400D01*
X0221931Y0198331D01*
X0222074Y0198258D01*
X0222216Y0198182D01*
X0222355Y0198102D01*
X0222493Y0198019D01*
X0222628Y0197932D01*
X0222762Y0197842D01*
X0222893Y0197749D01*
X0223021Y0197653D01*
X0223147Y0197553D01*
X0223271Y0197450D01*
X0223392Y0197345D01*
X0223511Y0197236D01*
X0223627Y0197125D01*
X0223740Y0197010D01*
X0223850Y0196893D01*
X0223957Y0196773D01*
X0224061Y0196651D01*
X0224162Y0196526D01*
X0224260Y0196398D01*
X0224355Y0196268D01*
X0224447Y0196136D01*
X0224535Y0196002D01*
X0224620Y0195865D01*
X0224702Y0195727D01*
X0224780Y0195586D01*
X0224854Y0195444D01*
X0224925Y0195300D01*
X0224993Y0195154D01*
X0225056Y0195006D01*
X0225117Y0194857D01*
X0225173Y0194706D01*
X0225226Y0194554D01*
X0225275Y0194401D01*
X0225320Y0194247D01*
X0225361Y0194092D01*
X0225399Y0193935D01*
X0225432Y0193778D01*
X0225462Y0193620D01*
X0225488Y0193461D01*
X0225509Y0193302D01*
X0225527Y0193142D01*
X0225541Y0192982D01*
X0225551Y0192821D01*
X0225557Y0192661D01*
X0225559Y0192500D01*
X0225557Y0192339D01*
X0225551Y0192179D01*
X0225541Y0192018D01*
X0225527Y0191858D01*
X0225509Y0191698D01*
X0225488Y0191539D01*
X0225462Y0191380D01*
X0225432Y0191222D01*
X0225399Y0191065D01*
X0225361Y0190908D01*
X0225320Y0190753D01*
X0225275Y0190599D01*
X0225226Y0190446D01*
X0225173Y0190294D01*
X0225117Y0190143D01*
X0225056Y0189994D01*
X0224993Y0189846D01*
X0224925Y0189700D01*
X0224854Y0189556D01*
X0224780Y0189414D01*
X0224702Y0189273D01*
X0224620Y0189135D01*
X0224535Y0188998D01*
X0224447Y0188864D01*
X0224355Y0188732D01*
X0224260Y0188602D01*
X0224162Y0188474D01*
X0224061Y0188349D01*
X0223957Y0188227D01*
X0223850Y0188107D01*
X0223740Y0187990D01*
X0223627Y0187875D01*
X0223511Y0187764D01*
X0223392Y0187655D01*
X0223271Y0187550D01*
X0223147Y0187447D01*
X0223021Y0187347D01*
X0222893Y0187251D01*
X0222762Y0187158D01*
X0222628Y0187068D01*
X0222493Y0186981D01*
X0222355Y0186898D01*
X0222216Y0186818D01*
X0222074Y0186742D01*
X0221931Y0186669D01*
X0221786Y0186600D01*
X0221639Y0186534D01*
X0221491Y0186472D01*
X0221341Y0186414D01*
X0221190Y0186359D01*
X0221037Y0186308D01*
X0220883Y0186261D01*
X0220728Y0186218D01*
X0220572Y0186179D01*
X0220416Y0186143D01*
X0220258Y0186112D01*
X0220100Y0186084D01*
X0219941Y0186060D01*
X0219781Y0186040D01*
X0219621Y0186024D01*
X0219461Y0186012D01*
X0219300Y0186004D01*
X0219139Y0186000D01*
X0218979Y0186000D01*
X0218818Y0186004D01*
X0218657Y0186012D01*
X0218497Y0186024D01*
X0218337Y0186040D01*
X0218177Y0186060D01*
X0218018Y0186084D01*
X0217860Y0186112D01*
X0217702Y0186143D01*
X0217546Y0186179D01*
X0217390Y0186218D01*
X0217235Y0186261D01*
X0217081Y0186308D01*
X0216928Y0186359D01*
X0216777Y0186414D01*
X0216627Y0186472D01*
X0216479Y0186534D01*
X0216332Y0186600D01*
X0216187Y0186669D01*
X0216044Y0186742D01*
X0215902Y0186818D01*
X0215763Y0186898D01*
X0215625Y0186981D01*
X0215490Y0187068D01*
X0215356Y0187158D01*
X0215225Y0187251D01*
X0215097Y0187347D01*
X0214971Y0187447D01*
X0214847Y0187550D01*
X0214726Y0187655D01*
X0214607Y0187764D01*
X0214491Y0187875D01*
X0214378Y0187990D01*
X0214268Y0188107D01*
X0214161Y0188227D01*
X0214057Y0188349D01*
X0213956Y0188474D01*
X0213858Y0188602D01*
X0213763Y0188732D01*
X0213671Y0188864D01*
X0213583Y0188998D01*
X0213498Y0189135D01*
X0213416Y0189273D01*
X0213338Y0189414D01*
X0213264Y0189556D01*
X0213193Y0189700D01*
X0213125Y0189846D01*
X0213062Y0189994D01*
X0213001Y0190143D01*
X0212945Y0190294D01*
X0212892Y0190446D01*
X0212843Y0190599D01*
X0212798Y0190753D01*
X0212757Y0190908D01*
X0212719Y0191065D01*
X0212686Y0191222D01*
X0212656Y0191380D01*
X0212630Y0191539D01*
X0212609Y0191698D01*
X0212591Y0191858D01*
X0212577Y0192018D01*
X0212567Y0192179D01*
X0212561Y0192339D01*
X0212559Y0192500D01*
X0190559Y0192500D02*
X0190561Y0192661D01*
X0190567Y0192821D01*
X0190577Y0192982D01*
X0190591Y0193142D01*
X0190609Y0193302D01*
X0190630Y0193461D01*
X0190656Y0193620D01*
X0190686Y0193778D01*
X0190719Y0193935D01*
X0190757Y0194092D01*
X0190798Y0194247D01*
X0190843Y0194401D01*
X0190892Y0194554D01*
X0190945Y0194706D01*
X0191001Y0194857D01*
X0191062Y0195006D01*
X0191125Y0195154D01*
X0191193Y0195300D01*
X0191264Y0195444D01*
X0191338Y0195586D01*
X0191416Y0195727D01*
X0191498Y0195865D01*
X0191583Y0196002D01*
X0191671Y0196136D01*
X0191763Y0196268D01*
X0191858Y0196398D01*
X0191956Y0196526D01*
X0192057Y0196651D01*
X0192161Y0196773D01*
X0192268Y0196893D01*
X0192378Y0197010D01*
X0192491Y0197125D01*
X0192607Y0197236D01*
X0192726Y0197345D01*
X0192847Y0197450D01*
X0192971Y0197553D01*
X0193097Y0197653D01*
X0193225Y0197749D01*
X0193356Y0197842D01*
X0193490Y0197932D01*
X0193625Y0198019D01*
X0193763Y0198102D01*
X0193902Y0198182D01*
X0194044Y0198258D01*
X0194187Y0198331D01*
X0194332Y0198400D01*
X0194479Y0198466D01*
X0194627Y0198528D01*
X0194777Y0198586D01*
X0194928Y0198641D01*
X0195081Y0198692D01*
X0195235Y0198739D01*
X0195390Y0198782D01*
X0195546Y0198821D01*
X0195702Y0198857D01*
X0195860Y0198888D01*
X0196018Y0198916D01*
X0196177Y0198940D01*
X0196337Y0198960D01*
X0196497Y0198976D01*
X0196657Y0198988D01*
X0196818Y0198996D01*
X0196979Y0199000D01*
X0197139Y0199000D01*
X0197300Y0198996D01*
X0197461Y0198988D01*
X0197621Y0198976D01*
X0197781Y0198960D01*
X0197941Y0198940D01*
X0198100Y0198916D01*
X0198258Y0198888D01*
X0198416Y0198857D01*
X0198572Y0198821D01*
X0198728Y0198782D01*
X0198883Y0198739D01*
X0199037Y0198692D01*
X0199190Y0198641D01*
X0199341Y0198586D01*
X0199491Y0198528D01*
X0199639Y0198466D01*
X0199786Y0198400D01*
X0199931Y0198331D01*
X0200074Y0198258D01*
X0200216Y0198182D01*
X0200355Y0198102D01*
X0200493Y0198019D01*
X0200628Y0197932D01*
X0200762Y0197842D01*
X0200893Y0197749D01*
X0201021Y0197653D01*
X0201147Y0197553D01*
X0201271Y0197450D01*
X0201392Y0197345D01*
X0201511Y0197236D01*
X0201627Y0197125D01*
X0201740Y0197010D01*
X0201850Y0196893D01*
X0201957Y0196773D01*
X0202061Y0196651D01*
X0202162Y0196526D01*
X0202260Y0196398D01*
X0202355Y0196268D01*
X0202447Y0196136D01*
X0202535Y0196002D01*
X0202620Y0195865D01*
X0202702Y0195727D01*
X0202780Y0195586D01*
X0202854Y0195444D01*
X0202925Y0195300D01*
X0202993Y0195154D01*
X0203056Y0195006D01*
X0203117Y0194857D01*
X0203173Y0194706D01*
X0203226Y0194554D01*
X0203275Y0194401D01*
X0203320Y0194247D01*
X0203361Y0194092D01*
X0203399Y0193935D01*
X0203432Y0193778D01*
X0203462Y0193620D01*
X0203488Y0193461D01*
X0203509Y0193302D01*
X0203527Y0193142D01*
X0203541Y0192982D01*
X0203551Y0192821D01*
X0203557Y0192661D01*
X0203559Y0192500D01*
X0203557Y0192339D01*
X0203551Y0192179D01*
X0203541Y0192018D01*
X0203527Y0191858D01*
X0203509Y0191698D01*
X0203488Y0191539D01*
X0203462Y0191380D01*
X0203432Y0191222D01*
X0203399Y0191065D01*
X0203361Y0190908D01*
X0203320Y0190753D01*
X0203275Y0190599D01*
X0203226Y0190446D01*
X0203173Y0190294D01*
X0203117Y0190143D01*
X0203056Y0189994D01*
X0202993Y0189846D01*
X0202925Y0189700D01*
X0202854Y0189556D01*
X0202780Y0189414D01*
X0202702Y0189273D01*
X0202620Y0189135D01*
X0202535Y0188998D01*
X0202447Y0188864D01*
X0202355Y0188732D01*
X0202260Y0188602D01*
X0202162Y0188474D01*
X0202061Y0188349D01*
X0201957Y0188227D01*
X0201850Y0188107D01*
X0201740Y0187990D01*
X0201627Y0187875D01*
X0201511Y0187764D01*
X0201392Y0187655D01*
X0201271Y0187550D01*
X0201147Y0187447D01*
X0201021Y0187347D01*
X0200893Y0187251D01*
X0200762Y0187158D01*
X0200628Y0187068D01*
X0200493Y0186981D01*
X0200355Y0186898D01*
X0200216Y0186818D01*
X0200074Y0186742D01*
X0199931Y0186669D01*
X0199786Y0186600D01*
X0199639Y0186534D01*
X0199491Y0186472D01*
X0199341Y0186414D01*
X0199190Y0186359D01*
X0199037Y0186308D01*
X0198883Y0186261D01*
X0198728Y0186218D01*
X0198572Y0186179D01*
X0198416Y0186143D01*
X0198258Y0186112D01*
X0198100Y0186084D01*
X0197941Y0186060D01*
X0197781Y0186040D01*
X0197621Y0186024D01*
X0197461Y0186012D01*
X0197300Y0186004D01*
X0197139Y0186000D01*
X0196979Y0186000D01*
X0196818Y0186004D01*
X0196657Y0186012D01*
X0196497Y0186024D01*
X0196337Y0186040D01*
X0196177Y0186060D01*
X0196018Y0186084D01*
X0195860Y0186112D01*
X0195702Y0186143D01*
X0195546Y0186179D01*
X0195390Y0186218D01*
X0195235Y0186261D01*
X0195081Y0186308D01*
X0194928Y0186359D01*
X0194777Y0186414D01*
X0194627Y0186472D01*
X0194479Y0186534D01*
X0194332Y0186600D01*
X0194187Y0186669D01*
X0194044Y0186742D01*
X0193902Y0186818D01*
X0193763Y0186898D01*
X0193625Y0186981D01*
X0193490Y0187068D01*
X0193356Y0187158D01*
X0193225Y0187251D01*
X0193097Y0187347D01*
X0192971Y0187447D01*
X0192847Y0187550D01*
X0192726Y0187655D01*
X0192607Y0187764D01*
X0192491Y0187875D01*
X0192378Y0187990D01*
X0192268Y0188107D01*
X0192161Y0188227D01*
X0192057Y0188349D01*
X0191956Y0188474D01*
X0191858Y0188602D01*
X0191763Y0188732D01*
X0191671Y0188864D01*
X0191583Y0188998D01*
X0191498Y0189135D01*
X0191416Y0189273D01*
X0191338Y0189414D01*
X0191264Y0189556D01*
X0191193Y0189700D01*
X0191125Y0189846D01*
X0191062Y0189994D01*
X0191001Y0190143D01*
X0190945Y0190294D01*
X0190892Y0190446D01*
X0190843Y0190599D01*
X0190798Y0190753D01*
X0190757Y0190908D01*
X0190719Y0191065D01*
X0190686Y0191222D01*
X0190656Y0191380D01*
X0190630Y0191539D01*
X0190609Y0191698D01*
X0190591Y0191858D01*
X0190577Y0192018D01*
X0190567Y0192179D01*
X0190561Y0192339D01*
X0190559Y0192500D01*
X0190559Y0214500D02*
X0190561Y0214661D01*
X0190567Y0214821D01*
X0190577Y0214982D01*
X0190591Y0215142D01*
X0190609Y0215302D01*
X0190630Y0215461D01*
X0190656Y0215620D01*
X0190686Y0215778D01*
X0190719Y0215935D01*
X0190757Y0216092D01*
X0190798Y0216247D01*
X0190843Y0216401D01*
X0190892Y0216554D01*
X0190945Y0216706D01*
X0191001Y0216857D01*
X0191062Y0217006D01*
X0191125Y0217154D01*
X0191193Y0217300D01*
X0191264Y0217444D01*
X0191338Y0217586D01*
X0191416Y0217727D01*
X0191498Y0217865D01*
X0191583Y0218002D01*
X0191671Y0218136D01*
X0191763Y0218268D01*
X0191858Y0218398D01*
X0191956Y0218526D01*
X0192057Y0218651D01*
X0192161Y0218773D01*
X0192268Y0218893D01*
X0192378Y0219010D01*
X0192491Y0219125D01*
X0192607Y0219236D01*
X0192726Y0219345D01*
X0192847Y0219450D01*
X0192971Y0219553D01*
X0193097Y0219653D01*
X0193225Y0219749D01*
X0193356Y0219842D01*
X0193490Y0219932D01*
X0193625Y0220019D01*
X0193763Y0220102D01*
X0193902Y0220182D01*
X0194044Y0220258D01*
X0194187Y0220331D01*
X0194332Y0220400D01*
X0194479Y0220466D01*
X0194627Y0220528D01*
X0194777Y0220586D01*
X0194928Y0220641D01*
X0195081Y0220692D01*
X0195235Y0220739D01*
X0195390Y0220782D01*
X0195546Y0220821D01*
X0195702Y0220857D01*
X0195860Y0220888D01*
X0196018Y0220916D01*
X0196177Y0220940D01*
X0196337Y0220960D01*
X0196497Y0220976D01*
X0196657Y0220988D01*
X0196818Y0220996D01*
X0196979Y0221000D01*
X0197139Y0221000D01*
X0197300Y0220996D01*
X0197461Y0220988D01*
X0197621Y0220976D01*
X0197781Y0220960D01*
X0197941Y0220940D01*
X0198100Y0220916D01*
X0198258Y0220888D01*
X0198416Y0220857D01*
X0198572Y0220821D01*
X0198728Y0220782D01*
X0198883Y0220739D01*
X0199037Y0220692D01*
X0199190Y0220641D01*
X0199341Y0220586D01*
X0199491Y0220528D01*
X0199639Y0220466D01*
X0199786Y0220400D01*
X0199931Y0220331D01*
X0200074Y0220258D01*
X0200216Y0220182D01*
X0200355Y0220102D01*
X0200493Y0220019D01*
X0200628Y0219932D01*
X0200762Y0219842D01*
X0200893Y0219749D01*
X0201021Y0219653D01*
X0201147Y0219553D01*
X0201271Y0219450D01*
X0201392Y0219345D01*
X0201511Y0219236D01*
X0201627Y0219125D01*
X0201740Y0219010D01*
X0201850Y0218893D01*
X0201957Y0218773D01*
X0202061Y0218651D01*
X0202162Y0218526D01*
X0202260Y0218398D01*
X0202355Y0218268D01*
X0202447Y0218136D01*
X0202535Y0218002D01*
X0202620Y0217865D01*
X0202702Y0217727D01*
X0202780Y0217586D01*
X0202854Y0217444D01*
X0202925Y0217300D01*
X0202993Y0217154D01*
X0203056Y0217006D01*
X0203117Y0216857D01*
X0203173Y0216706D01*
X0203226Y0216554D01*
X0203275Y0216401D01*
X0203320Y0216247D01*
X0203361Y0216092D01*
X0203399Y0215935D01*
X0203432Y0215778D01*
X0203462Y0215620D01*
X0203488Y0215461D01*
X0203509Y0215302D01*
X0203527Y0215142D01*
X0203541Y0214982D01*
X0203551Y0214821D01*
X0203557Y0214661D01*
X0203559Y0214500D01*
X0203557Y0214339D01*
X0203551Y0214179D01*
X0203541Y0214018D01*
X0203527Y0213858D01*
X0203509Y0213698D01*
X0203488Y0213539D01*
X0203462Y0213380D01*
X0203432Y0213222D01*
X0203399Y0213065D01*
X0203361Y0212908D01*
X0203320Y0212753D01*
X0203275Y0212599D01*
X0203226Y0212446D01*
X0203173Y0212294D01*
X0203117Y0212143D01*
X0203056Y0211994D01*
X0202993Y0211846D01*
X0202925Y0211700D01*
X0202854Y0211556D01*
X0202780Y0211414D01*
X0202702Y0211273D01*
X0202620Y0211135D01*
X0202535Y0210998D01*
X0202447Y0210864D01*
X0202355Y0210732D01*
X0202260Y0210602D01*
X0202162Y0210474D01*
X0202061Y0210349D01*
X0201957Y0210227D01*
X0201850Y0210107D01*
X0201740Y0209990D01*
X0201627Y0209875D01*
X0201511Y0209764D01*
X0201392Y0209655D01*
X0201271Y0209550D01*
X0201147Y0209447D01*
X0201021Y0209347D01*
X0200893Y0209251D01*
X0200762Y0209158D01*
X0200628Y0209068D01*
X0200493Y0208981D01*
X0200355Y0208898D01*
X0200216Y0208818D01*
X0200074Y0208742D01*
X0199931Y0208669D01*
X0199786Y0208600D01*
X0199639Y0208534D01*
X0199491Y0208472D01*
X0199341Y0208414D01*
X0199190Y0208359D01*
X0199037Y0208308D01*
X0198883Y0208261D01*
X0198728Y0208218D01*
X0198572Y0208179D01*
X0198416Y0208143D01*
X0198258Y0208112D01*
X0198100Y0208084D01*
X0197941Y0208060D01*
X0197781Y0208040D01*
X0197621Y0208024D01*
X0197461Y0208012D01*
X0197300Y0208004D01*
X0197139Y0208000D01*
X0196979Y0208000D01*
X0196818Y0208004D01*
X0196657Y0208012D01*
X0196497Y0208024D01*
X0196337Y0208040D01*
X0196177Y0208060D01*
X0196018Y0208084D01*
X0195860Y0208112D01*
X0195702Y0208143D01*
X0195546Y0208179D01*
X0195390Y0208218D01*
X0195235Y0208261D01*
X0195081Y0208308D01*
X0194928Y0208359D01*
X0194777Y0208414D01*
X0194627Y0208472D01*
X0194479Y0208534D01*
X0194332Y0208600D01*
X0194187Y0208669D01*
X0194044Y0208742D01*
X0193902Y0208818D01*
X0193763Y0208898D01*
X0193625Y0208981D01*
X0193490Y0209068D01*
X0193356Y0209158D01*
X0193225Y0209251D01*
X0193097Y0209347D01*
X0192971Y0209447D01*
X0192847Y0209550D01*
X0192726Y0209655D01*
X0192607Y0209764D01*
X0192491Y0209875D01*
X0192378Y0209990D01*
X0192268Y0210107D01*
X0192161Y0210227D01*
X0192057Y0210349D01*
X0191956Y0210474D01*
X0191858Y0210602D01*
X0191763Y0210732D01*
X0191671Y0210864D01*
X0191583Y0210998D01*
X0191498Y0211135D01*
X0191416Y0211273D01*
X0191338Y0211414D01*
X0191264Y0211556D01*
X0191193Y0211700D01*
X0191125Y0211846D01*
X0191062Y0211994D01*
X0191001Y0212143D01*
X0190945Y0212294D01*
X0190892Y0212446D01*
X0190843Y0212599D01*
X0190798Y0212753D01*
X0190757Y0212908D01*
X0190719Y0213065D01*
X0190686Y0213222D01*
X0190656Y0213380D01*
X0190630Y0213539D01*
X0190609Y0213698D01*
X0190591Y0213858D01*
X0190577Y0214018D01*
X0190567Y0214179D01*
X0190561Y0214339D01*
X0190559Y0214500D01*
X0212559Y0214500D02*
X0212561Y0214661D01*
X0212567Y0214821D01*
X0212577Y0214982D01*
X0212591Y0215142D01*
X0212609Y0215302D01*
X0212630Y0215461D01*
X0212656Y0215620D01*
X0212686Y0215778D01*
X0212719Y0215935D01*
X0212757Y0216092D01*
X0212798Y0216247D01*
X0212843Y0216401D01*
X0212892Y0216554D01*
X0212945Y0216706D01*
X0213001Y0216857D01*
X0213062Y0217006D01*
X0213125Y0217154D01*
X0213193Y0217300D01*
X0213264Y0217444D01*
X0213338Y0217586D01*
X0213416Y0217727D01*
X0213498Y0217865D01*
X0213583Y0218002D01*
X0213671Y0218136D01*
X0213763Y0218268D01*
X0213858Y0218398D01*
X0213956Y0218526D01*
X0214057Y0218651D01*
X0214161Y0218773D01*
X0214268Y0218893D01*
X0214378Y0219010D01*
X0214491Y0219125D01*
X0214607Y0219236D01*
X0214726Y0219345D01*
X0214847Y0219450D01*
X0214971Y0219553D01*
X0215097Y0219653D01*
X0215225Y0219749D01*
X0215356Y0219842D01*
X0215490Y0219932D01*
X0215625Y0220019D01*
X0215763Y0220102D01*
X0215902Y0220182D01*
X0216044Y0220258D01*
X0216187Y0220331D01*
X0216332Y0220400D01*
X0216479Y0220466D01*
X0216627Y0220528D01*
X0216777Y0220586D01*
X0216928Y0220641D01*
X0217081Y0220692D01*
X0217235Y0220739D01*
X0217390Y0220782D01*
X0217546Y0220821D01*
X0217702Y0220857D01*
X0217860Y0220888D01*
X0218018Y0220916D01*
X0218177Y0220940D01*
X0218337Y0220960D01*
X0218497Y0220976D01*
X0218657Y0220988D01*
X0218818Y0220996D01*
X0218979Y0221000D01*
X0219139Y0221000D01*
X0219300Y0220996D01*
X0219461Y0220988D01*
X0219621Y0220976D01*
X0219781Y0220960D01*
X0219941Y0220940D01*
X0220100Y0220916D01*
X0220258Y0220888D01*
X0220416Y0220857D01*
X0220572Y0220821D01*
X0220728Y0220782D01*
X0220883Y0220739D01*
X0221037Y0220692D01*
X0221190Y0220641D01*
X0221341Y0220586D01*
X0221491Y0220528D01*
X0221639Y0220466D01*
X0221786Y0220400D01*
X0221931Y0220331D01*
X0222074Y0220258D01*
X0222216Y0220182D01*
X0222355Y0220102D01*
X0222493Y0220019D01*
X0222628Y0219932D01*
X0222762Y0219842D01*
X0222893Y0219749D01*
X0223021Y0219653D01*
X0223147Y0219553D01*
X0223271Y0219450D01*
X0223392Y0219345D01*
X0223511Y0219236D01*
X0223627Y0219125D01*
X0223740Y0219010D01*
X0223850Y0218893D01*
X0223957Y0218773D01*
X0224061Y0218651D01*
X0224162Y0218526D01*
X0224260Y0218398D01*
X0224355Y0218268D01*
X0224447Y0218136D01*
X0224535Y0218002D01*
X0224620Y0217865D01*
X0224702Y0217727D01*
X0224780Y0217586D01*
X0224854Y0217444D01*
X0224925Y0217300D01*
X0224993Y0217154D01*
X0225056Y0217006D01*
X0225117Y0216857D01*
X0225173Y0216706D01*
X0225226Y0216554D01*
X0225275Y0216401D01*
X0225320Y0216247D01*
X0225361Y0216092D01*
X0225399Y0215935D01*
X0225432Y0215778D01*
X0225462Y0215620D01*
X0225488Y0215461D01*
X0225509Y0215302D01*
X0225527Y0215142D01*
X0225541Y0214982D01*
X0225551Y0214821D01*
X0225557Y0214661D01*
X0225559Y0214500D01*
X0225557Y0214339D01*
X0225551Y0214179D01*
X0225541Y0214018D01*
X0225527Y0213858D01*
X0225509Y0213698D01*
X0225488Y0213539D01*
X0225462Y0213380D01*
X0225432Y0213222D01*
X0225399Y0213065D01*
X0225361Y0212908D01*
X0225320Y0212753D01*
X0225275Y0212599D01*
X0225226Y0212446D01*
X0225173Y0212294D01*
X0225117Y0212143D01*
X0225056Y0211994D01*
X0224993Y0211846D01*
X0224925Y0211700D01*
X0224854Y0211556D01*
X0224780Y0211414D01*
X0224702Y0211273D01*
X0224620Y0211135D01*
X0224535Y0210998D01*
X0224447Y0210864D01*
X0224355Y0210732D01*
X0224260Y0210602D01*
X0224162Y0210474D01*
X0224061Y0210349D01*
X0223957Y0210227D01*
X0223850Y0210107D01*
X0223740Y0209990D01*
X0223627Y0209875D01*
X0223511Y0209764D01*
X0223392Y0209655D01*
X0223271Y0209550D01*
X0223147Y0209447D01*
X0223021Y0209347D01*
X0222893Y0209251D01*
X0222762Y0209158D01*
X0222628Y0209068D01*
X0222493Y0208981D01*
X0222355Y0208898D01*
X0222216Y0208818D01*
X0222074Y0208742D01*
X0221931Y0208669D01*
X0221786Y0208600D01*
X0221639Y0208534D01*
X0221491Y0208472D01*
X0221341Y0208414D01*
X0221190Y0208359D01*
X0221037Y0208308D01*
X0220883Y0208261D01*
X0220728Y0208218D01*
X0220572Y0208179D01*
X0220416Y0208143D01*
X0220258Y0208112D01*
X0220100Y0208084D01*
X0219941Y0208060D01*
X0219781Y0208040D01*
X0219621Y0208024D01*
X0219461Y0208012D01*
X0219300Y0208004D01*
X0219139Y0208000D01*
X0218979Y0208000D01*
X0218818Y0208004D01*
X0218657Y0208012D01*
X0218497Y0208024D01*
X0218337Y0208040D01*
X0218177Y0208060D01*
X0218018Y0208084D01*
X0217860Y0208112D01*
X0217702Y0208143D01*
X0217546Y0208179D01*
X0217390Y0208218D01*
X0217235Y0208261D01*
X0217081Y0208308D01*
X0216928Y0208359D01*
X0216777Y0208414D01*
X0216627Y0208472D01*
X0216479Y0208534D01*
X0216332Y0208600D01*
X0216187Y0208669D01*
X0216044Y0208742D01*
X0215902Y0208818D01*
X0215763Y0208898D01*
X0215625Y0208981D01*
X0215490Y0209068D01*
X0215356Y0209158D01*
X0215225Y0209251D01*
X0215097Y0209347D01*
X0214971Y0209447D01*
X0214847Y0209550D01*
X0214726Y0209655D01*
X0214607Y0209764D01*
X0214491Y0209875D01*
X0214378Y0209990D01*
X0214268Y0210107D01*
X0214161Y0210227D01*
X0214057Y0210349D01*
X0213956Y0210474D01*
X0213858Y0210602D01*
X0213763Y0210732D01*
X0213671Y0210864D01*
X0213583Y0210998D01*
X0213498Y0211135D01*
X0213416Y0211273D01*
X0213338Y0211414D01*
X0213264Y0211556D01*
X0213193Y0211700D01*
X0213125Y0211846D01*
X0213062Y0211994D01*
X0213001Y0212143D01*
X0212945Y0212294D01*
X0212892Y0212446D01*
X0212843Y0212599D01*
X0212798Y0212753D01*
X0212757Y0212908D01*
X0212719Y0213065D01*
X0212686Y0213222D01*
X0212656Y0213380D01*
X0212630Y0213539D01*
X0212609Y0213698D01*
X0212591Y0213858D01*
X0212577Y0214018D01*
X0212567Y0214179D01*
X0212561Y0214339D01*
X0212559Y0214500D01*
X0110559Y0214500D02*
X0110561Y0214661D01*
X0110567Y0214821D01*
X0110577Y0214982D01*
X0110591Y0215142D01*
X0110609Y0215302D01*
X0110630Y0215461D01*
X0110656Y0215620D01*
X0110686Y0215778D01*
X0110719Y0215935D01*
X0110757Y0216092D01*
X0110798Y0216247D01*
X0110843Y0216401D01*
X0110892Y0216554D01*
X0110945Y0216706D01*
X0111001Y0216857D01*
X0111062Y0217006D01*
X0111125Y0217154D01*
X0111193Y0217300D01*
X0111264Y0217444D01*
X0111338Y0217586D01*
X0111416Y0217727D01*
X0111498Y0217865D01*
X0111583Y0218002D01*
X0111671Y0218136D01*
X0111763Y0218268D01*
X0111858Y0218398D01*
X0111956Y0218526D01*
X0112057Y0218651D01*
X0112161Y0218773D01*
X0112268Y0218893D01*
X0112378Y0219010D01*
X0112491Y0219125D01*
X0112607Y0219236D01*
X0112726Y0219345D01*
X0112847Y0219450D01*
X0112971Y0219553D01*
X0113097Y0219653D01*
X0113225Y0219749D01*
X0113356Y0219842D01*
X0113490Y0219932D01*
X0113625Y0220019D01*
X0113763Y0220102D01*
X0113902Y0220182D01*
X0114044Y0220258D01*
X0114187Y0220331D01*
X0114332Y0220400D01*
X0114479Y0220466D01*
X0114627Y0220528D01*
X0114777Y0220586D01*
X0114928Y0220641D01*
X0115081Y0220692D01*
X0115235Y0220739D01*
X0115390Y0220782D01*
X0115546Y0220821D01*
X0115702Y0220857D01*
X0115860Y0220888D01*
X0116018Y0220916D01*
X0116177Y0220940D01*
X0116337Y0220960D01*
X0116497Y0220976D01*
X0116657Y0220988D01*
X0116818Y0220996D01*
X0116979Y0221000D01*
X0117139Y0221000D01*
X0117300Y0220996D01*
X0117461Y0220988D01*
X0117621Y0220976D01*
X0117781Y0220960D01*
X0117941Y0220940D01*
X0118100Y0220916D01*
X0118258Y0220888D01*
X0118416Y0220857D01*
X0118572Y0220821D01*
X0118728Y0220782D01*
X0118883Y0220739D01*
X0119037Y0220692D01*
X0119190Y0220641D01*
X0119341Y0220586D01*
X0119491Y0220528D01*
X0119639Y0220466D01*
X0119786Y0220400D01*
X0119931Y0220331D01*
X0120074Y0220258D01*
X0120216Y0220182D01*
X0120355Y0220102D01*
X0120493Y0220019D01*
X0120628Y0219932D01*
X0120762Y0219842D01*
X0120893Y0219749D01*
X0121021Y0219653D01*
X0121147Y0219553D01*
X0121271Y0219450D01*
X0121392Y0219345D01*
X0121511Y0219236D01*
X0121627Y0219125D01*
X0121740Y0219010D01*
X0121850Y0218893D01*
X0121957Y0218773D01*
X0122061Y0218651D01*
X0122162Y0218526D01*
X0122260Y0218398D01*
X0122355Y0218268D01*
X0122447Y0218136D01*
X0122535Y0218002D01*
X0122620Y0217865D01*
X0122702Y0217727D01*
X0122780Y0217586D01*
X0122854Y0217444D01*
X0122925Y0217300D01*
X0122993Y0217154D01*
X0123056Y0217006D01*
X0123117Y0216857D01*
X0123173Y0216706D01*
X0123226Y0216554D01*
X0123275Y0216401D01*
X0123320Y0216247D01*
X0123361Y0216092D01*
X0123399Y0215935D01*
X0123432Y0215778D01*
X0123462Y0215620D01*
X0123488Y0215461D01*
X0123509Y0215302D01*
X0123527Y0215142D01*
X0123541Y0214982D01*
X0123551Y0214821D01*
X0123557Y0214661D01*
X0123559Y0214500D01*
X0123557Y0214339D01*
X0123551Y0214179D01*
X0123541Y0214018D01*
X0123527Y0213858D01*
X0123509Y0213698D01*
X0123488Y0213539D01*
X0123462Y0213380D01*
X0123432Y0213222D01*
X0123399Y0213065D01*
X0123361Y0212908D01*
X0123320Y0212753D01*
X0123275Y0212599D01*
X0123226Y0212446D01*
X0123173Y0212294D01*
X0123117Y0212143D01*
X0123056Y0211994D01*
X0122993Y0211846D01*
X0122925Y0211700D01*
X0122854Y0211556D01*
X0122780Y0211414D01*
X0122702Y0211273D01*
X0122620Y0211135D01*
X0122535Y0210998D01*
X0122447Y0210864D01*
X0122355Y0210732D01*
X0122260Y0210602D01*
X0122162Y0210474D01*
X0122061Y0210349D01*
X0121957Y0210227D01*
X0121850Y0210107D01*
X0121740Y0209990D01*
X0121627Y0209875D01*
X0121511Y0209764D01*
X0121392Y0209655D01*
X0121271Y0209550D01*
X0121147Y0209447D01*
X0121021Y0209347D01*
X0120893Y0209251D01*
X0120762Y0209158D01*
X0120628Y0209068D01*
X0120493Y0208981D01*
X0120355Y0208898D01*
X0120216Y0208818D01*
X0120074Y0208742D01*
X0119931Y0208669D01*
X0119786Y0208600D01*
X0119639Y0208534D01*
X0119491Y0208472D01*
X0119341Y0208414D01*
X0119190Y0208359D01*
X0119037Y0208308D01*
X0118883Y0208261D01*
X0118728Y0208218D01*
X0118572Y0208179D01*
X0118416Y0208143D01*
X0118258Y0208112D01*
X0118100Y0208084D01*
X0117941Y0208060D01*
X0117781Y0208040D01*
X0117621Y0208024D01*
X0117461Y0208012D01*
X0117300Y0208004D01*
X0117139Y0208000D01*
X0116979Y0208000D01*
X0116818Y0208004D01*
X0116657Y0208012D01*
X0116497Y0208024D01*
X0116337Y0208040D01*
X0116177Y0208060D01*
X0116018Y0208084D01*
X0115860Y0208112D01*
X0115702Y0208143D01*
X0115546Y0208179D01*
X0115390Y0208218D01*
X0115235Y0208261D01*
X0115081Y0208308D01*
X0114928Y0208359D01*
X0114777Y0208414D01*
X0114627Y0208472D01*
X0114479Y0208534D01*
X0114332Y0208600D01*
X0114187Y0208669D01*
X0114044Y0208742D01*
X0113902Y0208818D01*
X0113763Y0208898D01*
X0113625Y0208981D01*
X0113490Y0209068D01*
X0113356Y0209158D01*
X0113225Y0209251D01*
X0113097Y0209347D01*
X0112971Y0209447D01*
X0112847Y0209550D01*
X0112726Y0209655D01*
X0112607Y0209764D01*
X0112491Y0209875D01*
X0112378Y0209990D01*
X0112268Y0210107D01*
X0112161Y0210227D01*
X0112057Y0210349D01*
X0111956Y0210474D01*
X0111858Y0210602D01*
X0111763Y0210732D01*
X0111671Y0210864D01*
X0111583Y0210998D01*
X0111498Y0211135D01*
X0111416Y0211273D01*
X0111338Y0211414D01*
X0111264Y0211556D01*
X0111193Y0211700D01*
X0111125Y0211846D01*
X0111062Y0211994D01*
X0111001Y0212143D01*
X0110945Y0212294D01*
X0110892Y0212446D01*
X0110843Y0212599D01*
X0110798Y0212753D01*
X0110757Y0212908D01*
X0110719Y0213065D01*
X0110686Y0213222D01*
X0110656Y0213380D01*
X0110630Y0213539D01*
X0110609Y0213698D01*
X0110591Y0213858D01*
X0110577Y0214018D01*
X0110567Y0214179D01*
X0110561Y0214339D01*
X0110559Y0214500D01*
X0088559Y0214500D02*
X0088561Y0214661D01*
X0088567Y0214821D01*
X0088577Y0214982D01*
X0088591Y0215142D01*
X0088609Y0215302D01*
X0088630Y0215461D01*
X0088656Y0215620D01*
X0088686Y0215778D01*
X0088719Y0215935D01*
X0088757Y0216092D01*
X0088798Y0216247D01*
X0088843Y0216401D01*
X0088892Y0216554D01*
X0088945Y0216706D01*
X0089001Y0216857D01*
X0089062Y0217006D01*
X0089125Y0217154D01*
X0089193Y0217300D01*
X0089264Y0217444D01*
X0089338Y0217586D01*
X0089416Y0217727D01*
X0089498Y0217865D01*
X0089583Y0218002D01*
X0089671Y0218136D01*
X0089763Y0218268D01*
X0089858Y0218398D01*
X0089956Y0218526D01*
X0090057Y0218651D01*
X0090161Y0218773D01*
X0090268Y0218893D01*
X0090378Y0219010D01*
X0090491Y0219125D01*
X0090607Y0219236D01*
X0090726Y0219345D01*
X0090847Y0219450D01*
X0090971Y0219553D01*
X0091097Y0219653D01*
X0091225Y0219749D01*
X0091356Y0219842D01*
X0091490Y0219932D01*
X0091625Y0220019D01*
X0091763Y0220102D01*
X0091902Y0220182D01*
X0092044Y0220258D01*
X0092187Y0220331D01*
X0092332Y0220400D01*
X0092479Y0220466D01*
X0092627Y0220528D01*
X0092777Y0220586D01*
X0092928Y0220641D01*
X0093081Y0220692D01*
X0093235Y0220739D01*
X0093390Y0220782D01*
X0093546Y0220821D01*
X0093702Y0220857D01*
X0093860Y0220888D01*
X0094018Y0220916D01*
X0094177Y0220940D01*
X0094337Y0220960D01*
X0094497Y0220976D01*
X0094657Y0220988D01*
X0094818Y0220996D01*
X0094979Y0221000D01*
X0095139Y0221000D01*
X0095300Y0220996D01*
X0095461Y0220988D01*
X0095621Y0220976D01*
X0095781Y0220960D01*
X0095941Y0220940D01*
X0096100Y0220916D01*
X0096258Y0220888D01*
X0096416Y0220857D01*
X0096572Y0220821D01*
X0096728Y0220782D01*
X0096883Y0220739D01*
X0097037Y0220692D01*
X0097190Y0220641D01*
X0097341Y0220586D01*
X0097491Y0220528D01*
X0097639Y0220466D01*
X0097786Y0220400D01*
X0097931Y0220331D01*
X0098074Y0220258D01*
X0098216Y0220182D01*
X0098355Y0220102D01*
X0098493Y0220019D01*
X0098628Y0219932D01*
X0098762Y0219842D01*
X0098893Y0219749D01*
X0099021Y0219653D01*
X0099147Y0219553D01*
X0099271Y0219450D01*
X0099392Y0219345D01*
X0099511Y0219236D01*
X0099627Y0219125D01*
X0099740Y0219010D01*
X0099850Y0218893D01*
X0099957Y0218773D01*
X0100061Y0218651D01*
X0100162Y0218526D01*
X0100260Y0218398D01*
X0100355Y0218268D01*
X0100447Y0218136D01*
X0100535Y0218002D01*
X0100620Y0217865D01*
X0100702Y0217727D01*
X0100780Y0217586D01*
X0100854Y0217444D01*
X0100925Y0217300D01*
X0100993Y0217154D01*
X0101056Y0217006D01*
X0101117Y0216857D01*
X0101173Y0216706D01*
X0101226Y0216554D01*
X0101275Y0216401D01*
X0101320Y0216247D01*
X0101361Y0216092D01*
X0101399Y0215935D01*
X0101432Y0215778D01*
X0101462Y0215620D01*
X0101488Y0215461D01*
X0101509Y0215302D01*
X0101527Y0215142D01*
X0101541Y0214982D01*
X0101551Y0214821D01*
X0101557Y0214661D01*
X0101559Y0214500D01*
X0101557Y0214339D01*
X0101551Y0214179D01*
X0101541Y0214018D01*
X0101527Y0213858D01*
X0101509Y0213698D01*
X0101488Y0213539D01*
X0101462Y0213380D01*
X0101432Y0213222D01*
X0101399Y0213065D01*
X0101361Y0212908D01*
X0101320Y0212753D01*
X0101275Y0212599D01*
X0101226Y0212446D01*
X0101173Y0212294D01*
X0101117Y0212143D01*
X0101056Y0211994D01*
X0100993Y0211846D01*
X0100925Y0211700D01*
X0100854Y0211556D01*
X0100780Y0211414D01*
X0100702Y0211273D01*
X0100620Y0211135D01*
X0100535Y0210998D01*
X0100447Y0210864D01*
X0100355Y0210732D01*
X0100260Y0210602D01*
X0100162Y0210474D01*
X0100061Y0210349D01*
X0099957Y0210227D01*
X0099850Y0210107D01*
X0099740Y0209990D01*
X0099627Y0209875D01*
X0099511Y0209764D01*
X0099392Y0209655D01*
X0099271Y0209550D01*
X0099147Y0209447D01*
X0099021Y0209347D01*
X0098893Y0209251D01*
X0098762Y0209158D01*
X0098628Y0209068D01*
X0098493Y0208981D01*
X0098355Y0208898D01*
X0098216Y0208818D01*
X0098074Y0208742D01*
X0097931Y0208669D01*
X0097786Y0208600D01*
X0097639Y0208534D01*
X0097491Y0208472D01*
X0097341Y0208414D01*
X0097190Y0208359D01*
X0097037Y0208308D01*
X0096883Y0208261D01*
X0096728Y0208218D01*
X0096572Y0208179D01*
X0096416Y0208143D01*
X0096258Y0208112D01*
X0096100Y0208084D01*
X0095941Y0208060D01*
X0095781Y0208040D01*
X0095621Y0208024D01*
X0095461Y0208012D01*
X0095300Y0208004D01*
X0095139Y0208000D01*
X0094979Y0208000D01*
X0094818Y0208004D01*
X0094657Y0208012D01*
X0094497Y0208024D01*
X0094337Y0208040D01*
X0094177Y0208060D01*
X0094018Y0208084D01*
X0093860Y0208112D01*
X0093702Y0208143D01*
X0093546Y0208179D01*
X0093390Y0208218D01*
X0093235Y0208261D01*
X0093081Y0208308D01*
X0092928Y0208359D01*
X0092777Y0208414D01*
X0092627Y0208472D01*
X0092479Y0208534D01*
X0092332Y0208600D01*
X0092187Y0208669D01*
X0092044Y0208742D01*
X0091902Y0208818D01*
X0091763Y0208898D01*
X0091625Y0208981D01*
X0091490Y0209068D01*
X0091356Y0209158D01*
X0091225Y0209251D01*
X0091097Y0209347D01*
X0090971Y0209447D01*
X0090847Y0209550D01*
X0090726Y0209655D01*
X0090607Y0209764D01*
X0090491Y0209875D01*
X0090378Y0209990D01*
X0090268Y0210107D01*
X0090161Y0210227D01*
X0090057Y0210349D01*
X0089956Y0210474D01*
X0089858Y0210602D01*
X0089763Y0210732D01*
X0089671Y0210864D01*
X0089583Y0210998D01*
X0089498Y0211135D01*
X0089416Y0211273D01*
X0089338Y0211414D01*
X0089264Y0211556D01*
X0089193Y0211700D01*
X0089125Y0211846D01*
X0089062Y0211994D01*
X0089001Y0212143D01*
X0088945Y0212294D01*
X0088892Y0212446D01*
X0088843Y0212599D01*
X0088798Y0212753D01*
X0088757Y0212908D01*
X0088719Y0213065D01*
X0088686Y0213222D01*
X0088656Y0213380D01*
X0088630Y0213539D01*
X0088609Y0213698D01*
X0088591Y0213858D01*
X0088577Y0214018D01*
X0088567Y0214179D01*
X0088561Y0214339D01*
X0088559Y0214500D01*
X0088559Y0192500D02*
X0088561Y0192661D01*
X0088567Y0192821D01*
X0088577Y0192982D01*
X0088591Y0193142D01*
X0088609Y0193302D01*
X0088630Y0193461D01*
X0088656Y0193620D01*
X0088686Y0193778D01*
X0088719Y0193935D01*
X0088757Y0194092D01*
X0088798Y0194247D01*
X0088843Y0194401D01*
X0088892Y0194554D01*
X0088945Y0194706D01*
X0089001Y0194857D01*
X0089062Y0195006D01*
X0089125Y0195154D01*
X0089193Y0195300D01*
X0089264Y0195444D01*
X0089338Y0195586D01*
X0089416Y0195727D01*
X0089498Y0195865D01*
X0089583Y0196002D01*
X0089671Y0196136D01*
X0089763Y0196268D01*
X0089858Y0196398D01*
X0089956Y0196526D01*
X0090057Y0196651D01*
X0090161Y0196773D01*
X0090268Y0196893D01*
X0090378Y0197010D01*
X0090491Y0197125D01*
X0090607Y0197236D01*
X0090726Y0197345D01*
X0090847Y0197450D01*
X0090971Y0197553D01*
X0091097Y0197653D01*
X0091225Y0197749D01*
X0091356Y0197842D01*
X0091490Y0197932D01*
X0091625Y0198019D01*
X0091763Y0198102D01*
X0091902Y0198182D01*
X0092044Y0198258D01*
X0092187Y0198331D01*
X0092332Y0198400D01*
X0092479Y0198466D01*
X0092627Y0198528D01*
X0092777Y0198586D01*
X0092928Y0198641D01*
X0093081Y0198692D01*
X0093235Y0198739D01*
X0093390Y0198782D01*
X0093546Y0198821D01*
X0093702Y0198857D01*
X0093860Y0198888D01*
X0094018Y0198916D01*
X0094177Y0198940D01*
X0094337Y0198960D01*
X0094497Y0198976D01*
X0094657Y0198988D01*
X0094818Y0198996D01*
X0094979Y0199000D01*
X0095139Y0199000D01*
X0095300Y0198996D01*
X0095461Y0198988D01*
X0095621Y0198976D01*
X0095781Y0198960D01*
X0095941Y0198940D01*
X0096100Y0198916D01*
X0096258Y0198888D01*
X0096416Y0198857D01*
X0096572Y0198821D01*
X0096728Y0198782D01*
X0096883Y0198739D01*
X0097037Y0198692D01*
X0097190Y0198641D01*
X0097341Y0198586D01*
X0097491Y0198528D01*
X0097639Y0198466D01*
X0097786Y0198400D01*
X0097931Y0198331D01*
X0098074Y0198258D01*
X0098216Y0198182D01*
X0098355Y0198102D01*
X0098493Y0198019D01*
X0098628Y0197932D01*
X0098762Y0197842D01*
X0098893Y0197749D01*
X0099021Y0197653D01*
X0099147Y0197553D01*
X0099271Y0197450D01*
X0099392Y0197345D01*
X0099511Y0197236D01*
X0099627Y0197125D01*
X0099740Y0197010D01*
X0099850Y0196893D01*
X0099957Y0196773D01*
X0100061Y0196651D01*
X0100162Y0196526D01*
X0100260Y0196398D01*
X0100355Y0196268D01*
X0100447Y0196136D01*
X0100535Y0196002D01*
X0100620Y0195865D01*
X0100702Y0195727D01*
X0100780Y0195586D01*
X0100854Y0195444D01*
X0100925Y0195300D01*
X0100993Y0195154D01*
X0101056Y0195006D01*
X0101117Y0194857D01*
X0101173Y0194706D01*
X0101226Y0194554D01*
X0101275Y0194401D01*
X0101320Y0194247D01*
X0101361Y0194092D01*
X0101399Y0193935D01*
X0101432Y0193778D01*
X0101462Y0193620D01*
X0101488Y0193461D01*
X0101509Y0193302D01*
X0101527Y0193142D01*
X0101541Y0192982D01*
X0101551Y0192821D01*
X0101557Y0192661D01*
X0101559Y0192500D01*
X0101557Y0192339D01*
X0101551Y0192179D01*
X0101541Y0192018D01*
X0101527Y0191858D01*
X0101509Y0191698D01*
X0101488Y0191539D01*
X0101462Y0191380D01*
X0101432Y0191222D01*
X0101399Y0191065D01*
X0101361Y0190908D01*
X0101320Y0190753D01*
X0101275Y0190599D01*
X0101226Y0190446D01*
X0101173Y0190294D01*
X0101117Y0190143D01*
X0101056Y0189994D01*
X0100993Y0189846D01*
X0100925Y0189700D01*
X0100854Y0189556D01*
X0100780Y0189414D01*
X0100702Y0189273D01*
X0100620Y0189135D01*
X0100535Y0188998D01*
X0100447Y0188864D01*
X0100355Y0188732D01*
X0100260Y0188602D01*
X0100162Y0188474D01*
X0100061Y0188349D01*
X0099957Y0188227D01*
X0099850Y0188107D01*
X0099740Y0187990D01*
X0099627Y0187875D01*
X0099511Y0187764D01*
X0099392Y0187655D01*
X0099271Y0187550D01*
X0099147Y0187447D01*
X0099021Y0187347D01*
X0098893Y0187251D01*
X0098762Y0187158D01*
X0098628Y0187068D01*
X0098493Y0186981D01*
X0098355Y0186898D01*
X0098216Y0186818D01*
X0098074Y0186742D01*
X0097931Y0186669D01*
X0097786Y0186600D01*
X0097639Y0186534D01*
X0097491Y0186472D01*
X0097341Y0186414D01*
X0097190Y0186359D01*
X0097037Y0186308D01*
X0096883Y0186261D01*
X0096728Y0186218D01*
X0096572Y0186179D01*
X0096416Y0186143D01*
X0096258Y0186112D01*
X0096100Y0186084D01*
X0095941Y0186060D01*
X0095781Y0186040D01*
X0095621Y0186024D01*
X0095461Y0186012D01*
X0095300Y0186004D01*
X0095139Y0186000D01*
X0094979Y0186000D01*
X0094818Y0186004D01*
X0094657Y0186012D01*
X0094497Y0186024D01*
X0094337Y0186040D01*
X0094177Y0186060D01*
X0094018Y0186084D01*
X0093860Y0186112D01*
X0093702Y0186143D01*
X0093546Y0186179D01*
X0093390Y0186218D01*
X0093235Y0186261D01*
X0093081Y0186308D01*
X0092928Y0186359D01*
X0092777Y0186414D01*
X0092627Y0186472D01*
X0092479Y0186534D01*
X0092332Y0186600D01*
X0092187Y0186669D01*
X0092044Y0186742D01*
X0091902Y0186818D01*
X0091763Y0186898D01*
X0091625Y0186981D01*
X0091490Y0187068D01*
X0091356Y0187158D01*
X0091225Y0187251D01*
X0091097Y0187347D01*
X0090971Y0187447D01*
X0090847Y0187550D01*
X0090726Y0187655D01*
X0090607Y0187764D01*
X0090491Y0187875D01*
X0090378Y0187990D01*
X0090268Y0188107D01*
X0090161Y0188227D01*
X0090057Y0188349D01*
X0089956Y0188474D01*
X0089858Y0188602D01*
X0089763Y0188732D01*
X0089671Y0188864D01*
X0089583Y0188998D01*
X0089498Y0189135D01*
X0089416Y0189273D01*
X0089338Y0189414D01*
X0089264Y0189556D01*
X0089193Y0189700D01*
X0089125Y0189846D01*
X0089062Y0189994D01*
X0089001Y0190143D01*
X0088945Y0190294D01*
X0088892Y0190446D01*
X0088843Y0190599D01*
X0088798Y0190753D01*
X0088757Y0190908D01*
X0088719Y0191065D01*
X0088686Y0191222D01*
X0088656Y0191380D01*
X0088630Y0191539D01*
X0088609Y0191698D01*
X0088591Y0191858D01*
X0088577Y0192018D01*
X0088567Y0192179D01*
X0088561Y0192339D01*
X0088559Y0192500D01*
X0110559Y0192500D02*
X0110561Y0192661D01*
X0110567Y0192821D01*
X0110577Y0192982D01*
X0110591Y0193142D01*
X0110609Y0193302D01*
X0110630Y0193461D01*
X0110656Y0193620D01*
X0110686Y0193778D01*
X0110719Y0193935D01*
X0110757Y0194092D01*
X0110798Y0194247D01*
X0110843Y0194401D01*
X0110892Y0194554D01*
X0110945Y0194706D01*
X0111001Y0194857D01*
X0111062Y0195006D01*
X0111125Y0195154D01*
X0111193Y0195300D01*
X0111264Y0195444D01*
X0111338Y0195586D01*
X0111416Y0195727D01*
X0111498Y0195865D01*
X0111583Y0196002D01*
X0111671Y0196136D01*
X0111763Y0196268D01*
X0111858Y0196398D01*
X0111956Y0196526D01*
X0112057Y0196651D01*
X0112161Y0196773D01*
X0112268Y0196893D01*
X0112378Y0197010D01*
X0112491Y0197125D01*
X0112607Y0197236D01*
X0112726Y0197345D01*
X0112847Y0197450D01*
X0112971Y0197553D01*
X0113097Y0197653D01*
X0113225Y0197749D01*
X0113356Y0197842D01*
X0113490Y0197932D01*
X0113625Y0198019D01*
X0113763Y0198102D01*
X0113902Y0198182D01*
X0114044Y0198258D01*
X0114187Y0198331D01*
X0114332Y0198400D01*
X0114479Y0198466D01*
X0114627Y0198528D01*
X0114777Y0198586D01*
X0114928Y0198641D01*
X0115081Y0198692D01*
X0115235Y0198739D01*
X0115390Y0198782D01*
X0115546Y0198821D01*
X0115702Y0198857D01*
X0115860Y0198888D01*
X0116018Y0198916D01*
X0116177Y0198940D01*
X0116337Y0198960D01*
X0116497Y0198976D01*
X0116657Y0198988D01*
X0116818Y0198996D01*
X0116979Y0199000D01*
X0117139Y0199000D01*
X0117300Y0198996D01*
X0117461Y0198988D01*
X0117621Y0198976D01*
X0117781Y0198960D01*
X0117941Y0198940D01*
X0118100Y0198916D01*
X0118258Y0198888D01*
X0118416Y0198857D01*
X0118572Y0198821D01*
X0118728Y0198782D01*
X0118883Y0198739D01*
X0119037Y0198692D01*
X0119190Y0198641D01*
X0119341Y0198586D01*
X0119491Y0198528D01*
X0119639Y0198466D01*
X0119786Y0198400D01*
X0119931Y0198331D01*
X0120074Y0198258D01*
X0120216Y0198182D01*
X0120355Y0198102D01*
X0120493Y0198019D01*
X0120628Y0197932D01*
X0120762Y0197842D01*
X0120893Y0197749D01*
X0121021Y0197653D01*
X0121147Y0197553D01*
X0121271Y0197450D01*
X0121392Y0197345D01*
X0121511Y0197236D01*
X0121627Y0197125D01*
X0121740Y0197010D01*
X0121850Y0196893D01*
X0121957Y0196773D01*
X0122061Y0196651D01*
X0122162Y0196526D01*
X0122260Y0196398D01*
X0122355Y0196268D01*
X0122447Y0196136D01*
X0122535Y0196002D01*
X0122620Y0195865D01*
X0122702Y0195727D01*
X0122780Y0195586D01*
X0122854Y0195444D01*
X0122925Y0195300D01*
X0122993Y0195154D01*
X0123056Y0195006D01*
X0123117Y0194857D01*
X0123173Y0194706D01*
X0123226Y0194554D01*
X0123275Y0194401D01*
X0123320Y0194247D01*
X0123361Y0194092D01*
X0123399Y0193935D01*
X0123432Y0193778D01*
X0123462Y0193620D01*
X0123488Y0193461D01*
X0123509Y0193302D01*
X0123527Y0193142D01*
X0123541Y0192982D01*
X0123551Y0192821D01*
X0123557Y0192661D01*
X0123559Y0192500D01*
X0123557Y0192339D01*
X0123551Y0192179D01*
X0123541Y0192018D01*
X0123527Y0191858D01*
X0123509Y0191698D01*
X0123488Y0191539D01*
X0123462Y0191380D01*
X0123432Y0191222D01*
X0123399Y0191065D01*
X0123361Y0190908D01*
X0123320Y0190753D01*
X0123275Y0190599D01*
X0123226Y0190446D01*
X0123173Y0190294D01*
X0123117Y0190143D01*
X0123056Y0189994D01*
X0122993Y0189846D01*
X0122925Y0189700D01*
X0122854Y0189556D01*
X0122780Y0189414D01*
X0122702Y0189273D01*
X0122620Y0189135D01*
X0122535Y0188998D01*
X0122447Y0188864D01*
X0122355Y0188732D01*
X0122260Y0188602D01*
X0122162Y0188474D01*
X0122061Y0188349D01*
X0121957Y0188227D01*
X0121850Y0188107D01*
X0121740Y0187990D01*
X0121627Y0187875D01*
X0121511Y0187764D01*
X0121392Y0187655D01*
X0121271Y0187550D01*
X0121147Y0187447D01*
X0121021Y0187347D01*
X0120893Y0187251D01*
X0120762Y0187158D01*
X0120628Y0187068D01*
X0120493Y0186981D01*
X0120355Y0186898D01*
X0120216Y0186818D01*
X0120074Y0186742D01*
X0119931Y0186669D01*
X0119786Y0186600D01*
X0119639Y0186534D01*
X0119491Y0186472D01*
X0119341Y0186414D01*
X0119190Y0186359D01*
X0119037Y0186308D01*
X0118883Y0186261D01*
X0118728Y0186218D01*
X0118572Y0186179D01*
X0118416Y0186143D01*
X0118258Y0186112D01*
X0118100Y0186084D01*
X0117941Y0186060D01*
X0117781Y0186040D01*
X0117621Y0186024D01*
X0117461Y0186012D01*
X0117300Y0186004D01*
X0117139Y0186000D01*
X0116979Y0186000D01*
X0116818Y0186004D01*
X0116657Y0186012D01*
X0116497Y0186024D01*
X0116337Y0186040D01*
X0116177Y0186060D01*
X0116018Y0186084D01*
X0115860Y0186112D01*
X0115702Y0186143D01*
X0115546Y0186179D01*
X0115390Y0186218D01*
X0115235Y0186261D01*
X0115081Y0186308D01*
X0114928Y0186359D01*
X0114777Y0186414D01*
X0114627Y0186472D01*
X0114479Y0186534D01*
X0114332Y0186600D01*
X0114187Y0186669D01*
X0114044Y0186742D01*
X0113902Y0186818D01*
X0113763Y0186898D01*
X0113625Y0186981D01*
X0113490Y0187068D01*
X0113356Y0187158D01*
X0113225Y0187251D01*
X0113097Y0187347D01*
X0112971Y0187447D01*
X0112847Y0187550D01*
X0112726Y0187655D01*
X0112607Y0187764D01*
X0112491Y0187875D01*
X0112378Y0187990D01*
X0112268Y0188107D01*
X0112161Y0188227D01*
X0112057Y0188349D01*
X0111956Y0188474D01*
X0111858Y0188602D01*
X0111763Y0188732D01*
X0111671Y0188864D01*
X0111583Y0188998D01*
X0111498Y0189135D01*
X0111416Y0189273D01*
X0111338Y0189414D01*
X0111264Y0189556D01*
X0111193Y0189700D01*
X0111125Y0189846D01*
X0111062Y0189994D01*
X0111001Y0190143D01*
X0110945Y0190294D01*
X0110892Y0190446D01*
X0110843Y0190599D01*
X0110798Y0190753D01*
X0110757Y0190908D01*
X0110719Y0191065D01*
X0110686Y0191222D01*
X0110656Y0191380D01*
X0110630Y0191539D01*
X0110609Y0191698D01*
X0110591Y0191858D01*
X0110577Y0192018D01*
X0110567Y0192179D01*
X0110561Y0192339D01*
X0110559Y0192500D01*
X0008559Y0192500D02*
X0008561Y0192661D01*
X0008567Y0192821D01*
X0008577Y0192982D01*
X0008591Y0193142D01*
X0008609Y0193302D01*
X0008630Y0193461D01*
X0008656Y0193620D01*
X0008686Y0193778D01*
X0008719Y0193935D01*
X0008757Y0194092D01*
X0008798Y0194247D01*
X0008843Y0194401D01*
X0008892Y0194554D01*
X0008945Y0194706D01*
X0009001Y0194857D01*
X0009062Y0195006D01*
X0009125Y0195154D01*
X0009193Y0195300D01*
X0009264Y0195444D01*
X0009338Y0195586D01*
X0009416Y0195727D01*
X0009498Y0195865D01*
X0009583Y0196002D01*
X0009671Y0196136D01*
X0009763Y0196268D01*
X0009858Y0196398D01*
X0009956Y0196526D01*
X0010057Y0196651D01*
X0010161Y0196773D01*
X0010268Y0196893D01*
X0010378Y0197010D01*
X0010491Y0197125D01*
X0010607Y0197236D01*
X0010726Y0197345D01*
X0010847Y0197450D01*
X0010971Y0197553D01*
X0011097Y0197653D01*
X0011225Y0197749D01*
X0011356Y0197842D01*
X0011490Y0197932D01*
X0011625Y0198019D01*
X0011763Y0198102D01*
X0011902Y0198182D01*
X0012044Y0198258D01*
X0012187Y0198331D01*
X0012332Y0198400D01*
X0012479Y0198466D01*
X0012627Y0198528D01*
X0012777Y0198586D01*
X0012928Y0198641D01*
X0013081Y0198692D01*
X0013235Y0198739D01*
X0013390Y0198782D01*
X0013546Y0198821D01*
X0013702Y0198857D01*
X0013860Y0198888D01*
X0014018Y0198916D01*
X0014177Y0198940D01*
X0014337Y0198960D01*
X0014497Y0198976D01*
X0014657Y0198988D01*
X0014818Y0198996D01*
X0014979Y0199000D01*
X0015139Y0199000D01*
X0015300Y0198996D01*
X0015461Y0198988D01*
X0015621Y0198976D01*
X0015781Y0198960D01*
X0015941Y0198940D01*
X0016100Y0198916D01*
X0016258Y0198888D01*
X0016416Y0198857D01*
X0016572Y0198821D01*
X0016728Y0198782D01*
X0016883Y0198739D01*
X0017037Y0198692D01*
X0017190Y0198641D01*
X0017341Y0198586D01*
X0017491Y0198528D01*
X0017639Y0198466D01*
X0017786Y0198400D01*
X0017931Y0198331D01*
X0018074Y0198258D01*
X0018216Y0198182D01*
X0018355Y0198102D01*
X0018493Y0198019D01*
X0018628Y0197932D01*
X0018762Y0197842D01*
X0018893Y0197749D01*
X0019021Y0197653D01*
X0019147Y0197553D01*
X0019271Y0197450D01*
X0019392Y0197345D01*
X0019511Y0197236D01*
X0019627Y0197125D01*
X0019740Y0197010D01*
X0019850Y0196893D01*
X0019957Y0196773D01*
X0020061Y0196651D01*
X0020162Y0196526D01*
X0020260Y0196398D01*
X0020355Y0196268D01*
X0020447Y0196136D01*
X0020535Y0196002D01*
X0020620Y0195865D01*
X0020702Y0195727D01*
X0020780Y0195586D01*
X0020854Y0195444D01*
X0020925Y0195300D01*
X0020993Y0195154D01*
X0021056Y0195006D01*
X0021117Y0194857D01*
X0021173Y0194706D01*
X0021226Y0194554D01*
X0021275Y0194401D01*
X0021320Y0194247D01*
X0021361Y0194092D01*
X0021399Y0193935D01*
X0021432Y0193778D01*
X0021462Y0193620D01*
X0021488Y0193461D01*
X0021509Y0193302D01*
X0021527Y0193142D01*
X0021541Y0192982D01*
X0021551Y0192821D01*
X0021557Y0192661D01*
X0021559Y0192500D01*
X0021557Y0192339D01*
X0021551Y0192179D01*
X0021541Y0192018D01*
X0021527Y0191858D01*
X0021509Y0191698D01*
X0021488Y0191539D01*
X0021462Y0191380D01*
X0021432Y0191222D01*
X0021399Y0191065D01*
X0021361Y0190908D01*
X0021320Y0190753D01*
X0021275Y0190599D01*
X0021226Y0190446D01*
X0021173Y0190294D01*
X0021117Y0190143D01*
X0021056Y0189994D01*
X0020993Y0189846D01*
X0020925Y0189700D01*
X0020854Y0189556D01*
X0020780Y0189414D01*
X0020702Y0189273D01*
X0020620Y0189135D01*
X0020535Y0188998D01*
X0020447Y0188864D01*
X0020355Y0188732D01*
X0020260Y0188602D01*
X0020162Y0188474D01*
X0020061Y0188349D01*
X0019957Y0188227D01*
X0019850Y0188107D01*
X0019740Y0187990D01*
X0019627Y0187875D01*
X0019511Y0187764D01*
X0019392Y0187655D01*
X0019271Y0187550D01*
X0019147Y0187447D01*
X0019021Y0187347D01*
X0018893Y0187251D01*
X0018762Y0187158D01*
X0018628Y0187068D01*
X0018493Y0186981D01*
X0018355Y0186898D01*
X0018216Y0186818D01*
X0018074Y0186742D01*
X0017931Y0186669D01*
X0017786Y0186600D01*
X0017639Y0186534D01*
X0017491Y0186472D01*
X0017341Y0186414D01*
X0017190Y0186359D01*
X0017037Y0186308D01*
X0016883Y0186261D01*
X0016728Y0186218D01*
X0016572Y0186179D01*
X0016416Y0186143D01*
X0016258Y0186112D01*
X0016100Y0186084D01*
X0015941Y0186060D01*
X0015781Y0186040D01*
X0015621Y0186024D01*
X0015461Y0186012D01*
X0015300Y0186004D01*
X0015139Y0186000D01*
X0014979Y0186000D01*
X0014818Y0186004D01*
X0014657Y0186012D01*
X0014497Y0186024D01*
X0014337Y0186040D01*
X0014177Y0186060D01*
X0014018Y0186084D01*
X0013860Y0186112D01*
X0013702Y0186143D01*
X0013546Y0186179D01*
X0013390Y0186218D01*
X0013235Y0186261D01*
X0013081Y0186308D01*
X0012928Y0186359D01*
X0012777Y0186414D01*
X0012627Y0186472D01*
X0012479Y0186534D01*
X0012332Y0186600D01*
X0012187Y0186669D01*
X0012044Y0186742D01*
X0011902Y0186818D01*
X0011763Y0186898D01*
X0011625Y0186981D01*
X0011490Y0187068D01*
X0011356Y0187158D01*
X0011225Y0187251D01*
X0011097Y0187347D01*
X0010971Y0187447D01*
X0010847Y0187550D01*
X0010726Y0187655D01*
X0010607Y0187764D01*
X0010491Y0187875D01*
X0010378Y0187990D01*
X0010268Y0188107D01*
X0010161Y0188227D01*
X0010057Y0188349D01*
X0009956Y0188474D01*
X0009858Y0188602D01*
X0009763Y0188732D01*
X0009671Y0188864D01*
X0009583Y0188998D01*
X0009498Y0189135D01*
X0009416Y0189273D01*
X0009338Y0189414D01*
X0009264Y0189556D01*
X0009193Y0189700D01*
X0009125Y0189846D01*
X0009062Y0189994D01*
X0009001Y0190143D01*
X0008945Y0190294D01*
X0008892Y0190446D01*
X0008843Y0190599D01*
X0008798Y0190753D01*
X0008757Y0190908D01*
X0008719Y0191065D01*
X0008686Y0191222D01*
X0008656Y0191380D01*
X0008630Y0191539D01*
X0008609Y0191698D01*
X0008591Y0191858D01*
X0008577Y0192018D01*
X0008567Y0192179D01*
X0008561Y0192339D01*
X0008559Y0192500D01*
X0008559Y0214500D02*
X0008561Y0214661D01*
X0008567Y0214821D01*
X0008577Y0214982D01*
X0008591Y0215142D01*
X0008609Y0215302D01*
X0008630Y0215461D01*
X0008656Y0215620D01*
X0008686Y0215778D01*
X0008719Y0215935D01*
X0008757Y0216092D01*
X0008798Y0216247D01*
X0008843Y0216401D01*
X0008892Y0216554D01*
X0008945Y0216706D01*
X0009001Y0216857D01*
X0009062Y0217006D01*
X0009125Y0217154D01*
X0009193Y0217300D01*
X0009264Y0217444D01*
X0009338Y0217586D01*
X0009416Y0217727D01*
X0009498Y0217865D01*
X0009583Y0218002D01*
X0009671Y0218136D01*
X0009763Y0218268D01*
X0009858Y0218398D01*
X0009956Y0218526D01*
X0010057Y0218651D01*
X0010161Y0218773D01*
X0010268Y0218893D01*
X0010378Y0219010D01*
X0010491Y0219125D01*
X0010607Y0219236D01*
X0010726Y0219345D01*
X0010847Y0219450D01*
X0010971Y0219553D01*
X0011097Y0219653D01*
X0011225Y0219749D01*
X0011356Y0219842D01*
X0011490Y0219932D01*
X0011625Y0220019D01*
X0011763Y0220102D01*
X0011902Y0220182D01*
X0012044Y0220258D01*
X0012187Y0220331D01*
X0012332Y0220400D01*
X0012479Y0220466D01*
X0012627Y0220528D01*
X0012777Y0220586D01*
X0012928Y0220641D01*
X0013081Y0220692D01*
X0013235Y0220739D01*
X0013390Y0220782D01*
X0013546Y0220821D01*
X0013702Y0220857D01*
X0013860Y0220888D01*
X0014018Y0220916D01*
X0014177Y0220940D01*
X0014337Y0220960D01*
X0014497Y0220976D01*
X0014657Y0220988D01*
X0014818Y0220996D01*
X0014979Y0221000D01*
X0015139Y0221000D01*
X0015300Y0220996D01*
X0015461Y0220988D01*
X0015621Y0220976D01*
X0015781Y0220960D01*
X0015941Y0220940D01*
X0016100Y0220916D01*
X0016258Y0220888D01*
X0016416Y0220857D01*
X0016572Y0220821D01*
X0016728Y0220782D01*
X0016883Y0220739D01*
X0017037Y0220692D01*
X0017190Y0220641D01*
X0017341Y0220586D01*
X0017491Y0220528D01*
X0017639Y0220466D01*
X0017786Y0220400D01*
X0017931Y0220331D01*
X0018074Y0220258D01*
X0018216Y0220182D01*
X0018355Y0220102D01*
X0018493Y0220019D01*
X0018628Y0219932D01*
X0018762Y0219842D01*
X0018893Y0219749D01*
X0019021Y0219653D01*
X0019147Y0219553D01*
X0019271Y0219450D01*
X0019392Y0219345D01*
X0019511Y0219236D01*
X0019627Y0219125D01*
X0019740Y0219010D01*
X0019850Y0218893D01*
X0019957Y0218773D01*
X0020061Y0218651D01*
X0020162Y0218526D01*
X0020260Y0218398D01*
X0020355Y0218268D01*
X0020447Y0218136D01*
X0020535Y0218002D01*
X0020620Y0217865D01*
X0020702Y0217727D01*
X0020780Y0217586D01*
X0020854Y0217444D01*
X0020925Y0217300D01*
X0020993Y0217154D01*
X0021056Y0217006D01*
X0021117Y0216857D01*
X0021173Y0216706D01*
X0021226Y0216554D01*
X0021275Y0216401D01*
X0021320Y0216247D01*
X0021361Y0216092D01*
X0021399Y0215935D01*
X0021432Y0215778D01*
X0021462Y0215620D01*
X0021488Y0215461D01*
X0021509Y0215302D01*
X0021527Y0215142D01*
X0021541Y0214982D01*
X0021551Y0214821D01*
X0021557Y0214661D01*
X0021559Y0214500D01*
X0021557Y0214339D01*
X0021551Y0214179D01*
X0021541Y0214018D01*
X0021527Y0213858D01*
X0021509Y0213698D01*
X0021488Y0213539D01*
X0021462Y0213380D01*
X0021432Y0213222D01*
X0021399Y0213065D01*
X0021361Y0212908D01*
X0021320Y0212753D01*
X0021275Y0212599D01*
X0021226Y0212446D01*
X0021173Y0212294D01*
X0021117Y0212143D01*
X0021056Y0211994D01*
X0020993Y0211846D01*
X0020925Y0211700D01*
X0020854Y0211556D01*
X0020780Y0211414D01*
X0020702Y0211273D01*
X0020620Y0211135D01*
X0020535Y0210998D01*
X0020447Y0210864D01*
X0020355Y0210732D01*
X0020260Y0210602D01*
X0020162Y0210474D01*
X0020061Y0210349D01*
X0019957Y0210227D01*
X0019850Y0210107D01*
X0019740Y0209990D01*
X0019627Y0209875D01*
X0019511Y0209764D01*
X0019392Y0209655D01*
X0019271Y0209550D01*
X0019147Y0209447D01*
X0019021Y0209347D01*
X0018893Y0209251D01*
X0018762Y0209158D01*
X0018628Y0209068D01*
X0018493Y0208981D01*
X0018355Y0208898D01*
X0018216Y0208818D01*
X0018074Y0208742D01*
X0017931Y0208669D01*
X0017786Y0208600D01*
X0017639Y0208534D01*
X0017491Y0208472D01*
X0017341Y0208414D01*
X0017190Y0208359D01*
X0017037Y0208308D01*
X0016883Y0208261D01*
X0016728Y0208218D01*
X0016572Y0208179D01*
X0016416Y0208143D01*
X0016258Y0208112D01*
X0016100Y0208084D01*
X0015941Y0208060D01*
X0015781Y0208040D01*
X0015621Y0208024D01*
X0015461Y0208012D01*
X0015300Y0208004D01*
X0015139Y0208000D01*
X0014979Y0208000D01*
X0014818Y0208004D01*
X0014657Y0208012D01*
X0014497Y0208024D01*
X0014337Y0208040D01*
X0014177Y0208060D01*
X0014018Y0208084D01*
X0013860Y0208112D01*
X0013702Y0208143D01*
X0013546Y0208179D01*
X0013390Y0208218D01*
X0013235Y0208261D01*
X0013081Y0208308D01*
X0012928Y0208359D01*
X0012777Y0208414D01*
X0012627Y0208472D01*
X0012479Y0208534D01*
X0012332Y0208600D01*
X0012187Y0208669D01*
X0012044Y0208742D01*
X0011902Y0208818D01*
X0011763Y0208898D01*
X0011625Y0208981D01*
X0011490Y0209068D01*
X0011356Y0209158D01*
X0011225Y0209251D01*
X0011097Y0209347D01*
X0010971Y0209447D01*
X0010847Y0209550D01*
X0010726Y0209655D01*
X0010607Y0209764D01*
X0010491Y0209875D01*
X0010378Y0209990D01*
X0010268Y0210107D01*
X0010161Y0210227D01*
X0010057Y0210349D01*
X0009956Y0210474D01*
X0009858Y0210602D01*
X0009763Y0210732D01*
X0009671Y0210864D01*
X0009583Y0210998D01*
X0009498Y0211135D01*
X0009416Y0211273D01*
X0009338Y0211414D01*
X0009264Y0211556D01*
X0009193Y0211700D01*
X0009125Y0211846D01*
X0009062Y0211994D01*
X0009001Y0212143D01*
X0008945Y0212294D01*
X0008892Y0212446D01*
X0008843Y0212599D01*
X0008798Y0212753D01*
X0008757Y0212908D01*
X0008719Y0213065D01*
X0008686Y0213222D01*
X0008656Y0213380D01*
X0008630Y0213539D01*
X0008609Y0213698D01*
X0008591Y0213858D01*
X0008577Y0214018D01*
X0008567Y0214179D01*
X0008561Y0214339D01*
X0008559Y0214500D01*
X0008559Y0394500D02*
X0008561Y0394661D01*
X0008567Y0394821D01*
X0008577Y0394982D01*
X0008591Y0395142D01*
X0008609Y0395302D01*
X0008630Y0395461D01*
X0008656Y0395620D01*
X0008686Y0395778D01*
X0008719Y0395935D01*
X0008757Y0396092D01*
X0008798Y0396247D01*
X0008843Y0396401D01*
X0008892Y0396554D01*
X0008945Y0396706D01*
X0009001Y0396857D01*
X0009062Y0397006D01*
X0009125Y0397154D01*
X0009193Y0397300D01*
X0009264Y0397444D01*
X0009338Y0397586D01*
X0009416Y0397727D01*
X0009498Y0397865D01*
X0009583Y0398002D01*
X0009671Y0398136D01*
X0009763Y0398268D01*
X0009858Y0398398D01*
X0009956Y0398526D01*
X0010057Y0398651D01*
X0010161Y0398773D01*
X0010268Y0398893D01*
X0010378Y0399010D01*
X0010491Y0399125D01*
X0010607Y0399236D01*
X0010726Y0399345D01*
X0010847Y0399450D01*
X0010971Y0399553D01*
X0011097Y0399653D01*
X0011225Y0399749D01*
X0011356Y0399842D01*
X0011490Y0399932D01*
X0011625Y0400019D01*
X0011763Y0400102D01*
X0011902Y0400182D01*
X0012044Y0400258D01*
X0012187Y0400331D01*
X0012332Y0400400D01*
X0012479Y0400466D01*
X0012627Y0400528D01*
X0012777Y0400586D01*
X0012928Y0400641D01*
X0013081Y0400692D01*
X0013235Y0400739D01*
X0013390Y0400782D01*
X0013546Y0400821D01*
X0013702Y0400857D01*
X0013860Y0400888D01*
X0014018Y0400916D01*
X0014177Y0400940D01*
X0014337Y0400960D01*
X0014497Y0400976D01*
X0014657Y0400988D01*
X0014818Y0400996D01*
X0014979Y0401000D01*
X0015139Y0401000D01*
X0015300Y0400996D01*
X0015461Y0400988D01*
X0015621Y0400976D01*
X0015781Y0400960D01*
X0015941Y0400940D01*
X0016100Y0400916D01*
X0016258Y0400888D01*
X0016416Y0400857D01*
X0016572Y0400821D01*
X0016728Y0400782D01*
X0016883Y0400739D01*
X0017037Y0400692D01*
X0017190Y0400641D01*
X0017341Y0400586D01*
X0017491Y0400528D01*
X0017639Y0400466D01*
X0017786Y0400400D01*
X0017931Y0400331D01*
X0018074Y0400258D01*
X0018216Y0400182D01*
X0018355Y0400102D01*
X0018493Y0400019D01*
X0018628Y0399932D01*
X0018762Y0399842D01*
X0018893Y0399749D01*
X0019021Y0399653D01*
X0019147Y0399553D01*
X0019271Y0399450D01*
X0019392Y0399345D01*
X0019511Y0399236D01*
X0019627Y0399125D01*
X0019740Y0399010D01*
X0019850Y0398893D01*
X0019957Y0398773D01*
X0020061Y0398651D01*
X0020162Y0398526D01*
X0020260Y0398398D01*
X0020355Y0398268D01*
X0020447Y0398136D01*
X0020535Y0398002D01*
X0020620Y0397865D01*
X0020702Y0397727D01*
X0020780Y0397586D01*
X0020854Y0397444D01*
X0020925Y0397300D01*
X0020993Y0397154D01*
X0021056Y0397006D01*
X0021117Y0396857D01*
X0021173Y0396706D01*
X0021226Y0396554D01*
X0021275Y0396401D01*
X0021320Y0396247D01*
X0021361Y0396092D01*
X0021399Y0395935D01*
X0021432Y0395778D01*
X0021462Y0395620D01*
X0021488Y0395461D01*
X0021509Y0395302D01*
X0021527Y0395142D01*
X0021541Y0394982D01*
X0021551Y0394821D01*
X0021557Y0394661D01*
X0021559Y0394500D01*
X0021557Y0394339D01*
X0021551Y0394179D01*
X0021541Y0394018D01*
X0021527Y0393858D01*
X0021509Y0393698D01*
X0021488Y0393539D01*
X0021462Y0393380D01*
X0021432Y0393222D01*
X0021399Y0393065D01*
X0021361Y0392908D01*
X0021320Y0392753D01*
X0021275Y0392599D01*
X0021226Y0392446D01*
X0021173Y0392294D01*
X0021117Y0392143D01*
X0021056Y0391994D01*
X0020993Y0391846D01*
X0020925Y0391700D01*
X0020854Y0391556D01*
X0020780Y0391414D01*
X0020702Y0391273D01*
X0020620Y0391135D01*
X0020535Y0390998D01*
X0020447Y0390864D01*
X0020355Y0390732D01*
X0020260Y0390602D01*
X0020162Y0390474D01*
X0020061Y0390349D01*
X0019957Y0390227D01*
X0019850Y0390107D01*
X0019740Y0389990D01*
X0019627Y0389875D01*
X0019511Y0389764D01*
X0019392Y0389655D01*
X0019271Y0389550D01*
X0019147Y0389447D01*
X0019021Y0389347D01*
X0018893Y0389251D01*
X0018762Y0389158D01*
X0018628Y0389068D01*
X0018493Y0388981D01*
X0018355Y0388898D01*
X0018216Y0388818D01*
X0018074Y0388742D01*
X0017931Y0388669D01*
X0017786Y0388600D01*
X0017639Y0388534D01*
X0017491Y0388472D01*
X0017341Y0388414D01*
X0017190Y0388359D01*
X0017037Y0388308D01*
X0016883Y0388261D01*
X0016728Y0388218D01*
X0016572Y0388179D01*
X0016416Y0388143D01*
X0016258Y0388112D01*
X0016100Y0388084D01*
X0015941Y0388060D01*
X0015781Y0388040D01*
X0015621Y0388024D01*
X0015461Y0388012D01*
X0015300Y0388004D01*
X0015139Y0388000D01*
X0014979Y0388000D01*
X0014818Y0388004D01*
X0014657Y0388012D01*
X0014497Y0388024D01*
X0014337Y0388040D01*
X0014177Y0388060D01*
X0014018Y0388084D01*
X0013860Y0388112D01*
X0013702Y0388143D01*
X0013546Y0388179D01*
X0013390Y0388218D01*
X0013235Y0388261D01*
X0013081Y0388308D01*
X0012928Y0388359D01*
X0012777Y0388414D01*
X0012627Y0388472D01*
X0012479Y0388534D01*
X0012332Y0388600D01*
X0012187Y0388669D01*
X0012044Y0388742D01*
X0011902Y0388818D01*
X0011763Y0388898D01*
X0011625Y0388981D01*
X0011490Y0389068D01*
X0011356Y0389158D01*
X0011225Y0389251D01*
X0011097Y0389347D01*
X0010971Y0389447D01*
X0010847Y0389550D01*
X0010726Y0389655D01*
X0010607Y0389764D01*
X0010491Y0389875D01*
X0010378Y0389990D01*
X0010268Y0390107D01*
X0010161Y0390227D01*
X0010057Y0390349D01*
X0009956Y0390474D01*
X0009858Y0390602D01*
X0009763Y0390732D01*
X0009671Y0390864D01*
X0009583Y0390998D01*
X0009498Y0391135D01*
X0009416Y0391273D01*
X0009338Y0391414D01*
X0009264Y0391556D01*
X0009193Y0391700D01*
X0009125Y0391846D01*
X0009062Y0391994D01*
X0009001Y0392143D01*
X0008945Y0392294D01*
X0008892Y0392446D01*
X0008843Y0392599D01*
X0008798Y0392753D01*
X0008757Y0392908D01*
X0008719Y0393065D01*
X0008686Y0393222D01*
X0008656Y0393380D01*
X0008630Y0393539D01*
X0008609Y0393698D01*
X0008591Y0393858D01*
X0008577Y0394018D01*
X0008567Y0394179D01*
X0008561Y0394339D01*
X0008559Y0394500D01*
X0008559Y0012500D02*
X0008561Y0012661D01*
X0008567Y0012821D01*
X0008577Y0012982D01*
X0008591Y0013142D01*
X0008609Y0013302D01*
X0008630Y0013461D01*
X0008656Y0013620D01*
X0008686Y0013778D01*
X0008719Y0013935D01*
X0008757Y0014092D01*
X0008798Y0014247D01*
X0008843Y0014401D01*
X0008892Y0014554D01*
X0008945Y0014706D01*
X0009001Y0014857D01*
X0009062Y0015006D01*
X0009125Y0015154D01*
X0009193Y0015300D01*
X0009264Y0015444D01*
X0009338Y0015586D01*
X0009416Y0015727D01*
X0009498Y0015865D01*
X0009583Y0016002D01*
X0009671Y0016136D01*
X0009763Y0016268D01*
X0009858Y0016398D01*
X0009956Y0016526D01*
X0010057Y0016651D01*
X0010161Y0016773D01*
X0010268Y0016893D01*
X0010378Y0017010D01*
X0010491Y0017125D01*
X0010607Y0017236D01*
X0010726Y0017345D01*
X0010847Y0017450D01*
X0010971Y0017553D01*
X0011097Y0017653D01*
X0011225Y0017749D01*
X0011356Y0017842D01*
X0011490Y0017932D01*
X0011625Y0018019D01*
X0011763Y0018102D01*
X0011902Y0018182D01*
X0012044Y0018258D01*
X0012187Y0018331D01*
X0012332Y0018400D01*
X0012479Y0018466D01*
X0012627Y0018528D01*
X0012777Y0018586D01*
X0012928Y0018641D01*
X0013081Y0018692D01*
X0013235Y0018739D01*
X0013390Y0018782D01*
X0013546Y0018821D01*
X0013702Y0018857D01*
X0013860Y0018888D01*
X0014018Y0018916D01*
X0014177Y0018940D01*
X0014337Y0018960D01*
X0014497Y0018976D01*
X0014657Y0018988D01*
X0014818Y0018996D01*
X0014979Y0019000D01*
X0015139Y0019000D01*
X0015300Y0018996D01*
X0015461Y0018988D01*
X0015621Y0018976D01*
X0015781Y0018960D01*
X0015941Y0018940D01*
X0016100Y0018916D01*
X0016258Y0018888D01*
X0016416Y0018857D01*
X0016572Y0018821D01*
X0016728Y0018782D01*
X0016883Y0018739D01*
X0017037Y0018692D01*
X0017190Y0018641D01*
X0017341Y0018586D01*
X0017491Y0018528D01*
X0017639Y0018466D01*
X0017786Y0018400D01*
X0017931Y0018331D01*
X0018074Y0018258D01*
X0018216Y0018182D01*
X0018355Y0018102D01*
X0018493Y0018019D01*
X0018628Y0017932D01*
X0018762Y0017842D01*
X0018893Y0017749D01*
X0019021Y0017653D01*
X0019147Y0017553D01*
X0019271Y0017450D01*
X0019392Y0017345D01*
X0019511Y0017236D01*
X0019627Y0017125D01*
X0019740Y0017010D01*
X0019850Y0016893D01*
X0019957Y0016773D01*
X0020061Y0016651D01*
X0020162Y0016526D01*
X0020260Y0016398D01*
X0020355Y0016268D01*
X0020447Y0016136D01*
X0020535Y0016002D01*
X0020620Y0015865D01*
X0020702Y0015727D01*
X0020780Y0015586D01*
X0020854Y0015444D01*
X0020925Y0015300D01*
X0020993Y0015154D01*
X0021056Y0015006D01*
X0021117Y0014857D01*
X0021173Y0014706D01*
X0021226Y0014554D01*
X0021275Y0014401D01*
X0021320Y0014247D01*
X0021361Y0014092D01*
X0021399Y0013935D01*
X0021432Y0013778D01*
X0021462Y0013620D01*
X0021488Y0013461D01*
X0021509Y0013302D01*
X0021527Y0013142D01*
X0021541Y0012982D01*
X0021551Y0012821D01*
X0021557Y0012661D01*
X0021559Y0012500D01*
X0021557Y0012339D01*
X0021551Y0012179D01*
X0021541Y0012018D01*
X0021527Y0011858D01*
X0021509Y0011698D01*
X0021488Y0011539D01*
X0021462Y0011380D01*
X0021432Y0011222D01*
X0021399Y0011065D01*
X0021361Y0010908D01*
X0021320Y0010753D01*
X0021275Y0010599D01*
X0021226Y0010446D01*
X0021173Y0010294D01*
X0021117Y0010143D01*
X0021056Y0009994D01*
X0020993Y0009846D01*
X0020925Y0009700D01*
X0020854Y0009556D01*
X0020780Y0009414D01*
X0020702Y0009273D01*
X0020620Y0009135D01*
X0020535Y0008998D01*
X0020447Y0008864D01*
X0020355Y0008732D01*
X0020260Y0008602D01*
X0020162Y0008474D01*
X0020061Y0008349D01*
X0019957Y0008227D01*
X0019850Y0008107D01*
X0019740Y0007990D01*
X0019627Y0007875D01*
X0019511Y0007764D01*
X0019392Y0007655D01*
X0019271Y0007550D01*
X0019147Y0007447D01*
X0019021Y0007347D01*
X0018893Y0007251D01*
X0018762Y0007158D01*
X0018628Y0007068D01*
X0018493Y0006981D01*
X0018355Y0006898D01*
X0018216Y0006818D01*
X0018074Y0006742D01*
X0017931Y0006669D01*
X0017786Y0006600D01*
X0017639Y0006534D01*
X0017491Y0006472D01*
X0017341Y0006414D01*
X0017190Y0006359D01*
X0017037Y0006308D01*
X0016883Y0006261D01*
X0016728Y0006218D01*
X0016572Y0006179D01*
X0016416Y0006143D01*
X0016258Y0006112D01*
X0016100Y0006084D01*
X0015941Y0006060D01*
X0015781Y0006040D01*
X0015621Y0006024D01*
X0015461Y0006012D01*
X0015300Y0006004D01*
X0015139Y0006000D01*
X0014979Y0006000D01*
X0014818Y0006004D01*
X0014657Y0006012D01*
X0014497Y0006024D01*
X0014337Y0006040D01*
X0014177Y0006060D01*
X0014018Y0006084D01*
X0013860Y0006112D01*
X0013702Y0006143D01*
X0013546Y0006179D01*
X0013390Y0006218D01*
X0013235Y0006261D01*
X0013081Y0006308D01*
X0012928Y0006359D01*
X0012777Y0006414D01*
X0012627Y0006472D01*
X0012479Y0006534D01*
X0012332Y0006600D01*
X0012187Y0006669D01*
X0012044Y0006742D01*
X0011902Y0006818D01*
X0011763Y0006898D01*
X0011625Y0006981D01*
X0011490Y0007068D01*
X0011356Y0007158D01*
X0011225Y0007251D01*
X0011097Y0007347D01*
X0010971Y0007447D01*
X0010847Y0007550D01*
X0010726Y0007655D01*
X0010607Y0007764D01*
X0010491Y0007875D01*
X0010378Y0007990D01*
X0010268Y0008107D01*
X0010161Y0008227D01*
X0010057Y0008349D01*
X0009956Y0008474D01*
X0009858Y0008602D01*
X0009763Y0008732D01*
X0009671Y0008864D01*
X0009583Y0008998D01*
X0009498Y0009135D01*
X0009416Y0009273D01*
X0009338Y0009414D01*
X0009264Y0009556D01*
X0009193Y0009700D01*
X0009125Y0009846D01*
X0009062Y0009994D01*
X0009001Y0010143D01*
X0008945Y0010294D01*
X0008892Y0010446D01*
X0008843Y0010599D01*
X0008798Y0010753D01*
X0008757Y0010908D01*
X0008719Y0011065D01*
X0008686Y0011222D01*
X0008656Y0011380D01*
X0008630Y0011539D01*
X0008609Y0011698D01*
X0008591Y0011858D01*
X0008577Y0012018D01*
X0008567Y0012179D01*
X0008561Y0012339D01*
X0008559Y0012500D01*
X0088559Y0012500D02*
X0088561Y0012661D01*
X0088567Y0012821D01*
X0088577Y0012982D01*
X0088591Y0013142D01*
X0088609Y0013302D01*
X0088630Y0013461D01*
X0088656Y0013620D01*
X0088686Y0013778D01*
X0088719Y0013935D01*
X0088757Y0014092D01*
X0088798Y0014247D01*
X0088843Y0014401D01*
X0088892Y0014554D01*
X0088945Y0014706D01*
X0089001Y0014857D01*
X0089062Y0015006D01*
X0089125Y0015154D01*
X0089193Y0015300D01*
X0089264Y0015444D01*
X0089338Y0015586D01*
X0089416Y0015727D01*
X0089498Y0015865D01*
X0089583Y0016002D01*
X0089671Y0016136D01*
X0089763Y0016268D01*
X0089858Y0016398D01*
X0089956Y0016526D01*
X0090057Y0016651D01*
X0090161Y0016773D01*
X0090268Y0016893D01*
X0090378Y0017010D01*
X0090491Y0017125D01*
X0090607Y0017236D01*
X0090726Y0017345D01*
X0090847Y0017450D01*
X0090971Y0017553D01*
X0091097Y0017653D01*
X0091225Y0017749D01*
X0091356Y0017842D01*
X0091490Y0017932D01*
X0091625Y0018019D01*
X0091763Y0018102D01*
X0091902Y0018182D01*
X0092044Y0018258D01*
X0092187Y0018331D01*
X0092332Y0018400D01*
X0092479Y0018466D01*
X0092627Y0018528D01*
X0092777Y0018586D01*
X0092928Y0018641D01*
X0093081Y0018692D01*
X0093235Y0018739D01*
X0093390Y0018782D01*
X0093546Y0018821D01*
X0093702Y0018857D01*
X0093860Y0018888D01*
X0094018Y0018916D01*
X0094177Y0018940D01*
X0094337Y0018960D01*
X0094497Y0018976D01*
X0094657Y0018988D01*
X0094818Y0018996D01*
X0094979Y0019000D01*
X0095139Y0019000D01*
X0095300Y0018996D01*
X0095461Y0018988D01*
X0095621Y0018976D01*
X0095781Y0018960D01*
X0095941Y0018940D01*
X0096100Y0018916D01*
X0096258Y0018888D01*
X0096416Y0018857D01*
X0096572Y0018821D01*
X0096728Y0018782D01*
X0096883Y0018739D01*
X0097037Y0018692D01*
X0097190Y0018641D01*
X0097341Y0018586D01*
X0097491Y0018528D01*
X0097639Y0018466D01*
X0097786Y0018400D01*
X0097931Y0018331D01*
X0098074Y0018258D01*
X0098216Y0018182D01*
X0098355Y0018102D01*
X0098493Y0018019D01*
X0098628Y0017932D01*
X0098762Y0017842D01*
X0098893Y0017749D01*
X0099021Y0017653D01*
X0099147Y0017553D01*
X0099271Y0017450D01*
X0099392Y0017345D01*
X0099511Y0017236D01*
X0099627Y0017125D01*
X0099740Y0017010D01*
X0099850Y0016893D01*
X0099957Y0016773D01*
X0100061Y0016651D01*
X0100162Y0016526D01*
X0100260Y0016398D01*
X0100355Y0016268D01*
X0100447Y0016136D01*
X0100535Y0016002D01*
X0100620Y0015865D01*
X0100702Y0015727D01*
X0100780Y0015586D01*
X0100854Y0015444D01*
X0100925Y0015300D01*
X0100993Y0015154D01*
X0101056Y0015006D01*
X0101117Y0014857D01*
X0101173Y0014706D01*
X0101226Y0014554D01*
X0101275Y0014401D01*
X0101320Y0014247D01*
X0101361Y0014092D01*
X0101399Y0013935D01*
X0101432Y0013778D01*
X0101462Y0013620D01*
X0101488Y0013461D01*
X0101509Y0013302D01*
X0101527Y0013142D01*
X0101541Y0012982D01*
X0101551Y0012821D01*
X0101557Y0012661D01*
X0101559Y0012500D01*
X0101557Y0012339D01*
X0101551Y0012179D01*
X0101541Y0012018D01*
X0101527Y0011858D01*
X0101509Y0011698D01*
X0101488Y0011539D01*
X0101462Y0011380D01*
X0101432Y0011222D01*
X0101399Y0011065D01*
X0101361Y0010908D01*
X0101320Y0010753D01*
X0101275Y0010599D01*
X0101226Y0010446D01*
X0101173Y0010294D01*
X0101117Y0010143D01*
X0101056Y0009994D01*
X0100993Y0009846D01*
X0100925Y0009700D01*
X0100854Y0009556D01*
X0100780Y0009414D01*
X0100702Y0009273D01*
X0100620Y0009135D01*
X0100535Y0008998D01*
X0100447Y0008864D01*
X0100355Y0008732D01*
X0100260Y0008602D01*
X0100162Y0008474D01*
X0100061Y0008349D01*
X0099957Y0008227D01*
X0099850Y0008107D01*
X0099740Y0007990D01*
X0099627Y0007875D01*
X0099511Y0007764D01*
X0099392Y0007655D01*
X0099271Y0007550D01*
X0099147Y0007447D01*
X0099021Y0007347D01*
X0098893Y0007251D01*
X0098762Y0007158D01*
X0098628Y0007068D01*
X0098493Y0006981D01*
X0098355Y0006898D01*
X0098216Y0006818D01*
X0098074Y0006742D01*
X0097931Y0006669D01*
X0097786Y0006600D01*
X0097639Y0006534D01*
X0097491Y0006472D01*
X0097341Y0006414D01*
X0097190Y0006359D01*
X0097037Y0006308D01*
X0096883Y0006261D01*
X0096728Y0006218D01*
X0096572Y0006179D01*
X0096416Y0006143D01*
X0096258Y0006112D01*
X0096100Y0006084D01*
X0095941Y0006060D01*
X0095781Y0006040D01*
X0095621Y0006024D01*
X0095461Y0006012D01*
X0095300Y0006004D01*
X0095139Y0006000D01*
X0094979Y0006000D01*
X0094818Y0006004D01*
X0094657Y0006012D01*
X0094497Y0006024D01*
X0094337Y0006040D01*
X0094177Y0006060D01*
X0094018Y0006084D01*
X0093860Y0006112D01*
X0093702Y0006143D01*
X0093546Y0006179D01*
X0093390Y0006218D01*
X0093235Y0006261D01*
X0093081Y0006308D01*
X0092928Y0006359D01*
X0092777Y0006414D01*
X0092627Y0006472D01*
X0092479Y0006534D01*
X0092332Y0006600D01*
X0092187Y0006669D01*
X0092044Y0006742D01*
X0091902Y0006818D01*
X0091763Y0006898D01*
X0091625Y0006981D01*
X0091490Y0007068D01*
X0091356Y0007158D01*
X0091225Y0007251D01*
X0091097Y0007347D01*
X0090971Y0007447D01*
X0090847Y0007550D01*
X0090726Y0007655D01*
X0090607Y0007764D01*
X0090491Y0007875D01*
X0090378Y0007990D01*
X0090268Y0008107D01*
X0090161Y0008227D01*
X0090057Y0008349D01*
X0089956Y0008474D01*
X0089858Y0008602D01*
X0089763Y0008732D01*
X0089671Y0008864D01*
X0089583Y0008998D01*
X0089498Y0009135D01*
X0089416Y0009273D01*
X0089338Y0009414D01*
X0089264Y0009556D01*
X0089193Y0009700D01*
X0089125Y0009846D01*
X0089062Y0009994D01*
X0089001Y0010143D01*
X0088945Y0010294D01*
X0088892Y0010446D01*
X0088843Y0010599D01*
X0088798Y0010753D01*
X0088757Y0010908D01*
X0088719Y0011065D01*
X0088686Y0011222D01*
X0088656Y0011380D01*
X0088630Y0011539D01*
X0088609Y0011698D01*
X0088591Y0011858D01*
X0088577Y0012018D01*
X0088567Y0012179D01*
X0088561Y0012339D01*
X0088559Y0012500D01*
X0110559Y0012500D02*
X0110561Y0012661D01*
X0110567Y0012821D01*
X0110577Y0012982D01*
X0110591Y0013142D01*
X0110609Y0013302D01*
X0110630Y0013461D01*
X0110656Y0013620D01*
X0110686Y0013778D01*
X0110719Y0013935D01*
X0110757Y0014092D01*
X0110798Y0014247D01*
X0110843Y0014401D01*
X0110892Y0014554D01*
X0110945Y0014706D01*
X0111001Y0014857D01*
X0111062Y0015006D01*
X0111125Y0015154D01*
X0111193Y0015300D01*
X0111264Y0015444D01*
X0111338Y0015586D01*
X0111416Y0015727D01*
X0111498Y0015865D01*
X0111583Y0016002D01*
X0111671Y0016136D01*
X0111763Y0016268D01*
X0111858Y0016398D01*
X0111956Y0016526D01*
X0112057Y0016651D01*
X0112161Y0016773D01*
X0112268Y0016893D01*
X0112378Y0017010D01*
X0112491Y0017125D01*
X0112607Y0017236D01*
X0112726Y0017345D01*
X0112847Y0017450D01*
X0112971Y0017553D01*
X0113097Y0017653D01*
X0113225Y0017749D01*
X0113356Y0017842D01*
X0113490Y0017932D01*
X0113625Y0018019D01*
X0113763Y0018102D01*
X0113902Y0018182D01*
X0114044Y0018258D01*
X0114187Y0018331D01*
X0114332Y0018400D01*
X0114479Y0018466D01*
X0114627Y0018528D01*
X0114777Y0018586D01*
X0114928Y0018641D01*
X0115081Y0018692D01*
X0115235Y0018739D01*
X0115390Y0018782D01*
X0115546Y0018821D01*
X0115702Y0018857D01*
X0115860Y0018888D01*
X0116018Y0018916D01*
X0116177Y0018940D01*
X0116337Y0018960D01*
X0116497Y0018976D01*
X0116657Y0018988D01*
X0116818Y0018996D01*
X0116979Y0019000D01*
X0117139Y0019000D01*
X0117300Y0018996D01*
X0117461Y0018988D01*
X0117621Y0018976D01*
X0117781Y0018960D01*
X0117941Y0018940D01*
X0118100Y0018916D01*
X0118258Y0018888D01*
X0118416Y0018857D01*
X0118572Y0018821D01*
X0118728Y0018782D01*
X0118883Y0018739D01*
X0119037Y0018692D01*
X0119190Y0018641D01*
X0119341Y0018586D01*
X0119491Y0018528D01*
X0119639Y0018466D01*
X0119786Y0018400D01*
X0119931Y0018331D01*
X0120074Y0018258D01*
X0120216Y0018182D01*
X0120355Y0018102D01*
X0120493Y0018019D01*
X0120628Y0017932D01*
X0120762Y0017842D01*
X0120893Y0017749D01*
X0121021Y0017653D01*
X0121147Y0017553D01*
X0121271Y0017450D01*
X0121392Y0017345D01*
X0121511Y0017236D01*
X0121627Y0017125D01*
X0121740Y0017010D01*
X0121850Y0016893D01*
X0121957Y0016773D01*
X0122061Y0016651D01*
X0122162Y0016526D01*
X0122260Y0016398D01*
X0122355Y0016268D01*
X0122447Y0016136D01*
X0122535Y0016002D01*
X0122620Y0015865D01*
X0122702Y0015727D01*
X0122780Y0015586D01*
X0122854Y0015444D01*
X0122925Y0015300D01*
X0122993Y0015154D01*
X0123056Y0015006D01*
X0123117Y0014857D01*
X0123173Y0014706D01*
X0123226Y0014554D01*
X0123275Y0014401D01*
X0123320Y0014247D01*
X0123361Y0014092D01*
X0123399Y0013935D01*
X0123432Y0013778D01*
X0123462Y0013620D01*
X0123488Y0013461D01*
X0123509Y0013302D01*
X0123527Y0013142D01*
X0123541Y0012982D01*
X0123551Y0012821D01*
X0123557Y0012661D01*
X0123559Y0012500D01*
X0123557Y0012339D01*
X0123551Y0012179D01*
X0123541Y0012018D01*
X0123527Y0011858D01*
X0123509Y0011698D01*
X0123488Y0011539D01*
X0123462Y0011380D01*
X0123432Y0011222D01*
X0123399Y0011065D01*
X0123361Y0010908D01*
X0123320Y0010753D01*
X0123275Y0010599D01*
X0123226Y0010446D01*
X0123173Y0010294D01*
X0123117Y0010143D01*
X0123056Y0009994D01*
X0122993Y0009846D01*
X0122925Y0009700D01*
X0122854Y0009556D01*
X0122780Y0009414D01*
X0122702Y0009273D01*
X0122620Y0009135D01*
X0122535Y0008998D01*
X0122447Y0008864D01*
X0122355Y0008732D01*
X0122260Y0008602D01*
X0122162Y0008474D01*
X0122061Y0008349D01*
X0121957Y0008227D01*
X0121850Y0008107D01*
X0121740Y0007990D01*
X0121627Y0007875D01*
X0121511Y0007764D01*
X0121392Y0007655D01*
X0121271Y0007550D01*
X0121147Y0007447D01*
X0121021Y0007347D01*
X0120893Y0007251D01*
X0120762Y0007158D01*
X0120628Y0007068D01*
X0120493Y0006981D01*
X0120355Y0006898D01*
X0120216Y0006818D01*
X0120074Y0006742D01*
X0119931Y0006669D01*
X0119786Y0006600D01*
X0119639Y0006534D01*
X0119491Y0006472D01*
X0119341Y0006414D01*
X0119190Y0006359D01*
X0119037Y0006308D01*
X0118883Y0006261D01*
X0118728Y0006218D01*
X0118572Y0006179D01*
X0118416Y0006143D01*
X0118258Y0006112D01*
X0118100Y0006084D01*
X0117941Y0006060D01*
X0117781Y0006040D01*
X0117621Y0006024D01*
X0117461Y0006012D01*
X0117300Y0006004D01*
X0117139Y0006000D01*
X0116979Y0006000D01*
X0116818Y0006004D01*
X0116657Y0006012D01*
X0116497Y0006024D01*
X0116337Y0006040D01*
X0116177Y0006060D01*
X0116018Y0006084D01*
X0115860Y0006112D01*
X0115702Y0006143D01*
X0115546Y0006179D01*
X0115390Y0006218D01*
X0115235Y0006261D01*
X0115081Y0006308D01*
X0114928Y0006359D01*
X0114777Y0006414D01*
X0114627Y0006472D01*
X0114479Y0006534D01*
X0114332Y0006600D01*
X0114187Y0006669D01*
X0114044Y0006742D01*
X0113902Y0006818D01*
X0113763Y0006898D01*
X0113625Y0006981D01*
X0113490Y0007068D01*
X0113356Y0007158D01*
X0113225Y0007251D01*
X0113097Y0007347D01*
X0112971Y0007447D01*
X0112847Y0007550D01*
X0112726Y0007655D01*
X0112607Y0007764D01*
X0112491Y0007875D01*
X0112378Y0007990D01*
X0112268Y0008107D01*
X0112161Y0008227D01*
X0112057Y0008349D01*
X0111956Y0008474D01*
X0111858Y0008602D01*
X0111763Y0008732D01*
X0111671Y0008864D01*
X0111583Y0008998D01*
X0111498Y0009135D01*
X0111416Y0009273D01*
X0111338Y0009414D01*
X0111264Y0009556D01*
X0111193Y0009700D01*
X0111125Y0009846D01*
X0111062Y0009994D01*
X0111001Y0010143D01*
X0110945Y0010294D01*
X0110892Y0010446D01*
X0110843Y0010599D01*
X0110798Y0010753D01*
X0110757Y0010908D01*
X0110719Y0011065D01*
X0110686Y0011222D01*
X0110656Y0011380D01*
X0110630Y0011539D01*
X0110609Y0011698D01*
X0110591Y0011858D01*
X0110577Y0012018D01*
X0110567Y0012179D01*
X0110561Y0012339D01*
X0110559Y0012500D01*
X0190559Y0012500D02*
X0190561Y0012661D01*
X0190567Y0012821D01*
X0190577Y0012982D01*
X0190591Y0013142D01*
X0190609Y0013302D01*
X0190630Y0013461D01*
X0190656Y0013620D01*
X0190686Y0013778D01*
X0190719Y0013935D01*
X0190757Y0014092D01*
X0190798Y0014247D01*
X0190843Y0014401D01*
X0190892Y0014554D01*
X0190945Y0014706D01*
X0191001Y0014857D01*
X0191062Y0015006D01*
X0191125Y0015154D01*
X0191193Y0015300D01*
X0191264Y0015444D01*
X0191338Y0015586D01*
X0191416Y0015727D01*
X0191498Y0015865D01*
X0191583Y0016002D01*
X0191671Y0016136D01*
X0191763Y0016268D01*
X0191858Y0016398D01*
X0191956Y0016526D01*
X0192057Y0016651D01*
X0192161Y0016773D01*
X0192268Y0016893D01*
X0192378Y0017010D01*
X0192491Y0017125D01*
X0192607Y0017236D01*
X0192726Y0017345D01*
X0192847Y0017450D01*
X0192971Y0017553D01*
X0193097Y0017653D01*
X0193225Y0017749D01*
X0193356Y0017842D01*
X0193490Y0017932D01*
X0193625Y0018019D01*
X0193763Y0018102D01*
X0193902Y0018182D01*
X0194044Y0018258D01*
X0194187Y0018331D01*
X0194332Y0018400D01*
X0194479Y0018466D01*
X0194627Y0018528D01*
X0194777Y0018586D01*
X0194928Y0018641D01*
X0195081Y0018692D01*
X0195235Y0018739D01*
X0195390Y0018782D01*
X0195546Y0018821D01*
X0195702Y0018857D01*
X0195860Y0018888D01*
X0196018Y0018916D01*
X0196177Y0018940D01*
X0196337Y0018960D01*
X0196497Y0018976D01*
X0196657Y0018988D01*
X0196818Y0018996D01*
X0196979Y0019000D01*
X0197139Y0019000D01*
X0197300Y0018996D01*
X0197461Y0018988D01*
X0197621Y0018976D01*
X0197781Y0018960D01*
X0197941Y0018940D01*
X0198100Y0018916D01*
X0198258Y0018888D01*
X0198416Y0018857D01*
X0198572Y0018821D01*
X0198728Y0018782D01*
X0198883Y0018739D01*
X0199037Y0018692D01*
X0199190Y0018641D01*
X0199341Y0018586D01*
X0199491Y0018528D01*
X0199639Y0018466D01*
X0199786Y0018400D01*
X0199931Y0018331D01*
X0200074Y0018258D01*
X0200216Y0018182D01*
X0200355Y0018102D01*
X0200493Y0018019D01*
X0200628Y0017932D01*
X0200762Y0017842D01*
X0200893Y0017749D01*
X0201021Y0017653D01*
X0201147Y0017553D01*
X0201271Y0017450D01*
X0201392Y0017345D01*
X0201511Y0017236D01*
X0201627Y0017125D01*
X0201740Y0017010D01*
X0201850Y0016893D01*
X0201957Y0016773D01*
X0202061Y0016651D01*
X0202162Y0016526D01*
X0202260Y0016398D01*
X0202355Y0016268D01*
X0202447Y0016136D01*
X0202535Y0016002D01*
X0202620Y0015865D01*
X0202702Y0015727D01*
X0202780Y0015586D01*
X0202854Y0015444D01*
X0202925Y0015300D01*
X0202993Y0015154D01*
X0203056Y0015006D01*
X0203117Y0014857D01*
X0203173Y0014706D01*
X0203226Y0014554D01*
X0203275Y0014401D01*
X0203320Y0014247D01*
X0203361Y0014092D01*
X0203399Y0013935D01*
X0203432Y0013778D01*
X0203462Y0013620D01*
X0203488Y0013461D01*
X0203509Y0013302D01*
X0203527Y0013142D01*
X0203541Y0012982D01*
X0203551Y0012821D01*
X0203557Y0012661D01*
X0203559Y0012500D01*
X0203557Y0012339D01*
X0203551Y0012179D01*
X0203541Y0012018D01*
X0203527Y0011858D01*
X0203509Y0011698D01*
X0203488Y0011539D01*
X0203462Y0011380D01*
X0203432Y0011222D01*
X0203399Y0011065D01*
X0203361Y0010908D01*
X0203320Y0010753D01*
X0203275Y0010599D01*
X0203226Y0010446D01*
X0203173Y0010294D01*
X0203117Y0010143D01*
X0203056Y0009994D01*
X0202993Y0009846D01*
X0202925Y0009700D01*
X0202854Y0009556D01*
X0202780Y0009414D01*
X0202702Y0009273D01*
X0202620Y0009135D01*
X0202535Y0008998D01*
X0202447Y0008864D01*
X0202355Y0008732D01*
X0202260Y0008602D01*
X0202162Y0008474D01*
X0202061Y0008349D01*
X0201957Y0008227D01*
X0201850Y0008107D01*
X0201740Y0007990D01*
X0201627Y0007875D01*
X0201511Y0007764D01*
X0201392Y0007655D01*
X0201271Y0007550D01*
X0201147Y0007447D01*
X0201021Y0007347D01*
X0200893Y0007251D01*
X0200762Y0007158D01*
X0200628Y0007068D01*
X0200493Y0006981D01*
X0200355Y0006898D01*
X0200216Y0006818D01*
X0200074Y0006742D01*
X0199931Y0006669D01*
X0199786Y0006600D01*
X0199639Y0006534D01*
X0199491Y0006472D01*
X0199341Y0006414D01*
X0199190Y0006359D01*
X0199037Y0006308D01*
X0198883Y0006261D01*
X0198728Y0006218D01*
X0198572Y0006179D01*
X0198416Y0006143D01*
X0198258Y0006112D01*
X0198100Y0006084D01*
X0197941Y0006060D01*
X0197781Y0006040D01*
X0197621Y0006024D01*
X0197461Y0006012D01*
X0197300Y0006004D01*
X0197139Y0006000D01*
X0196979Y0006000D01*
X0196818Y0006004D01*
X0196657Y0006012D01*
X0196497Y0006024D01*
X0196337Y0006040D01*
X0196177Y0006060D01*
X0196018Y0006084D01*
X0195860Y0006112D01*
X0195702Y0006143D01*
X0195546Y0006179D01*
X0195390Y0006218D01*
X0195235Y0006261D01*
X0195081Y0006308D01*
X0194928Y0006359D01*
X0194777Y0006414D01*
X0194627Y0006472D01*
X0194479Y0006534D01*
X0194332Y0006600D01*
X0194187Y0006669D01*
X0194044Y0006742D01*
X0193902Y0006818D01*
X0193763Y0006898D01*
X0193625Y0006981D01*
X0193490Y0007068D01*
X0193356Y0007158D01*
X0193225Y0007251D01*
X0193097Y0007347D01*
X0192971Y0007447D01*
X0192847Y0007550D01*
X0192726Y0007655D01*
X0192607Y0007764D01*
X0192491Y0007875D01*
X0192378Y0007990D01*
X0192268Y0008107D01*
X0192161Y0008227D01*
X0192057Y0008349D01*
X0191956Y0008474D01*
X0191858Y0008602D01*
X0191763Y0008732D01*
X0191671Y0008864D01*
X0191583Y0008998D01*
X0191498Y0009135D01*
X0191416Y0009273D01*
X0191338Y0009414D01*
X0191264Y0009556D01*
X0191193Y0009700D01*
X0191125Y0009846D01*
X0191062Y0009994D01*
X0191001Y0010143D01*
X0190945Y0010294D01*
X0190892Y0010446D01*
X0190843Y0010599D01*
X0190798Y0010753D01*
X0190757Y0010908D01*
X0190719Y0011065D01*
X0190686Y0011222D01*
X0190656Y0011380D01*
X0190630Y0011539D01*
X0190609Y0011698D01*
X0190591Y0011858D01*
X0190577Y0012018D01*
X0190567Y0012179D01*
X0190561Y0012339D01*
X0190559Y0012500D01*
X0212559Y0012500D02*
X0212561Y0012661D01*
X0212567Y0012821D01*
X0212577Y0012982D01*
X0212591Y0013142D01*
X0212609Y0013302D01*
X0212630Y0013461D01*
X0212656Y0013620D01*
X0212686Y0013778D01*
X0212719Y0013935D01*
X0212757Y0014092D01*
X0212798Y0014247D01*
X0212843Y0014401D01*
X0212892Y0014554D01*
X0212945Y0014706D01*
X0213001Y0014857D01*
X0213062Y0015006D01*
X0213125Y0015154D01*
X0213193Y0015300D01*
X0213264Y0015444D01*
X0213338Y0015586D01*
X0213416Y0015727D01*
X0213498Y0015865D01*
X0213583Y0016002D01*
X0213671Y0016136D01*
X0213763Y0016268D01*
X0213858Y0016398D01*
X0213956Y0016526D01*
X0214057Y0016651D01*
X0214161Y0016773D01*
X0214268Y0016893D01*
X0214378Y0017010D01*
X0214491Y0017125D01*
X0214607Y0017236D01*
X0214726Y0017345D01*
X0214847Y0017450D01*
X0214971Y0017553D01*
X0215097Y0017653D01*
X0215225Y0017749D01*
X0215356Y0017842D01*
X0215490Y0017932D01*
X0215625Y0018019D01*
X0215763Y0018102D01*
X0215902Y0018182D01*
X0216044Y0018258D01*
X0216187Y0018331D01*
X0216332Y0018400D01*
X0216479Y0018466D01*
X0216627Y0018528D01*
X0216777Y0018586D01*
X0216928Y0018641D01*
X0217081Y0018692D01*
X0217235Y0018739D01*
X0217390Y0018782D01*
X0217546Y0018821D01*
X0217702Y0018857D01*
X0217860Y0018888D01*
X0218018Y0018916D01*
X0218177Y0018940D01*
X0218337Y0018960D01*
X0218497Y0018976D01*
X0218657Y0018988D01*
X0218818Y0018996D01*
X0218979Y0019000D01*
X0219139Y0019000D01*
X0219300Y0018996D01*
X0219461Y0018988D01*
X0219621Y0018976D01*
X0219781Y0018960D01*
X0219941Y0018940D01*
X0220100Y0018916D01*
X0220258Y0018888D01*
X0220416Y0018857D01*
X0220572Y0018821D01*
X0220728Y0018782D01*
X0220883Y0018739D01*
X0221037Y0018692D01*
X0221190Y0018641D01*
X0221341Y0018586D01*
X0221491Y0018528D01*
X0221639Y0018466D01*
X0221786Y0018400D01*
X0221931Y0018331D01*
X0222074Y0018258D01*
X0222216Y0018182D01*
X0222355Y0018102D01*
X0222493Y0018019D01*
X0222628Y0017932D01*
X0222762Y0017842D01*
X0222893Y0017749D01*
X0223021Y0017653D01*
X0223147Y0017553D01*
X0223271Y0017450D01*
X0223392Y0017345D01*
X0223511Y0017236D01*
X0223627Y0017125D01*
X0223740Y0017010D01*
X0223850Y0016893D01*
X0223957Y0016773D01*
X0224061Y0016651D01*
X0224162Y0016526D01*
X0224260Y0016398D01*
X0224355Y0016268D01*
X0224447Y0016136D01*
X0224535Y0016002D01*
X0224620Y0015865D01*
X0224702Y0015727D01*
X0224780Y0015586D01*
X0224854Y0015444D01*
X0224925Y0015300D01*
X0224993Y0015154D01*
X0225056Y0015006D01*
X0225117Y0014857D01*
X0225173Y0014706D01*
X0225226Y0014554D01*
X0225275Y0014401D01*
X0225320Y0014247D01*
X0225361Y0014092D01*
X0225399Y0013935D01*
X0225432Y0013778D01*
X0225462Y0013620D01*
X0225488Y0013461D01*
X0225509Y0013302D01*
X0225527Y0013142D01*
X0225541Y0012982D01*
X0225551Y0012821D01*
X0225557Y0012661D01*
X0225559Y0012500D01*
X0225557Y0012339D01*
X0225551Y0012179D01*
X0225541Y0012018D01*
X0225527Y0011858D01*
X0225509Y0011698D01*
X0225488Y0011539D01*
X0225462Y0011380D01*
X0225432Y0011222D01*
X0225399Y0011065D01*
X0225361Y0010908D01*
X0225320Y0010753D01*
X0225275Y0010599D01*
X0225226Y0010446D01*
X0225173Y0010294D01*
X0225117Y0010143D01*
X0225056Y0009994D01*
X0224993Y0009846D01*
X0224925Y0009700D01*
X0224854Y0009556D01*
X0224780Y0009414D01*
X0224702Y0009273D01*
X0224620Y0009135D01*
X0224535Y0008998D01*
X0224447Y0008864D01*
X0224355Y0008732D01*
X0224260Y0008602D01*
X0224162Y0008474D01*
X0224061Y0008349D01*
X0223957Y0008227D01*
X0223850Y0008107D01*
X0223740Y0007990D01*
X0223627Y0007875D01*
X0223511Y0007764D01*
X0223392Y0007655D01*
X0223271Y0007550D01*
X0223147Y0007447D01*
X0223021Y0007347D01*
X0222893Y0007251D01*
X0222762Y0007158D01*
X0222628Y0007068D01*
X0222493Y0006981D01*
X0222355Y0006898D01*
X0222216Y0006818D01*
X0222074Y0006742D01*
X0221931Y0006669D01*
X0221786Y0006600D01*
X0221639Y0006534D01*
X0221491Y0006472D01*
X0221341Y0006414D01*
X0221190Y0006359D01*
X0221037Y0006308D01*
X0220883Y0006261D01*
X0220728Y0006218D01*
X0220572Y0006179D01*
X0220416Y0006143D01*
X0220258Y0006112D01*
X0220100Y0006084D01*
X0219941Y0006060D01*
X0219781Y0006040D01*
X0219621Y0006024D01*
X0219461Y0006012D01*
X0219300Y0006004D01*
X0219139Y0006000D01*
X0218979Y0006000D01*
X0218818Y0006004D01*
X0218657Y0006012D01*
X0218497Y0006024D01*
X0218337Y0006040D01*
X0218177Y0006060D01*
X0218018Y0006084D01*
X0217860Y0006112D01*
X0217702Y0006143D01*
X0217546Y0006179D01*
X0217390Y0006218D01*
X0217235Y0006261D01*
X0217081Y0006308D01*
X0216928Y0006359D01*
X0216777Y0006414D01*
X0216627Y0006472D01*
X0216479Y0006534D01*
X0216332Y0006600D01*
X0216187Y0006669D01*
X0216044Y0006742D01*
X0215902Y0006818D01*
X0215763Y0006898D01*
X0215625Y0006981D01*
X0215490Y0007068D01*
X0215356Y0007158D01*
X0215225Y0007251D01*
X0215097Y0007347D01*
X0214971Y0007447D01*
X0214847Y0007550D01*
X0214726Y0007655D01*
X0214607Y0007764D01*
X0214491Y0007875D01*
X0214378Y0007990D01*
X0214268Y0008107D01*
X0214161Y0008227D01*
X0214057Y0008349D01*
X0213956Y0008474D01*
X0213858Y0008602D01*
X0213763Y0008732D01*
X0213671Y0008864D01*
X0213583Y0008998D01*
X0213498Y0009135D01*
X0213416Y0009273D01*
X0213338Y0009414D01*
X0213264Y0009556D01*
X0213193Y0009700D01*
X0213125Y0009846D01*
X0213062Y0009994D01*
X0213001Y0010143D01*
X0212945Y0010294D01*
X0212892Y0010446D01*
X0212843Y0010599D01*
X0212798Y0010753D01*
X0212757Y0010908D01*
X0212719Y0011065D01*
X0212686Y0011222D01*
X0212656Y0011380D01*
X0212630Y0011539D01*
X0212609Y0011698D01*
X0212591Y0011858D01*
X0212577Y0012018D01*
X0212567Y0012179D01*
X0212561Y0012339D01*
X0212559Y0012500D01*
X0292559Y0012500D02*
X0292561Y0012661D01*
X0292567Y0012821D01*
X0292577Y0012982D01*
X0292591Y0013142D01*
X0292609Y0013302D01*
X0292630Y0013461D01*
X0292656Y0013620D01*
X0292686Y0013778D01*
X0292719Y0013935D01*
X0292757Y0014092D01*
X0292798Y0014247D01*
X0292843Y0014401D01*
X0292892Y0014554D01*
X0292945Y0014706D01*
X0293001Y0014857D01*
X0293062Y0015006D01*
X0293125Y0015154D01*
X0293193Y0015300D01*
X0293264Y0015444D01*
X0293338Y0015586D01*
X0293416Y0015727D01*
X0293498Y0015865D01*
X0293583Y0016002D01*
X0293671Y0016136D01*
X0293763Y0016268D01*
X0293858Y0016398D01*
X0293956Y0016526D01*
X0294057Y0016651D01*
X0294161Y0016773D01*
X0294268Y0016893D01*
X0294378Y0017010D01*
X0294491Y0017125D01*
X0294607Y0017236D01*
X0294726Y0017345D01*
X0294847Y0017450D01*
X0294971Y0017553D01*
X0295097Y0017653D01*
X0295225Y0017749D01*
X0295356Y0017842D01*
X0295490Y0017932D01*
X0295625Y0018019D01*
X0295763Y0018102D01*
X0295902Y0018182D01*
X0296044Y0018258D01*
X0296187Y0018331D01*
X0296332Y0018400D01*
X0296479Y0018466D01*
X0296627Y0018528D01*
X0296777Y0018586D01*
X0296928Y0018641D01*
X0297081Y0018692D01*
X0297235Y0018739D01*
X0297390Y0018782D01*
X0297546Y0018821D01*
X0297702Y0018857D01*
X0297860Y0018888D01*
X0298018Y0018916D01*
X0298177Y0018940D01*
X0298337Y0018960D01*
X0298497Y0018976D01*
X0298657Y0018988D01*
X0298818Y0018996D01*
X0298979Y0019000D01*
X0299139Y0019000D01*
X0299300Y0018996D01*
X0299461Y0018988D01*
X0299621Y0018976D01*
X0299781Y0018960D01*
X0299941Y0018940D01*
X0300100Y0018916D01*
X0300258Y0018888D01*
X0300416Y0018857D01*
X0300572Y0018821D01*
X0300728Y0018782D01*
X0300883Y0018739D01*
X0301037Y0018692D01*
X0301190Y0018641D01*
X0301341Y0018586D01*
X0301491Y0018528D01*
X0301639Y0018466D01*
X0301786Y0018400D01*
X0301931Y0018331D01*
X0302074Y0018258D01*
X0302216Y0018182D01*
X0302355Y0018102D01*
X0302493Y0018019D01*
X0302628Y0017932D01*
X0302762Y0017842D01*
X0302893Y0017749D01*
X0303021Y0017653D01*
X0303147Y0017553D01*
X0303271Y0017450D01*
X0303392Y0017345D01*
X0303511Y0017236D01*
X0303627Y0017125D01*
X0303740Y0017010D01*
X0303850Y0016893D01*
X0303957Y0016773D01*
X0304061Y0016651D01*
X0304162Y0016526D01*
X0304260Y0016398D01*
X0304355Y0016268D01*
X0304447Y0016136D01*
X0304535Y0016002D01*
X0304620Y0015865D01*
X0304702Y0015727D01*
X0304780Y0015586D01*
X0304854Y0015444D01*
X0304925Y0015300D01*
X0304993Y0015154D01*
X0305056Y0015006D01*
X0305117Y0014857D01*
X0305173Y0014706D01*
X0305226Y0014554D01*
X0305275Y0014401D01*
X0305320Y0014247D01*
X0305361Y0014092D01*
X0305399Y0013935D01*
X0305432Y0013778D01*
X0305462Y0013620D01*
X0305488Y0013461D01*
X0305509Y0013302D01*
X0305527Y0013142D01*
X0305541Y0012982D01*
X0305551Y0012821D01*
X0305557Y0012661D01*
X0305559Y0012500D01*
X0305557Y0012339D01*
X0305551Y0012179D01*
X0305541Y0012018D01*
X0305527Y0011858D01*
X0305509Y0011698D01*
X0305488Y0011539D01*
X0305462Y0011380D01*
X0305432Y0011222D01*
X0305399Y0011065D01*
X0305361Y0010908D01*
X0305320Y0010753D01*
X0305275Y0010599D01*
X0305226Y0010446D01*
X0305173Y0010294D01*
X0305117Y0010143D01*
X0305056Y0009994D01*
X0304993Y0009846D01*
X0304925Y0009700D01*
X0304854Y0009556D01*
X0304780Y0009414D01*
X0304702Y0009273D01*
X0304620Y0009135D01*
X0304535Y0008998D01*
X0304447Y0008864D01*
X0304355Y0008732D01*
X0304260Y0008602D01*
X0304162Y0008474D01*
X0304061Y0008349D01*
X0303957Y0008227D01*
X0303850Y0008107D01*
X0303740Y0007990D01*
X0303627Y0007875D01*
X0303511Y0007764D01*
X0303392Y0007655D01*
X0303271Y0007550D01*
X0303147Y0007447D01*
X0303021Y0007347D01*
X0302893Y0007251D01*
X0302762Y0007158D01*
X0302628Y0007068D01*
X0302493Y0006981D01*
X0302355Y0006898D01*
X0302216Y0006818D01*
X0302074Y0006742D01*
X0301931Y0006669D01*
X0301786Y0006600D01*
X0301639Y0006534D01*
X0301491Y0006472D01*
X0301341Y0006414D01*
X0301190Y0006359D01*
X0301037Y0006308D01*
X0300883Y0006261D01*
X0300728Y0006218D01*
X0300572Y0006179D01*
X0300416Y0006143D01*
X0300258Y0006112D01*
X0300100Y0006084D01*
X0299941Y0006060D01*
X0299781Y0006040D01*
X0299621Y0006024D01*
X0299461Y0006012D01*
X0299300Y0006004D01*
X0299139Y0006000D01*
X0298979Y0006000D01*
X0298818Y0006004D01*
X0298657Y0006012D01*
X0298497Y0006024D01*
X0298337Y0006040D01*
X0298177Y0006060D01*
X0298018Y0006084D01*
X0297860Y0006112D01*
X0297702Y0006143D01*
X0297546Y0006179D01*
X0297390Y0006218D01*
X0297235Y0006261D01*
X0297081Y0006308D01*
X0296928Y0006359D01*
X0296777Y0006414D01*
X0296627Y0006472D01*
X0296479Y0006534D01*
X0296332Y0006600D01*
X0296187Y0006669D01*
X0296044Y0006742D01*
X0295902Y0006818D01*
X0295763Y0006898D01*
X0295625Y0006981D01*
X0295490Y0007068D01*
X0295356Y0007158D01*
X0295225Y0007251D01*
X0295097Y0007347D01*
X0294971Y0007447D01*
X0294847Y0007550D01*
X0294726Y0007655D01*
X0294607Y0007764D01*
X0294491Y0007875D01*
X0294378Y0007990D01*
X0294268Y0008107D01*
X0294161Y0008227D01*
X0294057Y0008349D01*
X0293956Y0008474D01*
X0293858Y0008602D01*
X0293763Y0008732D01*
X0293671Y0008864D01*
X0293583Y0008998D01*
X0293498Y0009135D01*
X0293416Y0009273D01*
X0293338Y0009414D01*
X0293264Y0009556D01*
X0293193Y0009700D01*
X0293125Y0009846D01*
X0293062Y0009994D01*
X0293001Y0010143D01*
X0292945Y0010294D01*
X0292892Y0010446D01*
X0292843Y0010599D01*
X0292798Y0010753D01*
X0292757Y0010908D01*
X0292719Y0011065D01*
X0292686Y0011222D01*
X0292656Y0011380D01*
X0292630Y0011539D01*
X0292609Y0011698D01*
X0292591Y0011858D01*
X0292577Y0012018D01*
X0292567Y0012179D01*
X0292561Y0012339D01*
X0292559Y0012500D01*
M02*
