G75*
%MOIN*%
%OFA0B0*%
%FSLAX25Y25*%
%IPPOS*%
%LPD*%
%AMOC8*
5,1,8,0,0,1.08239X$1,22.5*
%
%ADD10R,0.04331X0.03937*%
%ADD11R,0.02480X0.03268*%
%ADD12C,0.01181*%
%ADD13R,0.07874X0.04724*%
%ADD14R,0.05315X0.02362*%
%ADD15R,0.03937X0.04331*%
%ADD16R,0.13000X0.08800*%
%ADD17R,0.03543X0.03150*%
%ADD18R,0.03000X0.06000*%
%ADD19R,0.05906X0.05118*%
D10*
X0011713Y0137500D03*
X0018406Y0137500D03*
X0018406Y0147500D03*
X0011713Y0147500D03*
X0026713Y0152500D03*
X0033406Y0152500D03*
X0031713Y0182500D03*
X0038406Y0182500D03*
X0071713Y0182500D03*
X0078406Y0182500D03*
X0076713Y0152500D03*
X0083406Y0152500D03*
X0091713Y0142500D03*
X0098406Y0142500D03*
X0113713Y0137500D03*
X0120406Y0137500D03*
X0120406Y0147500D03*
X0113713Y0147500D03*
X0128713Y0152500D03*
X0135406Y0152500D03*
X0133713Y0182500D03*
X0140406Y0182500D03*
X0173713Y0182500D03*
X0180406Y0182500D03*
X0178713Y0152500D03*
X0185406Y0152500D03*
X0193713Y0142500D03*
X0200406Y0142500D03*
X0215713Y0137500D03*
X0222406Y0137500D03*
X0222406Y0147500D03*
X0215713Y0147500D03*
X0230713Y0152500D03*
X0237406Y0152500D03*
X0235713Y0182500D03*
X0242406Y0182500D03*
X0275713Y0182500D03*
X0282406Y0182500D03*
X0280713Y0152500D03*
X0287406Y0152500D03*
X0295713Y0142500D03*
X0302406Y0142500D03*
X0222406Y0339500D03*
X0215713Y0339500D03*
X0215713Y0349500D03*
X0222406Y0349500D03*
X0230713Y0354500D03*
X0237406Y0354500D03*
X0235713Y0384500D03*
X0242406Y0384500D03*
X0275713Y0384500D03*
X0282406Y0384500D03*
X0280713Y0354500D03*
X0287406Y0354500D03*
X0295713Y0344500D03*
X0302406Y0344500D03*
X0200406Y0344500D03*
X0193713Y0344500D03*
X0185406Y0354500D03*
X0178713Y0354500D03*
X0180406Y0384500D03*
X0173713Y0384500D03*
X0140406Y0384500D03*
X0133713Y0384500D03*
X0135406Y0354500D03*
X0128713Y0354500D03*
X0120406Y0349500D03*
X0113713Y0349500D03*
X0113713Y0339500D03*
X0120406Y0339500D03*
X0098406Y0344500D03*
X0091713Y0344500D03*
X0083406Y0354500D03*
X0076713Y0354500D03*
X0078406Y0384500D03*
X0071713Y0384500D03*
X0038406Y0384500D03*
X0031713Y0384500D03*
X0033406Y0354500D03*
X0026713Y0354500D03*
X0018406Y0349500D03*
X0011713Y0349500D03*
X0011713Y0339500D03*
X0018406Y0339500D03*
D11*
X0019587Y0334500D03*
X0010532Y0334500D03*
X0112532Y0334500D03*
X0121587Y0334500D03*
X0214532Y0334500D03*
X0223587Y0334500D03*
X0223587Y0132500D03*
X0214532Y0132500D03*
X0121587Y0132500D03*
X0112532Y0132500D03*
X0019587Y0132500D03*
X0010532Y0132500D03*
D12*
X0012985Y0141122D02*
X0012985Y0143878D01*
X0012985Y0141122D02*
X0010229Y0141122D01*
X0010229Y0143878D01*
X0012985Y0143878D01*
X0012985Y0142302D02*
X0010229Y0142302D01*
X0010229Y0143482D02*
X0012985Y0143482D01*
X0019890Y0143878D02*
X0019890Y0141122D01*
X0017134Y0141122D01*
X0017134Y0143878D01*
X0019890Y0143878D01*
X0019890Y0142302D02*
X0017134Y0142302D01*
X0017134Y0143482D02*
X0019890Y0143482D01*
X0092985Y0146122D02*
X0092985Y0148878D01*
X0092985Y0146122D02*
X0090229Y0146122D01*
X0090229Y0148878D01*
X0092985Y0148878D01*
X0092985Y0147302D02*
X0090229Y0147302D01*
X0090229Y0148482D02*
X0092985Y0148482D01*
X0099890Y0148878D02*
X0099890Y0146122D01*
X0097134Y0146122D01*
X0097134Y0148878D01*
X0099890Y0148878D01*
X0099890Y0147302D02*
X0097134Y0147302D01*
X0097134Y0148482D02*
X0099890Y0148482D01*
X0114985Y0143878D02*
X0114985Y0141122D01*
X0112229Y0141122D01*
X0112229Y0143878D01*
X0114985Y0143878D01*
X0114985Y0142302D02*
X0112229Y0142302D01*
X0112229Y0143482D02*
X0114985Y0143482D01*
X0121890Y0143878D02*
X0121890Y0141122D01*
X0119134Y0141122D01*
X0119134Y0143878D01*
X0121890Y0143878D01*
X0121890Y0142302D02*
X0119134Y0142302D01*
X0119134Y0143482D02*
X0121890Y0143482D01*
X0194985Y0146122D02*
X0194985Y0148878D01*
X0194985Y0146122D02*
X0192229Y0146122D01*
X0192229Y0148878D01*
X0194985Y0148878D01*
X0194985Y0147302D02*
X0192229Y0147302D01*
X0192229Y0148482D02*
X0194985Y0148482D01*
X0201890Y0148878D02*
X0201890Y0146122D01*
X0199134Y0146122D01*
X0199134Y0148878D01*
X0201890Y0148878D01*
X0201890Y0147302D02*
X0199134Y0147302D01*
X0199134Y0148482D02*
X0201890Y0148482D01*
X0216985Y0143878D02*
X0216985Y0141122D01*
X0214229Y0141122D01*
X0214229Y0143878D01*
X0216985Y0143878D01*
X0216985Y0142302D02*
X0214229Y0142302D01*
X0214229Y0143482D02*
X0216985Y0143482D01*
X0223890Y0143878D02*
X0223890Y0141122D01*
X0221134Y0141122D01*
X0221134Y0143878D01*
X0223890Y0143878D01*
X0223890Y0142302D02*
X0221134Y0142302D01*
X0221134Y0143482D02*
X0223890Y0143482D01*
X0296985Y0146122D02*
X0296985Y0148878D01*
X0296985Y0146122D02*
X0294229Y0146122D01*
X0294229Y0148878D01*
X0296985Y0148878D01*
X0296985Y0147302D02*
X0294229Y0147302D01*
X0294229Y0148482D02*
X0296985Y0148482D01*
X0303890Y0148878D02*
X0303890Y0146122D01*
X0301134Y0146122D01*
X0301134Y0148878D01*
X0303890Y0148878D01*
X0303890Y0147302D02*
X0301134Y0147302D01*
X0301134Y0148482D02*
X0303890Y0148482D01*
X0223890Y0343122D02*
X0223890Y0345878D01*
X0223890Y0343122D02*
X0221134Y0343122D01*
X0221134Y0345878D01*
X0223890Y0345878D01*
X0223890Y0344302D02*
X0221134Y0344302D01*
X0221134Y0345482D02*
X0223890Y0345482D01*
X0216985Y0345878D02*
X0216985Y0343122D01*
X0214229Y0343122D01*
X0214229Y0345878D01*
X0216985Y0345878D01*
X0216985Y0344302D02*
X0214229Y0344302D01*
X0214229Y0345482D02*
X0216985Y0345482D01*
X0201890Y0348122D02*
X0201890Y0350878D01*
X0201890Y0348122D02*
X0199134Y0348122D01*
X0199134Y0350878D01*
X0201890Y0350878D01*
X0201890Y0349302D02*
X0199134Y0349302D01*
X0199134Y0350482D02*
X0201890Y0350482D01*
X0194985Y0350878D02*
X0194985Y0348122D01*
X0192229Y0348122D01*
X0192229Y0350878D01*
X0194985Y0350878D01*
X0194985Y0349302D02*
X0192229Y0349302D01*
X0192229Y0350482D02*
X0194985Y0350482D01*
X0121890Y0345878D02*
X0121890Y0343122D01*
X0119134Y0343122D01*
X0119134Y0345878D01*
X0121890Y0345878D01*
X0121890Y0344302D02*
X0119134Y0344302D01*
X0119134Y0345482D02*
X0121890Y0345482D01*
X0114985Y0345878D02*
X0114985Y0343122D01*
X0112229Y0343122D01*
X0112229Y0345878D01*
X0114985Y0345878D01*
X0114985Y0344302D02*
X0112229Y0344302D01*
X0112229Y0345482D02*
X0114985Y0345482D01*
X0099890Y0348122D02*
X0099890Y0350878D01*
X0099890Y0348122D02*
X0097134Y0348122D01*
X0097134Y0350878D01*
X0099890Y0350878D01*
X0099890Y0349302D02*
X0097134Y0349302D01*
X0097134Y0350482D02*
X0099890Y0350482D01*
X0092985Y0350878D02*
X0092985Y0348122D01*
X0090229Y0348122D01*
X0090229Y0350878D01*
X0092985Y0350878D01*
X0092985Y0349302D02*
X0090229Y0349302D01*
X0090229Y0350482D02*
X0092985Y0350482D01*
X0019890Y0345878D02*
X0019890Y0343122D01*
X0017134Y0343122D01*
X0017134Y0345878D01*
X0019890Y0345878D01*
X0019890Y0344302D02*
X0017134Y0344302D01*
X0017134Y0345482D02*
X0019890Y0345482D01*
X0012985Y0345878D02*
X0012985Y0343122D01*
X0010229Y0343122D01*
X0010229Y0345878D01*
X0012985Y0345878D01*
X0012985Y0344302D02*
X0010229Y0344302D01*
X0010229Y0345482D02*
X0012985Y0345482D01*
X0296985Y0348122D02*
X0296985Y0350878D01*
X0296985Y0348122D02*
X0294229Y0348122D01*
X0294229Y0350878D01*
X0296985Y0350878D01*
X0296985Y0349302D02*
X0294229Y0349302D01*
X0294229Y0350482D02*
X0296985Y0350482D01*
X0303890Y0350878D02*
X0303890Y0348122D01*
X0301134Y0348122D01*
X0301134Y0350878D01*
X0303890Y0350878D01*
X0303890Y0349302D02*
X0301134Y0349302D01*
X0301134Y0350482D02*
X0303890Y0350482D01*
D13*
X0303528Y0358476D03*
X0303528Y0380524D03*
X0214591Y0380524D03*
X0201528Y0380524D03*
X0201528Y0358476D03*
X0214591Y0358476D03*
X0112591Y0358476D03*
X0099528Y0358476D03*
X0099528Y0380524D03*
X0112591Y0380524D03*
X0010591Y0380524D03*
X0010591Y0358476D03*
X0010591Y0178524D03*
X0010591Y0156476D03*
X0099528Y0156476D03*
X0112591Y0156476D03*
X0112591Y0178524D03*
X0099528Y0178524D03*
X0201528Y0178524D03*
X0214591Y0178524D03*
X0214591Y0156476D03*
X0201528Y0156476D03*
X0303528Y0156476D03*
X0303528Y0178524D03*
D14*
X0289059Y0173406D03*
X0289059Y0169469D03*
X0289059Y0165531D03*
X0289059Y0161594D03*
X0229059Y0161594D03*
X0229059Y0165531D03*
X0229059Y0169469D03*
X0229059Y0173406D03*
X0187059Y0173406D03*
X0187059Y0169469D03*
X0187059Y0165531D03*
X0187059Y0161594D03*
X0127059Y0161594D03*
X0127059Y0165531D03*
X0127059Y0169469D03*
X0127059Y0173406D03*
X0085059Y0173406D03*
X0085059Y0169469D03*
X0085059Y0165531D03*
X0085059Y0161594D03*
X0025059Y0161594D03*
X0025059Y0165531D03*
X0025059Y0169469D03*
X0025059Y0173406D03*
X0025059Y0363594D03*
X0025059Y0367531D03*
X0025059Y0371469D03*
X0025059Y0375406D03*
X0085059Y0375406D03*
X0085059Y0371469D03*
X0085059Y0367531D03*
X0085059Y0363594D03*
X0127059Y0363594D03*
X0127059Y0367531D03*
X0127059Y0371469D03*
X0127059Y0375406D03*
X0187059Y0375406D03*
X0187059Y0371469D03*
X0187059Y0367531D03*
X0187059Y0363594D03*
X0229059Y0363594D03*
X0229059Y0367531D03*
X0229059Y0371469D03*
X0229059Y0375406D03*
X0289059Y0375406D03*
X0289059Y0371469D03*
X0289059Y0367531D03*
X0289059Y0363594D03*
D15*
X0269059Y0386654D03*
X0269059Y0393346D03*
X0249059Y0393346D03*
X0249059Y0386654D03*
X0167059Y0386654D03*
X0167059Y0393346D03*
X0147059Y0393346D03*
X0147059Y0386654D03*
X0065059Y0386654D03*
X0065059Y0393346D03*
X0045059Y0393346D03*
X0045059Y0386654D03*
X0045059Y0191346D03*
X0045059Y0184654D03*
X0065059Y0184654D03*
X0065059Y0191346D03*
X0147059Y0191346D03*
X0147059Y0184654D03*
X0167059Y0184654D03*
X0167059Y0191346D03*
X0249059Y0191346D03*
X0249059Y0184654D03*
X0269059Y0184654D03*
X0269059Y0191346D03*
D16*
X0259059Y0188000D03*
X0157059Y0188000D03*
X0055059Y0188000D03*
X0055059Y0390000D03*
X0157059Y0390000D03*
X0259059Y0390000D03*
D17*
X0091122Y0128760D03*
X0091122Y0136240D03*
X0099390Y0132500D03*
X0193122Y0128760D03*
X0193122Y0136240D03*
X0201390Y0132500D03*
X0295122Y0128760D03*
X0295122Y0136240D03*
X0303390Y0132500D03*
X0295122Y0330760D03*
X0295122Y0338240D03*
X0303390Y0334500D03*
X0201390Y0334500D03*
X0193122Y0330760D03*
X0193122Y0338240D03*
X0099390Y0334500D03*
X0091122Y0330760D03*
X0091122Y0338240D03*
D18*
X0062559Y0351500D03*
X0057559Y0351500D03*
X0052559Y0351500D03*
X0047559Y0351500D03*
X0047559Y0380673D03*
X0052559Y0380673D03*
X0057559Y0380673D03*
X0062559Y0380673D03*
X0149559Y0380673D03*
X0154559Y0380673D03*
X0159559Y0380673D03*
X0164559Y0380673D03*
X0164559Y0351500D03*
X0159559Y0351500D03*
X0154559Y0351500D03*
X0149559Y0351500D03*
X0251559Y0351500D03*
X0256559Y0351500D03*
X0261559Y0351500D03*
X0266559Y0351500D03*
X0266559Y0380673D03*
X0261559Y0380673D03*
X0256559Y0380673D03*
X0251559Y0380673D03*
X0251559Y0178673D03*
X0256559Y0178673D03*
X0261559Y0178673D03*
X0266559Y0178673D03*
X0266559Y0149500D03*
X0261559Y0149500D03*
X0256559Y0149500D03*
X0251559Y0149500D03*
X0164559Y0149500D03*
X0159559Y0149500D03*
X0154559Y0149500D03*
X0149559Y0149500D03*
X0149559Y0178673D03*
X0154559Y0178673D03*
X0159559Y0178673D03*
X0164559Y0178673D03*
X0062559Y0178673D03*
X0057559Y0178673D03*
X0052559Y0178673D03*
X0047559Y0178673D03*
X0047559Y0149500D03*
X0052559Y0149500D03*
X0057559Y0149500D03*
X0062559Y0149500D03*
D19*
X0072776Y0141500D03*
X0072776Y0131500D03*
X0037343Y0131500D03*
X0037343Y0141500D03*
X0139343Y0141500D03*
X0139343Y0131500D03*
X0174776Y0131500D03*
X0174776Y0141500D03*
X0241343Y0141500D03*
X0241343Y0131500D03*
X0276776Y0131500D03*
X0276776Y0141500D03*
X0276776Y0333500D03*
X0276776Y0343500D03*
X0241343Y0343500D03*
X0241343Y0333500D03*
X0174776Y0333500D03*
X0174776Y0343500D03*
X0139343Y0343500D03*
X0139343Y0333500D03*
X0072776Y0333500D03*
X0072776Y0343500D03*
X0037343Y0343500D03*
X0037343Y0333500D03*
M02*
