G75*
%MOIN*%
%OFA0B0*%
%FSLAX25Y25*%
%IPPOS*%
%LPD*%
%AMOC8*
5,1,8,0,0,1.08239X$1,22.5*
%
%ADD10R,0.05131X0.04737*%
%ADD11R,0.03280X0.04068*%
%ADD12C,0.01421*%
%ADD13R,0.08674X0.05524*%
%ADD14R,0.06115X0.03162*%
%ADD15R,0.10800X0.10800*%
%ADD16C,0.10800*%
%ADD17C,0.13800*%
%ADD18R,0.04737X0.05131*%
%ADD19R,0.03300X0.05800*%
%ADD20R,0.04343X0.03950*%
%ADD21R,0.10300X0.10300*%
%ADD22C,0.10300*%
%ADD23R,0.03800X0.06800*%
%ADD24R,0.06706X0.05918*%
%ADD25C,0.03300*%
%ADD26C,0.08200*%
D10*
X0011713Y0137500D03*
X0018406Y0137500D03*
X0018406Y0147500D03*
X0011713Y0147500D03*
X0026713Y0152500D03*
X0033406Y0152500D03*
X0031713Y0182500D03*
X0038406Y0182500D03*
X0071713Y0182500D03*
X0078406Y0182500D03*
X0076713Y0152500D03*
X0083406Y0152500D03*
X0091713Y0142500D03*
X0098406Y0142500D03*
X0113713Y0137500D03*
X0120406Y0137500D03*
X0120406Y0147500D03*
X0113713Y0147500D03*
X0128713Y0152500D03*
X0135406Y0152500D03*
X0133713Y0182500D03*
X0140406Y0182500D03*
X0173713Y0182500D03*
X0180406Y0182500D03*
X0178713Y0152500D03*
X0185406Y0152500D03*
X0193713Y0142500D03*
X0200406Y0142500D03*
X0215713Y0137500D03*
X0222406Y0137500D03*
X0222406Y0147500D03*
X0215713Y0147500D03*
X0230713Y0152500D03*
X0237406Y0152500D03*
X0235713Y0182500D03*
X0242406Y0182500D03*
X0275713Y0182500D03*
X0282406Y0182500D03*
X0280713Y0152500D03*
X0287406Y0152500D03*
X0295713Y0142500D03*
X0302406Y0142500D03*
X0222406Y0339500D03*
X0215713Y0339500D03*
X0215713Y0349500D03*
X0222406Y0349500D03*
X0230713Y0354500D03*
X0237406Y0354500D03*
X0235713Y0384500D03*
X0242406Y0384500D03*
X0275713Y0384500D03*
X0282406Y0384500D03*
X0280713Y0354500D03*
X0287406Y0354500D03*
X0295713Y0344500D03*
X0302406Y0344500D03*
X0200406Y0344500D03*
X0193713Y0344500D03*
X0185406Y0354500D03*
X0178713Y0354500D03*
X0180406Y0384500D03*
X0173713Y0384500D03*
X0140406Y0384500D03*
X0133713Y0384500D03*
X0135406Y0354500D03*
X0128713Y0354500D03*
X0120406Y0349500D03*
X0113713Y0349500D03*
X0113713Y0339500D03*
X0120406Y0339500D03*
X0098406Y0344500D03*
X0091713Y0344500D03*
X0083406Y0354500D03*
X0076713Y0354500D03*
X0078406Y0384500D03*
X0071713Y0384500D03*
X0038406Y0384500D03*
X0031713Y0384500D03*
X0033406Y0354500D03*
X0026713Y0354500D03*
X0018406Y0349500D03*
X0011713Y0349500D03*
X0011713Y0339500D03*
X0018406Y0339500D03*
D11*
X0019587Y0334500D03*
X0010532Y0334500D03*
X0112532Y0334500D03*
X0121587Y0334500D03*
X0214532Y0334500D03*
X0223587Y0334500D03*
X0223587Y0132500D03*
X0214532Y0132500D03*
X0121587Y0132500D03*
X0112532Y0132500D03*
X0019587Y0132500D03*
X0010532Y0132500D03*
D12*
X0013265Y0140842D02*
X0013265Y0144158D01*
X0013265Y0140842D02*
X0009949Y0140842D01*
X0009949Y0144158D01*
X0013265Y0144158D01*
X0013265Y0142262D02*
X0009949Y0142262D01*
X0009949Y0143682D02*
X0013265Y0143682D01*
X0020170Y0144158D02*
X0020170Y0140842D01*
X0016854Y0140842D01*
X0016854Y0144158D01*
X0020170Y0144158D01*
X0020170Y0142262D02*
X0016854Y0142262D01*
X0016854Y0143682D02*
X0020170Y0143682D01*
X0093265Y0145842D02*
X0093265Y0149158D01*
X0093265Y0145842D02*
X0089949Y0145842D01*
X0089949Y0149158D01*
X0093265Y0149158D01*
X0093265Y0147262D02*
X0089949Y0147262D01*
X0089949Y0148682D02*
X0093265Y0148682D01*
X0100170Y0149158D02*
X0100170Y0145842D01*
X0096854Y0145842D01*
X0096854Y0149158D01*
X0100170Y0149158D01*
X0100170Y0147262D02*
X0096854Y0147262D01*
X0096854Y0148682D02*
X0100170Y0148682D01*
X0115265Y0144158D02*
X0115265Y0140842D01*
X0111949Y0140842D01*
X0111949Y0144158D01*
X0115265Y0144158D01*
X0115265Y0142262D02*
X0111949Y0142262D01*
X0111949Y0143682D02*
X0115265Y0143682D01*
X0122170Y0144158D02*
X0122170Y0140842D01*
X0118854Y0140842D01*
X0118854Y0144158D01*
X0122170Y0144158D01*
X0122170Y0142262D02*
X0118854Y0142262D01*
X0118854Y0143682D02*
X0122170Y0143682D01*
X0195265Y0145842D02*
X0195265Y0149158D01*
X0195265Y0145842D02*
X0191949Y0145842D01*
X0191949Y0149158D01*
X0195265Y0149158D01*
X0195265Y0147262D02*
X0191949Y0147262D01*
X0191949Y0148682D02*
X0195265Y0148682D01*
X0202170Y0149158D02*
X0202170Y0145842D01*
X0198854Y0145842D01*
X0198854Y0149158D01*
X0202170Y0149158D01*
X0202170Y0147262D02*
X0198854Y0147262D01*
X0198854Y0148682D02*
X0202170Y0148682D01*
X0217265Y0144158D02*
X0217265Y0140842D01*
X0213949Y0140842D01*
X0213949Y0144158D01*
X0217265Y0144158D01*
X0217265Y0142262D02*
X0213949Y0142262D01*
X0213949Y0143682D02*
X0217265Y0143682D01*
X0224170Y0144158D02*
X0224170Y0140842D01*
X0220854Y0140842D01*
X0220854Y0144158D01*
X0224170Y0144158D01*
X0224170Y0142262D02*
X0220854Y0142262D01*
X0220854Y0143682D02*
X0224170Y0143682D01*
X0297265Y0145842D02*
X0297265Y0149158D01*
X0297265Y0145842D02*
X0293949Y0145842D01*
X0293949Y0149158D01*
X0297265Y0149158D01*
X0297265Y0147262D02*
X0293949Y0147262D01*
X0293949Y0148682D02*
X0297265Y0148682D01*
X0304170Y0149158D02*
X0304170Y0145842D01*
X0300854Y0145842D01*
X0300854Y0149158D01*
X0304170Y0149158D01*
X0304170Y0147262D02*
X0300854Y0147262D01*
X0300854Y0148682D02*
X0304170Y0148682D01*
X0224170Y0342842D02*
X0224170Y0346158D01*
X0224170Y0342842D02*
X0220854Y0342842D01*
X0220854Y0346158D01*
X0224170Y0346158D01*
X0224170Y0344262D02*
X0220854Y0344262D01*
X0220854Y0345682D02*
X0224170Y0345682D01*
X0217265Y0346158D02*
X0217265Y0342842D01*
X0213949Y0342842D01*
X0213949Y0346158D01*
X0217265Y0346158D01*
X0217265Y0344262D02*
X0213949Y0344262D01*
X0213949Y0345682D02*
X0217265Y0345682D01*
X0202170Y0347842D02*
X0202170Y0351158D01*
X0202170Y0347842D02*
X0198854Y0347842D01*
X0198854Y0351158D01*
X0202170Y0351158D01*
X0202170Y0349262D02*
X0198854Y0349262D01*
X0198854Y0350682D02*
X0202170Y0350682D01*
X0195265Y0351158D02*
X0195265Y0347842D01*
X0191949Y0347842D01*
X0191949Y0351158D01*
X0195265Y0351158D01*
X0195265Y0349262D02*
X0191949Y0349262D01*
X0191949Y0350682D02*
X0195265Y0350682D01*
X0122170Y0346158D02*
X0122170Y0342842D01*
X0118854Y0342842D01*
X0118854Y0346158D01*
X0122170Y0346158D01*
X0122170Y0344262D02*
X0118854Y0344262D01*
X0118854Y0345682D02*
X0122170Y0345682D01*
X0115265Y0346158D02*
X0115265Y0342842D01*
X0111949Y0342842D01*
X0111949Y0346158D01*
X0115265Y0346158D01*
X0115265Y0344262D02*
X0111949Y0344262D01*
X0111949Y0345682D02*
X0115265Y0345682D01*
X0100170Y0347842D02*
X0100170Y0351158D01*
X0100170Y0347842D02*
X0096854Y0347842D01*
X0096854Y0351158D01*
X0100170Y0351158D01*
X0100170Y0349262D02*
X0096854Y0349262D01*
X0096854Y0350682D02*
X0100170Y0350682D01*
X0093265Y0351158D02*
X0093265Y0347842D01*
X0089949Y0347842D01*
X0089949Y0351158D01*
X0093265Y0351158D01*
X0093265Y0349262D02*
X0089949Y0349262D01*
X0089949Y0350682D02*
X0093265Y0350682D01*
X0020170Y0346158D02*
X0020170Y0342842D01*
X0016854Y0342842D01*
X0016854Y0346158D01*
X0020170Y0346158D01*
X0020170Y0344262D02*
X0016854Y0344262D01*
X0016854Y0345682D02*
X0020170Y0345682D01*
X0013265Y0346158D02*
X0013265Y0342842D01*
X0009949Y0342842D01*
X0009949Y0346158D01*
X0013265Y0346158D01*
X0013265Y0344262D02*
X0009949Y0344262D01*
X0009949Y0345682D02*
X0013265Y0345682D01*
X0297265Y0347842D02*
X0297265Y0351158D01*
X0297265Y0347842D02*
X0293949Y0347842D01*
X0293949Y0351158D01*
X0297265Y0351158D01*
X0297265Y0349262D02*
X0293949Y0349262D01*
X0293949Y0350682D02*
X0297265Y0350682D01*
X0304170Y0351158D02*
X0304170Y0347842D01*
X0300854Y0347842D01*
X0300854Y0351158D01*
X0304170Y0351158D01*
X0304170Y0349262D02*
X0300854Y0349262D01*
X0300854Y0350682D02*
X0304170Y0350682D01*
D13*
X0303528Y0358476D03*
X0303528Y0380524D03*
X0214591Y0380524D03*
X0201528Y0380524D03*
X0201528Y0358476D03*
X0214591Y0358476D03*
X0112591Y0358476D03*
X0099528Y0358476D03*
X0099528Y0380524D03*
X0112591Y0380524D03*
X0010591Y0380524D03*
X0010591Y0358476D03*
X0010591Y0178524D03*
X0010591Y0156476D03*
X0099528Y0156476D03*
X0112591Y0156476D03*
X0112591Y0178524D03*
X0099528Y0178524D03*
X0201528Y0178524D03*
X0214591Y0178524D03*
X0214591Y0156476D03*
X0201528Y0156476D03*
X0303528Y0156476D03*
X0303528Y0178524D03*
D14*
X0289059Y0173406D03*
X0289059Y0169469D03*
X0289059Y0165531D03*
X0289059Y0161594D03*
X0229059Y0161594D03*
X0229059Y0165531D03*
X0229059Y0169469D03*
X0229059Y0173406D03*
X0187059Y0173406D03*
X0187059Y0169469D03*
X0187059Y0165531D03*
X0187059Y0161594D03*
X0127059Y0161594D03*
X0127059Y0165531D03*
X0127059Y0169469D03*
X0127059Y0173406D03*
X0085059Y0173406D03*
X0085059Y0169469D03*
X0085059Y0165531D03*
X0085059Y0161594D03*
X0025059Y0161594D03*
X0025059Y0165531D03*
X0025059Y0169469D03*
X0025059Y0173406D03*
X0025059Y0363594D03*
X0025059Y0367531D03*
X0025059Y0371469D03*
X0025059Y0375406D03*
X0085059Y0375406D03*
X0085059Y0371469D03*
X0085059Y0367531D03*
X0085059Y0363594D03*
X0127059Y0363594D03*
X0127059Y0367531D03*
X0127059Y0371469D03*
X0127059Y0375406D03*
X0187059Y0375406D03*
X0187059Y0371469D03*
X0187059Y0367531D03*
X0187059Y0363594D03*
X0229059Y0363594D03*
X0229059Y0367531D03*
X0229059Y0371469D03*
X0229059Y0375406D03*
X0289059Y0375406D03*
X0289059Y0371469D03*
X0289059Y0367531D03*
X0289059Y0363594D03*
D15*
X0259079Y0318043D03*
X0157079Y0318043D03*
X0055079Y0318043D03*
X0055079Y0116043D03*
X0157079Y0116043D03*
X0259079Y0116043D03*
D16*
X0235457Y0108169D03*
X0235457Y0060138D03*
X0282701Y0060138D03*
X0282701Y0108169D03*
X0180701Y0108169D03*
X0180701Y0060138D03*
X0133457Y0060138D03*
X0133457Y0108169D03*
X0078701Y0108169D03*
X0078701Y0060138D03*
X0031457Y0060138D03*
X0031457Y0108169D03*
X0031457Y0262138D03*
X0031457Y0310169D03*
X0078701Y0310169D03*
X0078701Y0262138D03*
X0133457Y0262138D03*
X0133457Y0310169D03*
X0180701Y0310169D03*
X0180701Y0262138D03*
X0235457Y0262138D03*
X0235457Y0310169D03*
X0282701Y0310169D03*
X0282701Y0262138D03*
D17*
X0015059Y0012500D03*
X0095059Y0012500D03*
X0117059Y0012500D03*
X0197059Y0012500D03*
X0219059Y0012500D03*
X0299059Y0012500D03*
X0299059Y0192500D03*
X0299059Y0214500D03*
X0219059Y0214500D03*
X0219059Y0192500D03*
X0197059Y0192500D03*
X0197059Y0214500D03*
X0117059Y0214500D03*
X0117059Y0192500D03*
X0095059Y0192500D03*
X0095059Y0214500D03*
X0015059Y0214500D03*
X0015059Y0192500D03*
X0015059Y0394500D03*
X0095059Y0394500D03*
X0117059Y0394500D03*
X0197059Y0394500D03*
X0219059Y0394500D03*
X0299059Y0394500D03*
D18*
X0269059Y0393346D03*
X0269059Y0386654D03*
X0249059Y0386654D03*
X0249059Y0393346D03*
X0167059Y0393346D03*
X0167059Y0386654D03*
X0147059Y0386654D03*
X0147059Y0393346D03*
X0065059Y0393346D03*
X0065059Y0386654D03*
X0045059Y0386654D03*
X0045059Y0393346D03*
X0045059Y0191346D03*
X0045059Y0184654D03*
X0065059Y0184654D03*
X0065059Y0191346D03*
X0147059Y0191346D03*
X0147059Y0184654D03*
X0167059Y0184654D03*
X0167059Y0191346D03*
X0249059Y0191346D03*
X0249059Y0184654D03*
X0269059Y0184654D03*
X0269059Y0191346D03*
D19*
X0262259Y0188000D03*
X0259059Y0188000D03*
X0255859Y0188000D03*
X0160259Y0188000D03*
X0157059Y0188000D03*
X0153859Y0188000D03*
X0058259Y0188000D03*
X0055059Y0188000D03*
X0051859Y0188000D03*
X0051859Y0390000D03*
X0055059Y0390000D03*
X0058259Y0390000D03*
X0153859Y0390000D03*
X0157059Y0390000D03*
X0160259Y0390000D03*
X0255859Y0390000D03*
X0259059Y0390000D03*
X0262259Y0390000D03*
D20*
X0295122Y0338240D03*
X0295122Y0330760D03*
X0303390Y0334500D03*
X0201390Y0334500D03*
X0193122Y0330760D03*
X0193122Y0338240D03*
X0099390Y0334500D03*
X0091122Y0330760D03*
X0091122Y0338240D03*
X0091122Y0136240D03*
X0091122Y0128760D03*
X0099390Y0132500D03*
X0193122Y0128760D03*
X0193122Y0136240D03*
X0201390Y0132500D03*
X0295122Y0128760D03*
X0295122Y0136240D03*
X0303390Y0132500D03*
D21*
X0239059Y0219500D03*
X0137059Y0219500D03*
X0035059Y0219500D03*
X0035059Y0017500D03*
X0137059Y0017500D03*
X0239059Y0017500D03*
D22*
X0258744Y0017500D03*
X0278429Y0017500D03*
X0176429Y0017500D03*
X0156744Y0017500D03*
X0074429Y0017500D03*
X0054744Y0017500D03*
X0054744Y0219500D03*
X0074429Y0219500D03*
X0156744Y0219500D03*
X0176429Y0219500D03*
X0258744Y0219500D03*
X0278429Y0219500D03*
D23*
X0266559Y0178673D03*
X0261559Y0178673D03*
X0256559Y0178673D03*
X0251559Y0178673D03*
X0251559Y0149500D03*
X0256559Y0149500D03*
X0261559Y0149500D03*
X0266559Y0149500D03*
X0164559Y0149500D03*
X0159559Y0149500D03*
X0154559Y0149500D03*
X0149559Y0149500D03*
X0149559Y0178673D03*
X0154559Y0178673D03*
X0159559Y0178673D03*
X0164559Y0178673D03*
X0062559Y0178673D03*
X0057559Y0178673D03*
X0052559Y0178673D03*
X0047559Y0178673D03*
X0047559Y0149500D03*
X0052559Y0149500D03*
X0057559Y0149500D03*
X0062559Y0149500D03*
X0062559Y0351500D03*
X0057559Y0351500D03*
X0052559Y0351500D03*
X0047559Y0351500D03*
X0047559Y0380673D03*
X0052559Y0380673D03*
X0057559Y0380673D03*
X0062559Y0380673D03*
X0149559Y0380673D03*
X0154559Y0380673D03*
X0159559Y0380673D03*
X0164559Y0380673D03*
X0164559Y0351500D03*
X0159559Y0351500D03*
X0154559Y0351500D03*
X0149559Y0351500D03*
X0251559Y0351500D03*
X0256559Y0351500D03*
X0261559Y0351500D03*
X0266559Y0351500D03*
X0266559Y0380673D03*
X0261559Y0380673D03*
X0256559Y0380673D03*
X0251559Y0380673D03*
D24*
X0241343Y0343500D03*
X0241343Y0333500D03*
X0276776Y0333500D03*
X0276776Y0343500D03*
X0174776Y0343500D03*
X0174776Y0333500D03*
X0139343Y0333500D03*
X0139343Y0343500D03*
X0072776Y0343500D03*
X0072776Y0333500D03*
X0037343Y0333500D03*
X0037343Y0343500D03*
X0037343Y0141500D03*
X0037343Y0131500D03*
X0072776Y0131500D03*
X0072776Y0141500D03*
X0139343Y0141500D03*
X0139343Y0131500D03*
X0174776Y0131500D03*
X0174776Y0141500D03*
X0241343Y0141500D03*
X0241343Y0131500D03*
X0276776Y0131500D03*
X0276776Y0141500D03*
D25*
X0306559Y0207000D03*
X0212059Y0200000D03*
X0204559Y0207000D03*
X0110059Y0200000D03*
X0102559Y0207000D03*
X0008059Y0200000D03*
X0102559Y0005000D03*
X0204559Y0005000D03*
X0306559Y0005000D03*
X0212059Y0402000D03*
X0110059Y0402000D03*
X0008059Y0402000D03*
D26*
X0040059Y0399500D03*
X0050059Y0399500D03*
X0060059Y0399500D03*
X0070059Y0399500D03*
X0142059Y0399500D03*
X0152059Y0399500D03*
X0162059Y0399500D03*
X0172059Y0399500D03*
X0244059Y0399500D03*
X0254059Y0399500D03*
X0264059Y0399500D03*
X0274059Y0399500D03*
X0274059Y0197500D03*
X0264059Y0197500D03*
X0254059Y0197500D03*
X0244059Y0197500D03*
X0172059Y0197500D03*
X0162059Y0197500D03*
X0152059Y0197500D03*
X0142059Y0197500D03*
X0070059Y0197500D03*
X0060059Y0197500D03*
X0050059Y0197500D03*
X0040059Y0197500D03*
M02*
